<?xml version="1.0" standalone="no"?>
<!DOCTYPE svg PUBLIC "-//W3C//DTD SVG 20010904//EN"
 "http://www.w3.org/TR/2001/REC-SVG-20010904/DTD/svg10.dtd">
<svg version="1.0" xmlns="http://www.w3.org/2000/svg"
 width="1024.000000pt" height="1024.000000pt" viewBox="0 0 1024.000000 1024.000000"
 preserveAspectRatio="xMidYMid meet">

<g transform="translate(0.000000,1024.000000) scale(0.100000,-0.100000)"
fill="#000000" stroke="none">
<path d="M5126 9215 c2 -49 8 -157 13 -240 4 -82 5 -289 1 -460 -5 -268 -8
-313 -22 -330 -34 -41 -142 -190 -141 -195 1 -3 -1 -7 -3 -9 -2 -2 -4 3 -4 12
0 29 33 101 57 124 13 12 23 27 23 33 0 5 5 10 11 10 8 0 8 4 1 13 -5 6 -9 26
-7 42 1 17 3 53 4 80 3 47 3 48 12 20 5 -16 8 -46 6 -65 -3 -19 -2 -46 2 -60
7 -23 8 -24 14 -5 11 32 17 154 8 160 -5 2 -5 23 -1 45 4 22 4 40 -1 40 -4 0
-6 37 -2 83 5 75 5 193 0 399 -2 96 -20 87 -21 -11 -1 -49 -4 -67 -12 -60 -6
5 -14 6 -17 2 -4 -3 -7 0 -8 8 0 8 -4 4 -9 -9 -5 -12 -8 -28 -6 -35 1 -6 1 -8
-2 -4 -2 5 -15 -15 -29 -45 -13 -29 -29 -55 -34 -59 -6 -3 -10 -9 -10 -13 3
-23 -5 -37 -49 -85 -28 -30 -50 -58 -50 -62 0 -4 -9 -10 -19 -14 -24 -7 -36
-36 -19 -47 21 -13 28 -9 21 10 -7 18 -5 17 17 -12 10 -13 10 -17 3 -12 -7 4
-13 3 -13 -2 0 -5 11 -15 25 -22 53 -28 116 -154 114 -227 l-1 -48 -9 57 c-16
107 -78 197 -169 242 -39 19 -58 22 -148 19 -133 -4 -163 -18 -53 -26 100 -6
150 -33 216 -114 80 -97 106 -167 126 -338 6 -55 15 -104 19 -108 4 -5 20 11
34 35 31 53 65 86 89 85 10 0 17 -8 17 -19 0 -10 4 -18 9 -18 5 0 11 -9 14
-21 3 -12 3 -18 0 -15 -3 3 -12 -2 -20 -12 -13 -15 -13 -14 -3 6 7 13 9 26 7
28 -6 6 -43 -88 -39 -98 1 -5 -3 -8 -9 -8 -5 0 -7 -5 -4 -10 4 -6 2 -9 -3 -8
-6 2 -22 -15 -36 -37 l-27 -40 26 28 c40 45 29 15 -17 -44 -225 -290 -608
-497 -1043 -564 -117 -18 -369 -19 -410 -1 -27 12 -20 13 65 8 52 -2 93 -2 90
1 -3 3 -33 7 -66 9 -73 3 -75 18 -6 38 71 20 89 37 138 135 51 103 48 97 189
308 120 181 191 276 319 432 220 267 220 277 -1 53 -190 -194 -257 -267 -388
-425 -54 -65 -147 -167 -205 -228 -59 -60 -129 -137 -155 -170 -27 -33 -56
-66 -67 -73 -10 -7 -18 -18 -18 -24 0 -6 -11 -25 -24 -42 -13 -18 -41 -70 -62
-116 -68 -149 -223 -451 -296 -575 -232 -394 -430 -705 -450 -705 -6 0 -26 9
-44 21 -23 14 -34 17 -34 8 0 -7 -16 4 -35 26 -42 45 -42 55 0 17 22 -19 43
-28 76 -30 l46 -3 65 98 c166 251 349 557 463 777 77 149 77 150 72 214 -3 38
-1 59 4 51 5 -8 9 -23 9 -34 0 -17 2 -17 10 -5 8 13 10 13 10 -2 0 -9 -4 -28
-10 -42 -5 -14 -7 -26 -5 -26 9 0 57 115 57 137 0 13 4 20 9 17 5 -3 7 1 4 8
-3 7 3 29 13 49 l18 36 -44 -28 c-46 -29 -88 -44 -205 -74 l-67 -17 39 -20
c60 -29 69 -67 37 -151 -13 -36 -22 -68 -19 -71 4 -3 1 -6 -6 -6 -7 0 -9 -4
-6 -10 5 -8 -59 -138 -118 -240 -66 -114 -182 -280 -270 -390 -20 -25 -47 -58
-59 -74 -36 -46 -82 -86 -88 -77 -3 4 -14 -1 -25 -11 -20 -19 -20 -19 0 -13
20 6 20 6 0 -6 -11 -8 -22 -14 -25 -14 -10 -1 -30 -16 -30 -23 0 -4 27 -35 59
-69 33 -33 79 -91 102 -128 39 -62 43 -66 51 -45 4 12 68 122 141 244 74 121
187 310 252 419 111 188 199 327 268 427 156 224 225 335 215 347 -22 27 11
12 42 -19 67 -68 121 -168 149 -280 22 -87 17 -105 -12 -46 -24 50 -32 58 -70
78 -16 8 -33 22 -38 32 -17 32 -59 22 -102 -24 -21 -24 -44 -55 -49 -71 -6
-15 -18 -32 -28 -37 -10 -5 -24 -26 -30 -45 -6 -19 -16 -35 -21 -35 -5 0 -9
-5 -9 -12 0 -6 -11 -26 -25 -44 -14 -18 -25 -37 -25 -42 0 -5 -6 -15 -14 -21
-8 -7 -26 -35 -40 -64 -15 -29 -40 -70 -56 -92 -17 -22 -37 -54 -46 -72 -9
-18 -26 -42 -39 -55 -23 -24 -60 -88 -50 -88 8 0 -45 -101 -71 -136 -13 -17
-24 -34 -24 -38 0 -4 -17 -33 -38 -64 -75 -111 -122 -211 -129 -276 -3 -28
-12 -61 -20 -74 -25 -41 6 -67 170 -138 42 -18 77 -31 77 -29 0 3 28 -9 63
-27 55 -28 59 -32 38 -37 -18 -5 -9 -10 40 -21 51 -11 59 -15 39 -20 -20 -5
-24 -11 -22 -33 3 -20 -5 -35 -27 -56 -17 -16 -33 -26 -36 -23 -3 3 -5 0 -5
-7 0 -6 -9 -21 -20 -33 -11 -12 -20 -19 -20 -15 0 4 -26 -10 -57 -31 -32 -22
-73 -43 -90 -46 -18 -4 -33 -12 -33 -17 0 -5 -9 -9 -20 -9 -10 0 -33 -13 -49
-29 -42 -41 -36 -67 72 -279 181 -355 207 -407 207 -420 0 -8 15 -28 33 -45
17 -18 43 -48 57 -67 47 -67 93 -118 111 -123 19 -5 50 15 95 60 13 13 36 26
52 29 19 4 34 17 44 37 19 37 41 126 43 177 1 19 11 62 23 95 24 71 50 182 57
245 5 46 34 144 40 138 4 -4 -37 -214 -59 -303 -24 -93 -17 -99 10 -10 13 44
22 67 20 50 -8 -52 -47 -238 -63 -293 -8 -29 -13 -56 -10 -59 3 -3 -2 -28 -13
-57 -22 -62 -41 -144 -60 -266 -5 -30 -13 -73 -19 -95 -37 -138 -51 -224 -57
-332 -6 -109 -5 -123 9 -123 10 0 20 14 26 38 6 20 22 54 36 74 14 20 25 44
25 52 0 8 3 16 8 18 20 9 52 102 58 173 1 17 9 73 17 125 9 52 23 145 32 205
9 61 23 142 30 180 26 127 53 523 35 493 -6 -10 -11 -39 -12 -65 0 -29 -3 -41
-7 -29 -4 10 1 73 12 140 10 66 21 136 24 155 2 18 6 31 8 30 2 -2 6 -83 8
-179 9 -294 52 -491 147 -685 78 -158 89 -175 141 -230 74 -79 218 -196 267
-217 26 -12 64 -32 84 -44 22 -14 44 -21 54 -17 10 4 15 2 11 -4 -11 -18 252
-116 347 -129 39 -6 45 -4 51 15 7 23 -2 61 -14 61 -5 0 -7 -12 -5 -28 2 -15
2 -22 -2 -15 -3 7 -12 9 -20 6 -8 -3 -22 1 -32 9 -9 8 -27 13 -39 12 -16 -1
-23 5 -24 17 -2 32 -4 37 -13 46 -5 4 -7 -4 -4 -20 4 -22 2 -27 -9 -23 -9 4
-13 1 -11 -6 2 -6 28 -20 56 -31 29 -11 51 -22 48 -24 -5 -5 -96 23 -196 60
-110 41 -120 46 -127 62 -3 9 -11 14 -19 11 -12 -5 -61 26 -76 48 -8 13 -1 26
15 26 7 0 6 -4 -3 -10 -11 -7 -8 -11 15 -20 16 -6 33 -17 37 -23 5 -8 8 -3 8
11 0 16 -6 22 -23 22 -16 0 -23 6 -24 20 -2 25 -26 50 -48 50 -11 0 -15 5 -12
14 4 10 0 12 -14 9 -10 -3 -19 0 -19 6 0 6 -4 11 -10 11 -5 0 -7 -7 -4 -14 5
-13 2 -13 -20 -3 -15 7 -24 18 -21 27 2 8 0 22 -5 30 -5 8 -10 12 -10 7 0 -4
-14 5 -30 20 -17 14 -28 29 -24 32 3 3 9 -1 15 -9 8 -13 10 -13 18 0 7 9 6 19
-1 28 -8 9 -13 10 -18 1 -6 -8 -9 -8 -15 1 -4 6 -13 9 -21 6 -8 -3 -14 -1 -14
4 0 5 -7 6 -17 3 -11 -4 -14 -3 -9 5 9 15 43 16 51 2 3 -6 11 -10 17 -10 7 0
6 6 -2 15 -7 8 -21 15 -31 15 -11 0 -18 3 -18 8 4 21 -2 31 -15 26 -11 -4 -13
0 -9 15 4 14 1 21 -10 21 -8 0 -17 9 -20 21 -4 13 -10 18 -18 13 -8 -4 -10 -3
-5 5 4 6 -6 30 -21 54 -30 44 -133 250 -133 264 1 4 29 -46 63 -112 79 -153
112 -200 215 -307 95 -98 180 -160 332 -240 287 -151 632 -184 902 -85 196 71
350 227 408 414 26 84 36 219 21 297 -6 33 -9 61 -7 64 3 2 8 -13 11 -34 4
-22 9 -46 12 -54 3 -8 5 -50 6 -93 1 -58 4 -76 13 -73 8 3 11 -1 7 -9 -3 -8
-10 -12 -16 -8 -6 4 -8 0 -4 -10 3 -9 2 -19 -4 -23 -5 -3 -7 -15 -3 -26 4 -15
3 -19 -7 -14 -8 4 -7 1 2 -6 12 -9 14 -20 8 -36 -7 -17 -5 -22 8 -22 14 0 14
-3 -3 -21 -19 -22 -19 -22 4 -8 12 8 20 20 17 27 -6 17 5 72 16 72 4 0 6 -12
5 -27 -2 -16 1 -31 6 -34 5 -3 10 -19 11 -34 1 -22 -3 -30 -18 -33 -20 -4 -20
-4 -1 17 11 11 16 21 12 21 -11 0 -36 -27 -36 -40 0 -6 -4 -9 -8 -6 -5 3 -19
-8 -31 -25 -22 -30 -22 -30 -2 -19 12 6 21 15 21 21 0 6 5 7 11 3 6 -3 15 0
20 7 8 12 11 12 19 -1 6 -10 5 -21 -5 -35 -14 -21 -17 -21 -50 -9 -17 7 -18 6
-5 -8 8 -9 18 -14 23 -11 13 8 7 -14 -8 -27 -8 -7 -15 -17 -15 -23 0 -6 -8
-20 -17 -31 -18 -21 -18 -21 5 -2 12 11 22 23 22 28 0 4 16 24 36 43 19 19 33
39 29 45 -3 5 -2 10 3 10 6 0 8 10 5 23 -4 18 -3 19 7 7 9 -12 10 -11 5 9 -5
14 -3 21 3 17 8 -5 58 108 55 124 0 3 -4 68 -8 145 -4 93 -11 147 -21 162 -16
26 -17 33 -5 33 5 0 13 -9 16 -20 9 -28 31 -25 44 8 6 15 25 36 41 47 17 11
30 22 30 25 0 3 24 32 54 64 45 49 53 63 46 81 -6 17 -2 29 16 50 13 15 21 32
18 37 -4 6 -14 -2 -24 -17 -14 -21 -18 -23 -23 -11 -4 9 -12 16 -19 16 -9 0
-9 -3 0 -12 16 -16 15 -29 -2 -22 -8 3 -16 17 -19 32 -2 15 -7 34 -11 44 -5
11 -1 18 14 23 13 4 29 25 40 51 14 32 23 42 35 38 8 -3 15 -11 15 -17 0 -16
17 4 25 30 7 24 8 24 -85 7 -15 -3 -20 -1 -13 4 9 6 5 17 -17 41 -32 34 -36
46 -20 56 6 3 10 -2 10 -12 0 -10 8 -26 18 -34 16 -14 23 -14 48 -3 19 9 21
12 6 8 -13 -3 -28 1 -38 10 -14 15 -14 16 1 16 9 0 13 5 10 11 -4 6 -14 8 -22
5 -8 -3 -12 -2 -9 3 10 16 -22 35 -37 22 -21 -17 -28 -1 -10 25 14 23 14 26
-2 44 -21 24 -31 25 -38 6 -4 -10 -1 -13 9 -9 7 3 14 0 14 -6 0 -6 -6 -11 -14
-11 -8 0 -18 -5 -21 -10 -8 -14 4 -52 15 -45 5 3 12 0 16 -6 3 -6 1 -15 -6
-19 -8 -5 -6 -9 8 -12 10 -3 24 -20 30 -37 11 -31 10 -32 -11 -25 -22 6 -22 6
1 -16 19 -18 23 -29 18 -53 -8 -38 -23 -57 -47 -57 -11 0 -19 -4 -19 -8 0 -5
-14 -29 -32 -53 l-31 -43 -11 24 c-11 26 -25 40 -39 40 -5 0 -2 -7 6 -15 33
-33 -8 -74 -43 -42 -7 6 -2 -3 13 -21 30 -37 36 -62 10 -41 -15 13 -15 12 -3
-11 7 -14 14 -34 16 -45 1 -11 5 -33 9 -49 12 -46 -11 -23 -29 29 -39 115
-187 313 -288 383 -21 15 -90 62 -153 105 -116 79 -121 87 -92 124 5 7 13 68
18 135 11 157 16 205 25 246 4 20 3 32 -4 32 -21 0 -41 -122 -40 -250 0 -141
-32 -204 -85 -166 -12 9 -53 37 -92 62 -38 26 -86 57 -106 70 -19 13 -39 24
-45 25 -5 0 -47 26 -94 57 -65 44 -84 62 -82 77 3 16 1 17 -11 6 -16 -13 -29
-6 -137 64 -19 12 -102 66 -185 119 -82 53 -158 102 -167 108 -10 7 -54 33
-99 58 -45 25 -108 69 -141 98 -65 56 -66 56 -88 42 -13 -8 -12 -11 5 -25 11
-9 37 -24 58 -34 22 -11 34 -22 28 -25 -6 -4 -11 -5 -11 -1 0 19 -226 -119
-298 -184 -15 -12 -39 -29 -54 -37 -28 -15 -42 -11 -298 86 -41 16 -87 32
-103 36 -15 3 -30 11 -33 16 -4 7 2 7 17 2 64 -22 226 4 302 49 90 54 117 95
143 217 l14 65 -6 -55 c-3 -30 -9 -71 -15 -92 -11 -44 -89 -132 -138 -157 -45
-23 -140 -51 -178 -52 -24 -1 -22 -3 13 -11 127 -31 343 108 360 232 3 25 10
62 15 82 13 50 12 360 -1 487 -12 112 -39 256 -65 336 -8 27 -11 45 -6 40 12
-13 57 -166 66 -228 8 -54 16 -62 44 -47 17 9 20 6 23 -18 4 -30 -10 -72 -24
-72 -5 0 -6 5 -3 10 3 6 2 10 -3 10 -5 0 -9 -11 -9 -25 0 -20 2 -23 18 -15 16
9 18 7 14 -21 -4 -31 -15 -53 -15 -31 0 7 -4 12 -10 12 -5 0 -10 -5 -10 -11 0
-20 32 -79 40 -74 4 3 11 -2 14 -11 13 -35 31 -6 31 51 0 37 5 60 12 62 9 3
12 -9 9 -41 -2 -25 -1 -44 3 -42 3 2 7 -7 7 -20 1 -15 -2 -21 -9 -17 -6 4 -8
0 -4 -10 4 -10 2 -17 -4 -17 -6 0 -1 -9 12 -21 13 -11 18 -18 11 -14 -6 3 -15
-1 -18 -10 -6 -14 -8 -14 -20 2 -13 17 -14 17 -20 -4 -3 -13 -10 -20 -15 -17
-5 3 -9 -2 -9 -10 0 -9 3 -15 8 -14 19 4 39 -15 35 -33 -3 -10 -9 -19 -14 -19
-5 0 -9 -5 -9 -11 0 -8 4 -8 15 1 8 6 20 8 27 4 9 -6 9 -3 -1 9 -16 20 -9 32
12 24 15 -6 11 -67 -4 -67 -5 0 -9 5 -9 10 0 6 -5 10 -11 10 -6 0 -9 -7 -6
-15 4 -8 2 -17 -2 -20 -12 -7 -21 -45 -10 -45 5 0 9 7 9 15 0 8 4 15 10 15 6
0 6 -9 1 -22 -5 -13 -13 -23 -19 -23 -6 0 -14 -3 -18 -7 -4 -5 -2 -8 4 -8 17
0 15 -27 -2 -33 -7 -3 -23 1 -34 9 -19 13 -21 12 -27 -17 -4 -17 -4 -33 -1
-36 3 -4 6 1 6 9 0 21 27 30 34 12 3 -8 2 -12 -4 -9 -5 3 -14 -3 -19 -14 -16
-30 -13 -36 8 -17 18 17 20 17 30 -2 7 -14 7 -24 -4 -38 -7 -10 -17 -16 -21
-12 -4 4 -1 14 6 23 7 8 9 15 5 15 -9 0 -34 -31 -35 -42 0 -18 40 -6 59 18 11
14 24 23 29 20 5 -3 18 4 28 15 18 20 19 40 18 303 -1 319 -16 443 -81 649 -4
13 -1 16 13 11 44 -16 -16 26 -141 99 -181 106 -205 120 -201 124 2 2 32 -2
68 -10 102 -21 309 1 518 53 302 77 636 281 809 496 65 80 121 184 121 226 1
14 8 4 19 -27 55 -151 203 -332 366 -447 204 -144 469 -245 750 -284 106 -15
257 -15 300 0 l20 8 -20 -17 c-11 -9 -38 -25 -60 -35 -110 -49 -180 -85 -218
-114 -23 -17 -61 -40 -84 -50 -36 -16 -45 -17 -59 -5 -14 11 -15 10 -12 -6 1
-10 -3 -20 -10 -22 -7 -3 -10 1 -6 11 4 10 1 16 -8 16 -8 0 -23 9 -33 20 -26
28 -35 25 -31 -12 2 -19 15 -41 30 -55 14 -12 26 -28 26 -35 0 -7 -10 -1 -21
15 -20 27 -59 37 -59 16 0 -6 6 -9 14 -6 9 4 21 -8 32 -31 11 -20 22 -38 27
-40 4 -2 7 -11 7 -21 0 -9 7 -27 16 -39 8 -12 12 -22 8 -22 -5 0 -3 -5 4 -12
7 -7 12 -29 12 -49 0 -57 15 -54 18 3 2 33 -2 58 -13 74 -8 13 -20 36 -25 50
-8 21 -8 25 3 21 10 -4 13 2 9 19 -8 43 6 74 31 70 12 -1 27 4 34 13 11 14 12
14 13 1 1 -8 6 -4 11 9 17 44 19 16 3 -45 -22 -80 -32 -125 -48 -214 -8 -46
-17 -74 -24 -72 -14 3 -16 -15 -2 -20 6 -2 6 -34 -1 -93 -5 -49 -8 -133 -5
-185 l5 -95 -19 85 c-21 92 -26 205 -10 215 6 3 10 16 9 28 0 21 -1 21 -8 2
-6 -15 -10 -6 -16 35 -4 30 -7 60 -6 67 1 6 -3 14 -8 18 -6 3 -8 12 -5 19 3 7
-2 16 -10 19 -9 4 -16 13 -16 21 0 35 -64 131 -139 209 -50 52 -158 127 -182
127 -5 0 -9 4 -9 10 0 5 8 7 18 4 16 -5 16 -5 -1 6 -9 6 -22 8 -27 5 -6 -4 -9
-1 -8 5 2 6 -13 17 -32 24 -19 8 -73 30 -120 50 -85 37 -118 47 -285 90 -71
19 -110 23 -185 21 -173 -6 -443 -109 -633 -242 -85 -60 -136 -125 -171 -222
l-22 -60 -69 56 c-75 60 -89 82 -81 125 6 28 -8 47 -19 27 -4 -6 -17 -14 -28
-18 -15 -6 -22 -17 -22 -39 0 -17 3 -28 7 -26 4 3 8 13 8 22 0 15 1 15 16 0
15 -15 15 -18 -4 -38 -20 -21 -29 -58 -31 -124 -1 -16 2 -27 5 -23 6 5 10 37
13 94 1 12 10 27 21 33 24 13 50 2 29 -12 -9 -6 -5 -7 12 -3 20 5 35 -2 76
-39 28 -25 56 -46 61 -46 6 0 4 -24 -7 -61 -12 -43 -24 -65 -42 -76 -18 -10
-19 -13 -4 -9 18 5 23 -4 43 -77 38 -136 153 -302 266 -384 28 -21 65 -50 81
-65 17 -15 33 -28 37 -28 4 0 36 -20 71 -45 36 -25 68 -45 73 -45 4 0 15 -6
23 -14 25 -22 121 -76 121 -68 -1 6 -62 47 -144 95 -17 11 -40 27 -52 38 -11
10 -26 19 -32 19 -7 0 -12 4 -12 9 0 5 -10 11 -23 15 -13 3 -42 23 -65 44 -23
21 -42 37 -42 34 0 -2 -6 1 -14 8 -19 15 -10 41 11 33 11 -4 14 -2 9 5 -8 13
-48 12 -57 -1 -4 -5 -6 3 -6 17 0 14 2 24 6 22 4 -3 7 4 7 14 0 10 -5 18 -11
17 -5 -1 -9 4 -7 12 1 7 -2 19 -8 25 -5 7 -7 16 -3 20 4 4 1 11 -6 15 -9 6
-10 11 -2 15 6 4 11 2 11 -5 0 -8 4 -8 15 1 8 7 15 18 15 24 0 8 -3 7 -8 -1
-10 -16 -28 -4 -37 26 -5 18 -4 22 5 16 9 -6 11 -4 6 4 -5 7 -15 10 -25 6 -12
-5 -13 -3 -4 6 6 6 9 18 6 25 -11 30 14 12 32 -23 49 -95 233 -236 597 -462
258 -159 350 -217 518 -326 36 -23 112 -72 170 -108 105 -67 223 -147 420
-287 241 -172 358 -237 398 -223 9 3 14 3 10 -1 -3 -4 -37 -14 -75 -22 -101
-21 -195 -53 -227 -79 -30 -24 -32 -31 -27 -140 4 -86 3 -95 -13 -95 -12 0
-13 -7 -6 -31 5 -18 7 -35 5 -40 -3 -4 -1 -10 5 -14 5 -3 10 -14 10 -23 0 -13
-2 -13 -15 4 -10 14 -14 15 -15 5 0 -11 -4 -9 -15 5 -23 31 -18 -4 6 -37 18
-26 20 -38 14 -99 -16 -161 -2 -392 31 -495 9 -27 16 -68 16 -90 1 -31 2 -34
5 -11 l5 29 25 -29 c13 -16 22 -23 18 -17 -8 16 -3 16 30 1 32 -15 33 -32 0
-24 -15 4 -25 2 -25 -5 0 -6 14 -9 34 -8 19 2 39 -1 43 -5 4 -5 2 -6 -4 -2 -7
4 -13 3 -13 -3 0 -10 119 -71 138 -71 5 0 29 -11 53 -24 24 -13 64 -30 89 -37
42 -12 95 -39 76 -39 -38 0 -207 66 -324 126 -79 41 -154 74 -168 74 -14 0
-43 -9 -65 -21 -38 -19 -40 -19 -35 -2 3 10 1 25 -5 33 -9 12 -10 11 -6 -7 3
-13 1 -23 -4 -23 -8 0 -13 15 -10 33 0 4 -4 7 -10 7 -11 0 -3 -38 12 -54 5 -5
-47 -39 -124 -81 -73 -39 -143 -79 -158 -88 -14 -9 -51 -26 -83 -37 -46 -15
-55 -16 -46 -5 7 8 19 15 26 15 8 0 14 7 14 16 0 9 5 12 13 8 9 -5 9 -4 1 5
-11 12 -47 4 -39 -9 7 -12 -84 -72 -101 -66 -8 3 -13 2 -10 -2 3 -5 -14 -17
-37 -27 -139 -61 -184 -84 -292 -146 -67 -38 -135 -81 -153 -96 l-33 -28 0
-140 c-1 -77 -1 -272 0 -434 1 -162 -3 -299 -8 -304 -13 -13 -17 37 -14 188 1
77 3 183 4 235 1 52 1 173 0 267 l-2 173 -32 24 c-43 32 -150 90 -212 114 -27
11 -84 36 -125 55 -41 19 -115 47 -165 62 -49 15 -107 36 -128 47 -20 10 -55
19 -76 21 -22 1 -37 4 -35 6 6 6 -133 76 -221 111 -41 16 -100 44 -130 61 -30
17 -55 28 -55 25 0 -3 -20 3 -45 14 -26 11 -47 15 -50 10 -4 -6 -15 -10 -25
-10 -31 0 -172 -113 -231 -186 -101 -123 -126 -200 -115 -353 3 -53 9 -109 13
-126 3 -16 3 -28 0 -25 -3 3 -18 64 -33 135 -36 171 -36 312 0 507 31 166 31
183 1 63 -21 -83 -24 -88 -33 -63 -6 14 -59 99 -117 188 -58 89 -124 194 -147
234 -23 39 -71 123 -107 186 -37 63 -78 133 -92 155 -48 74 -263 470 -285 523
-24 59 -25 59 -47 -13 -20 -66 -26 -105 -16 -105 5 0 9 -4 9 -10 0 -5 44 -83
98 -172 110 -182 129 -215 197 -343 26 -49 51 -94 55 -100 11 -14 153 -297
188 -375 17 -37 51 -131 76 -210 26 -80 51 -149 56 -154 22 -22 8 -26 -19 -6
-53 37 -87 48 -281 86 -18 4 -14 -1 15 -17 90 -49 237 -181 357 -318 52 -59
72 -92 124 -209 l20 -44 -1 94 c0 112 19 159 101 247 69 75 150 114 250 119
97 5 176 -17 309 -87 340 -180 600 -448 789 -811 70 -135 166 -366 166 -400 0
-25 27 21 43 75 100 337 304 691 527 916 308 310 659 436 1052 378 52 -8 79
-16 83 -27 3 -8 2 -19 -2 -23 -13 -12 -94 -17 -124 -9 -16 5 -41 5 -56 1 -24
-6 -31 -17 -49 -79 -25 -80 -157 -287 -327 -513 -242 -322 -311 -411 -383
-499 -43 -52 -68 -86 -56 -76 23 20 31 10 10 -14 -21 -22 49 36 198 166 329
288 559 481 637 537 41 28 85 76 145 156 48 64 141 170 207 237 96 96 137 130
205 167 47 26 74 45 60 42 -227 -46 -321 -76 -333 -109 -4 -9 -11 -16 -17 -16
-6 0 1 15 16 34 22 27 44 39 113 60 47 14 114 29 149 33 l63 6 -41 18 c-27 12
-45 29 -57 53 -26 55 -5 122 106 341 156 306 277 484 433 637 48 47 88 93 88
101 0 8 -23 39 -50 68 -28 30 -64 83 -81 119 -44 93 -45 94 -55 96 -5 2 -37
-54 -71 -124 -82 -166 -316 -591 -456 -827 -69 -116 -191 -300 -220 -332 l-20
-22 30 -58 c40 -79 46 -96 30 -86 -187 118 -335 358 -388 628 -19 96 -28 276
-19 386 14 177 86 349 145 349 22 0 23 -3 21 -77 -2 -70 -20 -165 -46 -248
-14 -46 5 -373 24 -404 4 -5 9 -31 12 -58 3 -29 13 -55 25 -66 10 -10 19 -24
19 -32 0 -8 3 -15 8 -15 4 0 22 -23 41 -50 24 -36 41 -50 57 -50 25 0 84 56
84 79 0 21 51 97 102 151 25 28 57 64 70 81 31 42 48 59 97 93 22 16 48 45 57
65 9 20 27 50 39 66 12 17 33 55 46 85 12 30 33 71 45 90 12 19 28 55 34 80 7
25 18 56 25 70 44 87 56 183 30 224 -10 14 -21 26 -26 26 -6 0 -26 7 -47 17
-20 9 -40 17 -44 17 -3 1 -10 4 -14 9 -4 4 -15 7 -25 7 -9 0 -19 3 -21 8 -4
10 -69 46 -148 83 -111 53 -131 63 -147 82 -15 16 -15 17 5 17 11 0 23 4 26 9
6 10 24 9 41 0 6 -3 32 -7 60 -8 174 -7 439 -109 583 -223 114 -91 201 -230
221 -355 10 -59 8 -264 -3 -318 -4 -20 -1 -17 8 10 9 26 15 32 15 19 1 -24
-18 -84 -30 -98 -4 -5 -6 2 -3 15 2 13 -3 6 -11 -15 -8 -22 -14 -43 -13 -47 2
-4 50 63 108 149 242 359 494 607 772 757 93 50 243 115 266 115 7 0 11 4 8 9
-8 12 -274 16 -1216 15 l-825 0 220 17 c313 25 342 30 451 83 207 100 316 218
350 377 22 102 15 162 -35 319 -56 176 -60 183 -60 145 0 -16 4 -48 9 -70 19
-76 13 -216 -11 -281 -28 -75 -114 -199 -181 -258 -56 -51 -202 -150 -244
-166 -15 -6 -24 -13 -21 -17 3 -3 22 4 42 16 20 11 33 16 30 11 -8 -14 -183
-96 -255 -120 -65 -22 -170 -44 -177 -37 -2 3 22 11 54 18 32 8 50 15 40 17
-9 2 -40 -4 -68 -13 -52 -18 -65 -16 -56 8 3 8 27 18 54 22 26 4 59 15 73 24
14 10 37 21 53 25 15 3 27 11 27 16 0 5 17 18 38 29 43 23 104 77 120 108 18
32 -2 154 -33 207 -14 24 -25 48 -25 54 0 11 -64 130 -108 202 -12 19 -30 51
-40 70 -9 19 -27 49 -39 67 -13 17 -23 36 -23 42 0 6 -4 11 -9 11 -5 0 -13 10
-17 23 -3 12 -19 40 -35 61 -16 22 -29 45 -29 51 0 7 -9 20 -20 30 -11 10 -20
26 -20 35 0 10 -11 33 -24 53 -13 19 -30 52 -37 73 -8 20 -45 73 -82 116 -37
43 -71 87 -75 96 -12 31 -96 99 -134 110 -32 9 -41 7 -63 -10 -14 -11 -25 -26
-25 -33 0 -7 -6 -20 -12 -27 -7 -7 -22 -31 -33 -53 -11 -22 -23 -42 -26 -45
-3 -3 -12 -30 -18 -60 -22 -98 -83 -280 -117 -350 -20 -40 -38 -110 -39 -150
0 -8 -11 -20 -25 -27 -14 -7 -22 -13 -18 -13 13 0 -62 -123 -94 -154 -15 -14
-22 -16 -28 -6 -6 10 -9 9 -14 -1 -3 -8 -4 6 -1 30 5 40 42 149 120 361 13 36
59 157 100 270 103 276 184 433 256 495 14 12 34 34 45 49 29 40 36 20 12 -33
-24 -52 -20 -65 46 -145 25 -30 72 -97 105 -148 33 -51 83 -124 109 -163 27
-38 93 -144 147 -235 54 -91 115 -192 135 -225 21 -33 86 -145 145 -250 60
-104 117 -203 128 -218 11 -16 29 -49 41 -74 l22 -44 33 53 c19 29 69 89 112
133 l79 80 -97 95 c-54 52 -82 77 -63 55 l35 -40 -37 34 c-21 19 -38 40 -38
45 0 6 -12 21 -27 33 -14 13 -23 23 -19 23 3 0 -8 12 -24 28 -17 15 -32 34
-33 43 -4 22 -43 70 -51 61 -4 -3 -4 1 0 11 4 11 0 19 -10 23 -9 3 -14 9 -11
14 2 4 -3 16 -11 26 -9 10 -13 13 -9 7 11 -22 -4 -14 -16 8 -9 17 -8 20 3 14
8 -4 8 -2 -2 7 -8 7 -16 20 -18 28 -2 8 -11 21 -20 28 -9 7 -17 19 -17 26 0 8
-14 36 -32 62 -17 27 -39 66 -49 86 -9 20 -22 34 -27 31 -6 -3 -7 -1 -3 5 3 6
-7 37 -23 69 -80 160 -81 209 -2 281 20 18 32 32 26 30 -24 -5 -225 52 -290
83 -18 9 -19 9 -3 -4 12 -10 18 -27 17 -53 -2 -45 35 -135 52 -132 7 2 17 -17
24 -42 7 -27 17 -44 25 -42 8 2 10 -3 7 -13 -14 -34 331 -646 492 -874 36 -51
73 -106 81 -121 l15 -29 21 23 c11 13 31 26 45 30 20 6 21 5 6 -4 -31 -20 -67
-57 -67 -70 0 -29 -245 342 -348 525 -27 50 -80 142 -117 205 -36 63 -129 240
-205 393 -134 268 -161 314 -239 402 -20 22 -47 56 -61 74 -51 69 -113 141
-121 141 -5 0 -9 -9 -9 -20 0 -11 -4 -20 -8 -20 -5 0 -9 -16 -10 -36 -2 -58
-12 -53 -12 6 0 58 -11 80 -96 195 -128 171 -421 494 -578 636 -44 40 -46 41
-30 13 11 -17 53 -73 95 -125 112 -139 276 -360 356 -479 89 -134 193 -305
193 -319 0 -20 35 -78 57 -94 12 -9 56 -22 98 -28 118 -18 83 -29 -112 -36
-116 -4 -135 0 -114 23 17 18 20 59 6 78 -8 10 -12 23 -8 29 3 5 1 12 -4 16
-5 3 -22 38 -37 76 -15 39 -33 75 -39 80 -7 6 -16 18 -22 26 -5 9 -30 43 -55
76 -25 33 -51 69 -57 79 -7 11 -24 36 -38 57 -13 20 -36 63 -51 95 -25 52 -64
108 -118 167 -51 56 -97 116 -145 190 -65 103 -67 105 -102 112 -16 3 -29 9
-29 13 0 14 -61 17 -74 5 -7 -7 -31 -16 -54 -20 -25 -4 -43 -13 -47 -23 -2 -9
-18 -26 -35 -37 -16 -11 -30 -27 -30 -35 0 -8 -23 -55 -50 -104 -28 -49 -50
-93 -50 -98 0 -5 -7 -16 -15 -24 -8 -9 -15 -25 -15 -37 0 -12 -2 -57 -5 -99
-3 -63 -1 -81 14 -100 10 -13 20 -33 23 -45 18 -71 -114 97 -171 217 -20 42
-29 77 -29 113 l-1 52 25 -30 c13 -16 27 -38 30 -47 3 -10 9 -18 13 -18 4 0
16 -18 26 -40 28 -61 48 -50 57 30 32 296 164 470 356 470 53 0 61 2 50 14
-10 11 -40 14 -128 12 -103 -1 -119 -4 -155 -26 -22 -13 -45 -31 -52 -40 -8
-9 -12 -10 -13 -3 0 6 15 22 33 34 17 13 38 29 45 36 7 7 30 13 50 14 34 0 35
1 12 10 -13 5 -33 8 -45 7 -24 -4 -59 29 -103 97 -18 28 -23 37 -10 21 50 -64
89 -100 110 -103 13 -2 55 -6 93 -9 l70 -7 -20 23 c-11 12 -19 25 -17 29 2 3
-24 34 -58 68 -34 34 -59 66 -56 72 4 6 -14 31 -39 56 -26 24 -44 49 -40 55 4
6 1 9 -7 8 -7 -2 -12 5 -12 14 1 10 -2 15 -7 12 -12 -7 -70 88 -63 106 3 8 2
11 -2 7 -10 -10 -36 31 -28 45 5 7 3 8 -6 3 -10 -6 -12 -4 -7 9 4 9 3 15 -2
12 -11 -7 -23 22 -14 36 3 6 2 8 -4 5 -10 -6 -69 116 -90 187 -11 37 -12 33
-7 -49z m120 -402 c7 -18 11 -33 8 -33 -7 0 -34 67 -33 82 0 8 3 8 6 -2 3 -8
12 -30 19 -47z m-181 7 c3 -5 1 -10 -4 -10 -6 0 -11 5 -11 10 0 6 2 10 4 10 3
0 8 -4 11 -10z m-24 -57 c-12 -20 -14 -14 -5 12 4 9 9 14 11 11 3 -2 0 -13 -6
-23z m390 -25 c17 -24 18 -29 6 -19 -18 14 -42 51 -33 51 3 0 15 -15 27 -32z
m-354 6 c-3 -3 -12 -4 -19 -1 -8 3 -5 6 6 6 11 1 17 -2 13 -5z m12 -46 c-1
-31 -1 -31 -8 -8 -5 14 -6 28 -4 33 9 15 13 6 12 -25z m221 -19 c0 -18 -10 -8
-25 24 l-16 32 21 -24 c11 -13 20 -27 20 -32z m-223 -86 c-3 -10 -5 -2 -5 17
0 19 2 27 5 18 2 -10 2 -26 0 -35z m-50 -85 c-3 -8 -6 -5 -6 6 -1 11 2 17 5
13 3 -3 4 -12 1 -19z m30 -37 c0 -11 -5 -17 -9 -15 -11 7 -10 34 1 34 6 0 9
-9 8 -19z m-77 -61 c0 -5 -4 -10 -10 -10 -5 0 -10 5 -10 10 0 6 5 10 10 10 6
0 10 -4 10 -10z m84 -15 c-4 -8 -8 -15 -10 -15 -2 0 -4 7 -4 15 0 8 4 15 10
15 5 0 7 -7 4 -15z m-130 -260 l6 -40 -15 45 c-17 53 -18 57 -6 45 5 -6 12
-28 15 -50z m606 -662 c0 -8 -117 78 -140 103 -14 15 12 -1 58 -36 45 -35 82
-65 82 -67z m-1838 0 c-3 -16 -7 -22 -10 -15 -4 13 4 42 11 42 2 0 2 -12 -1
-27z m1869 -20 c13 -16 12 -17 -3 -4 -10 7 -18 15 -18 17 0 8 8 3 21 -13z
m214 -108 c44 -20 91 -41 104 -46 13 -5 22 -12 19 -14 -3 -3 -27 4 -54 16 -27
12 -69 30 -94 41 -65 28 -111 52 -117 61 -5 9 23 -3 142 -58z m290 -100 c126
-32 235 -45 400 -46 81 -1 121 -4 105 -9 -37 -12 -217 -12 -307 0 -92 13 -264
49 -278 60 -5 4 -23 12 -40 19 -42 16 -5 9 120 -24z m985 -220 c-7 -9 -15 -13
-19 -10 -3 3 1 10 9 15 21 14 24 12 10 -5z m-1805 -36 c133 -28 197 -52 300
-111 167 -95 279 -202 369 -350 98 -162 145 -321 137 -463 -2 -19 -2 -19 -15
-2 -7 9 -18 17 -24 17 -12 0 -21 29 -53 175 -15 71 -32 116 -55 153 -19 29
-34 57 -34 62 0 5 -8 15 -18 22 -10 7 -29 29 -43 48 -13 19 -26 37 -30 40 -3
3 -16 23 -29 45 -13 22 -30 44 -37 48 -7 4 -13 14 -13 22 0 7 -15 18 -33 24
-18 6 -47 25 -66 41 -18 17 -36 28 -40 26 -4 -3 -21 3 -37 13 -16 10 -41 21
-56 24 -15 4 -33 13 -40 20 -12 12 -109 41 -172 52 -56 9 -211 7 -261 -3 -76
-16 -194 -75 -221 -112 -29 -37 -52 -60 -63 -60 -6 0 -11 -6 -11 -14 0 -7 -16
-26 -36 -41 -90 -69 -126 -123 -109 -162 5 -10 10 -28 12 -40 2 -13 15 -45 29
-73 14 -28 23 -57 21 -65 -8 -19 8 -36 113 -111 120 -87 185 -130 335 -219
451 -270 729 -444 721 -452 -1 -2 -68 37 -147 86 -79 49 -202 124 -274 167
-71 42 -162 98 -202 123 -39 25 -104 65 -145 89 -116 68 -230 140 -237 149 -3
5 -22 20 -41 33 -54 37 -140 111 -140 121 0 5 -20 34 -45 65 -76 93 -90 127
-90 224 0 68 5 93 22 126 70 131 208 216 428 265 108 24 216 23 330 -2z m1775
-56 c-2 -41 -6 -55 -8 -35 -2 17 -8 32 -13 32 -6 0 -6 7 0 18 5 9 12 25 15 35
10 30 11 18 6 -50z m-3262 -9 c-4 -3 -12 5 -18 18 -12 22 -12 22 6 6 10 -10
15 -20 12 -24z m2307 -14 c3 -5 1 -10 -4 -10 -6 0 -11 5 -11 10 0 6 2 10 4 10
3 0 8 -4 11 -10z m-2206 -242 c6 -18 7 -28 2 -23 -10 12 -25 55 -18 55 3 0 10
-15 16 -32z m63 -13 c-2 -14 -6 -25 -8 -25 -2 0 -4 11 -4 25 0 14 4 25 9 25 4
0 6 -11 3 -25z m-904 -60 c-3 -3 -9 2 -12 12 -6 14 -5 15 5 6 7 -7 10 -15 7
-18z m912 0 c0 -14 -4 -25 -9 -25 -5 0 -8 11 -7 25 1 33 16 33 16 0z m-153
-42 c-3 -10 -5 -2 -5 17 0 19 2 27 5 18 2 -10 2 -26 0 -35z m629 -59 c11 -35
19 -64 18 -64 -8 0 -28 48 -40 93 -18 68 -4 49 22 -29z m-473 49 c-3 -10 -10
-24 -16 -30 -7 -9 -5 -13 6 -13 8 0 18 6 20 13 3 7 6 4 6 -6 1 -18 -21 -47
-35 -47 -4 0 -4 3 -1 6 3 4 2 14 -3 24 -6 11 -5 27 3 44 13 29 30 36 20 9z
m3347 -48 c0 -5 -5 -3 -10 5 -5 8 -10 20 -10 25 0 6 5 3 10 -5 5 -8 10 -19 10
-25z m-3300 -10 c0 -5 -5 -3 -10 5 -5 8 -10 20 -10 25 0 6 5 3 10 -5 5 -8 10
-19 10 -25z m-193 -37 c-2 -13 -4 -3 -4 22 0 25 2 35 4 23 2 -13 2 -33 0 -45z
m2247 36 c3 -8 2 -12 -4 -9 -6 3 -10 10 -10 16 0 14 7 11 14 -7z m24 -59 c-3
-3 -9 2 -12 12 -6 14 -5 15 5 6 7 -7 10 -15 7 -18z m-2131 -41 c9 -15 11 -24
4 -29 -6 -3 -11 -2 -11 4 0 6 -10 19 -22 31 -12 11 -16 20 -10 20 7 0 13 8 13
18 1 14 2 14 6 -3 3 -10 12 -29 20 -41z m13 26 c0 -5 -5 -10 -11 -10 -5 0 -7
5 -4 10 3 6 8 10 11 10 2 0 4 -4 4 -10z m-143 -253 c-1 -45 -3 -5 -3 88 0 94
2 130 3 82 2 -48 2 -125 0 -170z m602 244 c7 -5 9 -11 5 -14 -5 -3 -15 1 -22
9 -14 16 -5 18 17 5z m-1507 -8 c-6 -2 -9 -10 -6 -15 4 -7 2 -8 -5 -4 -13 9
-5 26 12 25 9 0 8 -2 -1 -6z m1512 -39 c3 -8 2 -12 -4 -9 -6 3 -10 10 -10 16
0 14 7 11 14 -7z m21 -59 c0 -29 -16 -33 -36 -8 -12 15 -12 16 4 10 11 -4 17
-2 17 8 0 8 3 15 8 15 4 0 7 -11 7 -25z m-444 -68 c-11 -11 -41 -3 -41 11 0 5
12 7 26 4 17 -3 22 -8 15 -15z m459 -47 c6 -11 9 -20 7 -20 -2 0 -12 9 -22 20
-10 11 -13 20 -7 20 6 0 16 -9 22 -20z m1644 -119 c2 -22 -1 -45 -5 -53 -6 -8
-9 0 -9 23 0 20 -3 52 -6 70 -4 27 -3 30 6 17 6 -9 12 -35 14 -57z m-2114 -17
c-10 -34 -16 -42 -24 -33 -8 8 -7 13 3 16 10 4 10 7 2 13 -9 5 -7 15 6 38 23
40 29 24 13 -34z m-4 -71 c-8 -15 -15 -22 -16 -15 0 14 22 53 28 47 2 -2 -3
-16 -12 -32z m-41 17 c-3 -5 -1 -10 5 -10 6 0 8 -4 5 -10 -10 -17 -25 -11 -25
10 0 11 5 20 11 20 5 0 7 -4 4 -10z m2152 -32 c-3 -7 -5 -2 -5 12 0 14 2 19 5
13 2 -7 2 -19 0 -25z m1629 -10 l29 -33 -32 29 c-31 28 -38 36 -30 36 2 0 16
-15 33 -32z m-5175 -135 c13 -16 12 -17 -3 -4 -10 7 -18 15 -18 17 0 8 8 3 21
-13z m4194 -174 c-77 -51 -176 -115 -219 -144 -90 -59 -70 -59 -246 -2 -58 19
-132 41 -165 48 l-60 14 165 16 c91 9 212 26 269 38 106 23 295 82 341 107 14
7 32 13 40 14 8 0 -48 -41 -125 -91z m-3275 -29 c86 -43 297 -290 248 -290 -8
0 -19 5 -26 12 -7 7 -12 8 -12 4 0 -11 -72 34 -87 54 -22 30 -120 126 -151
149 -18 12 -32 29 -32 37 0 8 -7 26 -16 39 -20 30 -9 53 14 32 10 -8 37 -25
62 -37z m3388 18 c-7 -13 -18 -30 -24 -38 -7 -8 -15 -25 -19 -38 -4 -13 -29
-53 -56 -89 -28 -36 -48 -67 -46 -70 3 -2 -6 -16 -19 -30 -13 -14 -24 -30 -24
-34 0 -4 -11 -25 -25 -45 -13 -20 -27 -52 -31 -73 -3 -20 -13 -47 -21 -59 -10
-16 -12 -33 -7 -50 4 -15 8 -33 8 -40 1 -8 21 -25 46 -38 32 -17 39 -24 24
-24 -25 0 -175 72 -221 106 -17 13 -35 24 -40 25 -8 0 -75 48 -269 192 -66 49
-140 104 -166 124 -47 34 -64 73 -33 73 8 0 15 -4 15 -10 0 -14 46 -13 69 1
15 10 31 4 92 -32 99 -58 138 -85 177 -120 40 -37 83 -104 77 -121 -3 -7 18
-37 45 -66 59 -64 64 -62 98 43 38 113 123 246 222 346 66 67 95 89 114 89 24
0 25 -2 14 -22z m-481 -24 c-3 -3 -12 -4 -19 -1 -8 3 -5 6 6 6 11 1 17 -2 13
-5z m1218 -74 c-3 -5 -14 -10 -23 -10 -15 0 -15 2 -2 10 20 13 33 13 25 0z
m-3317 -69 c59 -32 154 -87 212 -123 58 -36 209 -129 335 -207 788 -488 906
-604 931 -914 4 -60 2 -98 -9 -141 -9 -33 -13 -64 -10 -70 3 -6 3 -8 -2 -4 -4
4 -18 -14 -31 -40 -32 -64 -118 -164 -178 -206 -27 -19 -82 -49 -123 -67 -75
-33 -97 -52 -27 -24 108 43 197 106 259 182 25 30 45 52 45 47 0 -18 -95 -120
-145 -156 -70 -50 -185 -102 -261 -119 -104 -22 -474 -14 -435 10 7 5 -13 13
-46 21 -204 45 -413 163 -576 325 -186 183 -317 442 -417 820 -18 66 -36 132
-40 148 -5 15 -6 27 -3 27 12 0 43 -33 43 -45 0 -7 9 -23 19 -37 25 -31 67
-152 81 -232 6 -33 23 -85 37 -115 13 -29 31 -70 38 -90 20 -56 95 -215 104
-221 12 -8 41 -67 41 -84 0 -8 3 -16 8 -18 4 -1 19 -22 34 -44 15 -23 48 -59
75 -80 26 -21 57 -48 68 -59 41 -42 133 -105 152 -105 12 0 23 -6 26 -12 5
-12 61 -43 157 -86 120 -54 199 -73 370 -88 89 -8 123 -6 210 12 147 30 164
36 240 93 97 71 126 104 146 163 8 26 19 50 24 53 5 3 7 78 5 166 -4 121 -9
166 -20 182 -8 12 -15 33 -15 48 0 15 -7 29 -15 33 -8 3 -15 12 -15 19 0 26
-32 78 -54 88 -12 6 -27 22 -34 37 -16 38 -101 132 -118 132 -8 0 -22 9 -31
20 -10 11 -21 20 -26 20 -4 0 -25 16 -45 36 -34 34 -86 64 -121 70 -8 2 -17 7
-20 12 -3 5 -51 31 -105 58 -180 89 -241 125 -265 157 -7 10 -19 16 -27 13 -8
-3 -23 7 -36 24 -12 17 -27 30 -33 30 -7 0 -31 15 -55 33 -64 48 -113 76 -132
77 -10 0 -18 4 -18 8 0 5 -21 19 -47 32 -27 12 -55 26 -63 31 -8 5 -43 22 -77
39 -67 32 -183 52 -183 31 0 -6 -6 -11 -13 -11 -8 0 -52 -26 -98 -58 -100 -69
-114 -75 -129 -56 -7 8 -23 14 -35 14 -34 0 -38 26 -7 54 142 129 152 137 237
184 78 43 106 38 243 -37z m-534 -107 c3 -8 2 -12 -4 -9 -6 3 -10 10 -10 16 0
14 7 11 14 -7z m4361 -212 c-7 -51 -25 -138 -39 -195 -13 -56 -32 -138 -42
-182 -20 -94 -84 -308 -91 -302 -2 3 10 58 28 123 38 142 41 245 10 344 -11
35 -18 66 -16 68 6 6 26 -46 32 -86 3 -18 10 -35 14 -38 5 -3 9 -24 10 -47 1
-36 4 -31 21 43 10 47 23 94 28 105 5 11 11 38 14 60 2 22 7 54 11 70 4 17 11
54 17 83 16 86 18 54 3 -46z m-1420 -192 c-3 -5 -11 -10 -16 -10 -6 0 -7 5 -4
10 3 6 11 10 16 10 6 0 7 -4 4 -10z m1342 -12 c-3 -8 -6 -5 -6 6 -1 11 2 17 5
13 3 -3 4 -12 1 -19z m-356 -88 c5 0 -10 -28 -34 -63 -40 -59 -92 -140 -150
-233 -21 -35 -109 -191 -205 -364 -92 -166 -221 -445 -274 -590 -11 -30 -24
-59 -29 -65 -17 -17 22 98 67 197 24 54 44 101 44 104 0 16 195 399 280 549
38 68 142 238 170 280 39 58 110 192 111 213 1 11 3 9 6 -5 2 -13 9 -23 14
-23z m-1586 -130 c3 -5 1 -10 -4 -10 -6 0 -11 5 -11 10 0 6 2 10 4 10 3 0 8
-4 11 -10z m-2 -27 c-7 -2 -13 -13 -13 -23 0 -10 -6 -20 -12 -22 -7 -3 -3 -7
8 -10 18 -5 21 -2 16 16 -5 19 -4 19 9 6 20 -19 31 -60 16 -60 -6 0 -8 -2 -5
-5 12 -12 37 7 31 23 -5 14 -3 14 16 -2 16 -14 18 -22 9 -27 -7 -4 -16 -5 -22
-2 -5 4 -7 -1 -3 -10 8 -20 -18 -24 -27 -4 -3 6 -3 0 0 -14 4 -20 0 -30 -20
-43 -15 -9 -26 -12 -26 -6 0 6 -5 8 -11 4 -8 -4 -7 -9 2 -15 12 -7 12 -12 1
-31 -7 -13 1 -6 18 15 18 20 36 37 42 37 17 0 -56 -79 -87 -94 -73 -34 -74
-34 -73 40 0 64 17 121 32 107 4 -4 3 5 -3 19 -8 22 -7 30 7 40 10 7 26 24 35
38 11 16 17 19 17 9 0 -8 -5 -20 -12 -27 -8 -8 -8 -12 -1 -12 6 0 16 14 23 30
7 17 20 30 29 29 10 0 11 -2 4 -6z m-133 -123 c-6 -11 -13 -20 -16 -20 -2 0 0
9 6 19 5 11 7 28 4 38 -5 17 -5 17 6 1 8 -13 8 -23 0 -38z m-2086 -160 c9 -30
12 -50 7 -45 -5 6 -14 26 -19 45 -5 19 -13 44 -17 55 -6 14 -5 17 3 10 5 -5
17 -35 26 -65z m2543 3 c-3 -10 -5 -4 -5 12 0 17 2 24 5 18 2 -7 2 -21 0 -30z
m-407 -29 c0 -8 -5 -12 -10 -9 -6 4 -8 11 -5 16 9 14 15 11 15 -7z m-110 -234
c0 -5 -2 -10 -4 -10 -3 0 -8 5 -11 10 -3 6 -1 10 4 10 6 0 11 -4 11 -10z m70
-20 c0 -5 -4 -10 -10 -10 -5 0 -10 5 -10 10 0 6 5 10 10 10 6 0 10 -4 10 -10z
m-60 -10 c0 -5 -5 -10 -11 -10 -5 0 -7 5 -4 10 3 6 8 10 11 10 2 0 4 -4 4 -10z
m56 -37 c-3 -3 -12 -1 -19 5 -8 7 -18 8 -22 4 -5 -4 -5 -1 -1 6 5 9 12 9 27 1
12 -6 18 -13 15 -16z m-36 -7 c0 -3 -4 -8 -10 -11 -5 -3 -10 -1 -10 4 0 6 5
11 10 11 6 0 10 -2 10 -4z m537 -18 c-3 -8 -6 -5 -6 6 -1 11 2 17 5 13 3 -3 4
-12 1 -19z m-593 4 c2 -4 1 -14 -3 -21 -6 -9 -10 -7 -14 8 -5 20 7 29 17 13z
m93 -17 c-3 -28 -17 -46 -17 -22 0 18 10 47 16 47 3 0 3 -11 1 -25z m-1957
-15 c0 -5 -2 -10 -4 -10 -3 0 -8 5 -11 10 -3 6 -1 10 4 10 6 0 11 -4 11 -10z
m1919 -17 c-9 -11 -10 -14 -1 -9 18 11 27 -21 13 -47 -11 -21 -11 -21 -8 5 3
16 0 25 -6 21 -18 -11 -26 21 -9 38 21 21 29 15 11 -8z m570 -48 c0 -5 -4 -3
-9 5 -5 8 -9 22 -9 30 0 16 17 -16 18 -35z m-2429 -45 c0 -5 -2 -10 -4 -10 -3
0 -8 5 -11 10 -3 6 -1 10 4 10 6 0 11 -4 11 -10z m28 -10 c-14 -22 -24 -19
-15 5 4 8 11 15 17 15 6 0 6 -7 -2 -20z m2297 -10 c3 -6 -1 -7 -9 -4 -18 7
-21 14 -7 14 6 0 13 -4 16 -10z m149 -30 c10 -13 9 -13 -6 -1 -10 7 -18 21
-17 30 0 13 1 14 6 1 3 -8 11 -22 17 -30z m-2434 -55 c0 -5 -5 -3 -10 5 -5 8
-10 20 -10 25 0 6 5 3 10 -5 5 -8 10 -19 10 -25z m2570 -130 c35 -38 58 -65
51 -58 -7 6 -21 9 -30 6 -11 -3 -12 -2 -4 4 9 6 2 17 -25 38 -20 17 -40 31
-44 31 -5 1 -14 2 -20 3 -10 1 -9 4 1 10 22 14 -17 73 -44 65 -16 -4 -17 -3
-5 5 12 8 12 13 2 23 -6 6 -12 19 -12 27 0 8 15 -8 33 -35 17 -27 61 -80 97
-119z m-2515 145 c3 -5 2 -10 -4 -10 -5 0 -13 5 -16 10 -3 6 -2 10 4 10 5 0
13 -4 16 -10z m55 -50 c0 -5 -4 -10 -9 -10 -6 0 -13 5 -16 10 -3 6 1 10 9 10
9 0 16 -4 16 -10z m104 -66 c23 -9 20 -23 -4 -21 -11 1 -20 7 -20 14 0 15 2
15 24 7z m2243 -20 c-3 -3 -12 -4 -19 -1 -8 3 -5 6 6 6 11 1 17 -2 13 -5z m80
-30 c-3 -3 -12 -4 -19 -1 -8 3 -5 6 6 6 11 1 17 -2 13 -5z m28 -14 c3 -5 1
-10 -4 -10 -6 0 -11 5 -11 10 0 6 2 10 4 10 3 0 8 -4 11 -10z m-3170 -114 c0
-13 -3 -22 -7 -19 -5 2 -8 13 -8 24 0 10 3 19 8 19 4 0 7 -11 7 -24z m-15 -46
c0 -31 -15 -30 -16 1 -1 15 3 26 7 23 5 -3 9 -14 9 -24z m2275 0 c-16 -10 -31
-17 -34 -14 -7 6 32 33 49 34 8 0 2 -9 -15 -20z m-950 -30 c3 -5 2 -10 -4 -10
-5 0 -13 5 -16 10 -3 6 -2 10 4 10 5 0 13 -4 16 -10z m-311 -59 c29 -32 5 -24
-28 9 -16 17 -33 30 -38 30 -4 0 -8 5 -8 11 0 12 46 -19 74 -50z m1166 -5 c0
-2 -8 -10 -17 -17 -16 -13 -17 -12 -4 4 13 16 21 21 21 13z m1201 -14 c-5 -9
-19 -26 -32 -37 -19 -16 -18 -13 5 18 30 39 43 49 27 19z m-2251 -100 c0 -5
-22 13 -62 50 -15 14 -28 30 -28 34 0 5 20 -12 45 -36 25 -24 45 -46 45 -48z
m958 28 c-7 -10 -14 -17 -17 -15 -4 4 18 35 25 35 2 0 -1 -9 -8 -20z m1202
-35 c-19 -19 -38 -35 -43 -35 -5 0 8 18 29 40 21 21 40 37 43 34 3 -2 -11 -20
-29 -39z m-2112 -45 c7 -11 11 -20 9 -20 -2 0 -12 9 -22 20 -10 11 -14 20 -9
20 5 0 15 -9 22 -20z m852 16 c0 -3 -4 -8 -10 -11 -5 -3 -10 -1 -10 4 0 6 5
11 10 11 6 0 10 -2 10 -4z m1075 -158 c-77 -78 -141 -144 -142 -147 -2 -2 -5
-2 -8 1 -6 6 266 285 280 287 5 0 -53 -63 -130 -141z m-1864 80 l22 -33 -31
29 c-34 32 -37 36 -23 36 5 0 20 -15 32 -32z m1773 -93 c-14 -33 -37 -74 -50
-92 -13 -17 -22 -38 -19 -45 3 -8 -22 -44 -57 -84 -35 -38 -102 -114 -149
-169 -93 -107 -328 -344 -369 -372 -14 -9 49 60 140 153 91 93 195 205 230
249 35 44 67 82 70 85 46 40 180 242 205 309 11 29 21 47 23 39 1 -8 -9 -41
-24 -73z m-1714 15 c30 -43 18 -37 -16 7 -15 20 -23 33 -16 29 6 -3 21 -20 32
-36z m614 15 c-7 -16 -24 -21 -24 -6 0 8 7 13 27 20 1 1 0 -6 -3 -14z m-73
-108 c-10 -9 -11 -8 -5 6 3 10 9 15 12 12 3 -3 0 -11 -7 -18z m-433 -23 c4
-18 3 -18 -12 1 -11 14 -15 16 -16 6 0 -8 -3 -12 -6 -8 -9 9 6 29 19 24 7 -2
14 -12 15 -23z m-38 -155 c15 -28 5 -23 -15 7 -9 15 -12 23 -6 20 6 -4 16 -16
21 -27z m330 -103 c0 -3 -4 -8 -10 -11 -5 -3 -10 -1 -10 4 0 6 5 11 10 11 6 0
10 -2 10 -4z m-194 -98 c13 -26 22 -48 19 -48 -2 0 -14 19 -26 43 -12 23 -29
51 -38 62 -15 19 -15 19 2 5 10 -7 30 -35 43 -62z m44 37 c0 -8 -4 -15 -10
-15 -5 0 -7 7 -4 15 4 8 8 15 10 15 2 0 4 -7 4 -15z m3 -107 c-4 -19 -3 -21 7
-8 10 13 11 12 6 -3 -3 -9 6 -43 19 -73 28 -63 32 -78 12 -49 -30 45 -66 144
-54 149 7 2 13 5 14 5 0 1 -1 -9 -4 -21z"/>
<path d="M6639 5636 c-65 -22 -125 -47 -134 -55 -14 -13 -18 -13 -25 -1 -7 12
-12 11 -29 -4 -12 -11 -21 -16 -21 -11 0 4 -7 2 -15 -5 -12 -10 -15 -9 -16 6
0 18 -1 18 -8 0 -5 -14 -10 -16 -15 -8 -4 7 -13 12 -19 12 -7 0 2 -9 18 -20
18 -12 24 -20 14 -20 -8 0 -24 8 -35 18 -11 11 -29 17 -39 15 -11 -1 -44 -4
-72 -5 -29 -1 -53 -3 -53 -4 0 -2 17 -8 38 -14 132 -39 182 -45 182 -23 0 7
17 15 38 18 20 4 53 12 72 18 19 6 45 11 57 12 13 0 28 7 35 14 11 11 9 13 -8
9 -12 -3 -27 -2 -34 2 -8 5 7 12 38 19 54 11 138 47 148 62 3 5 4 8 2 8 -2 -1
-55 -20 -119 -43z m-89 -50 c0 -2 -7 -7 -16 -10 -8 -3 -12 -2 -9 4 6 10 25 14
25 6z m-216 -49 c16 -12 14 -13 -18 -9 -20 2 -36 8 -36 13 0 13 34 11 54 -4z"/>
<path d="M6433 5483 c9 -2 23 -2 30 0 6 3 -1 5 -18 5 -16 0 -22 -2 -12 -5z"/>
<path d="M5298 3643 c7 -3 16 -2 19 1 4 3 -2 6 -13 5 -11 0 -14 -3 -6 -6z"/>
<path d="M5243 3633 c9 -2 23 -2 30 0 6 3 -1 5 -18 5 -16 0 -22 -2 -12 -5z"/>
<path d="M4893 3623 c9 -2 23 -2 30 0 6 3 -1 5 -18 5 -16 0 -22 -2 -12 -5z"/>
<path d="M5183 3623 c9 -2 23 -2 30 0 6 3 -1 5 -18 5 -16 0 -22 -2 -12 -5z"/>
<path d="M4988 3613 c12 -2 30 -2 40 0 9 3 -1 5 -23 4 -22 0 -30 -2 -17 -4z"/>
<path d="M6016 4614 c-17 -12 -17 -14 -4 -14 9 0 20 5 23 11 11 17 2 18 -19 3z"/>
<path d="M5072 9123 c-6 -2 -10 -8 -7 -12 2 -5 -3 -17 -11 -27 -15 -19 -15
-19 -10 1 7 25 6 24 -78 -117 -35 -59 -80 -128 -100 -154 -25 -32 -33 -51 -26
-58 5 -5 10 -15 10 -20 0 -6 -4 -5 -9 3 -12 19 -34 2 -51 -39 -7 -16 -16 -28
-20 -25 -8 5 -28 -16 -55 -60 l-18 -30 22 19 c30 27 36 14 6 -14 -14 -13 -25
-30 -25 -37 0 -8 -4 -11 -10 -8 -5 3 -10 2 -10 -4 0 -5 -8 -12 -17 -15 -10 -3
12 -3 49 -1 38 2 82 12 101 22 40 21 127 117 127 139 0 9 8 28 18 42 10 15 27
47 36 72 10 25 26 59 36 75 10 17 25 59 33 95 16 70 30 160 25 159 -2 0 -9 -3
-16 -6z"/>
<path d="M5300 8930 c6 -11 13 -20 16 -20 2 0 0 9 -6 20 -6 11 -13 20 -16 20
-2 0 0 -9 6 -20z"/>
<path d="M5528 8503 c7 -3 16 -2 19 1 4 3 -2 6 -13 5 -11 0 -14 -3 -6 -6z"/>
<path d="M4592 8303 c-35 -16 -84 -57 -149 -124 -94 -96 -116 -125 -216 -283
-26 -42 -53 -81 -60 -88 -7 -7 -21 -30 -32 -51 -11 -21 -30 -48 -42 -59 -13
-12 -23 -26 -23 -31 0 -5 -21 -34 -46 -64 -25 -29 -71 -101 -101 -161 -30 -59
-62 -116 -69 -127 -8 -11 -14 -32 -14 -47 0 -15 -4 -29 -10 -33 -5 -3 -7 -12
-4 -20 4 -11 -7 -15 -48 -18 -51 -3 -50 -3 14 -5 93 -3 294 32 435 74 207 62
425 178 582 309 87 72 200 194 169 183 -13 -5 -19 3 -28 42 -6 27 -9 54 -5 60
7 11 -16 100 -40 156 -7 17 -16 56 -20 87 -4 32 -12 55 -18 54 -6 -1 -13 7
-15 18 -5 25 -54 71 -118 110 -71 44 -84 46 -142 18z"/>
<path d="M5023 8098 c-20 -26 -26 -41 -15 -34 12 7 36 46 29 46 -3 0 -9 -6
-14 -12z"/>
<path d="M6130 8023 c0 -11 48 -58 54 -52 2 2 -9 17 -25 33 -16 16 -29 25 -29
19z"/>
<path d="M6280 7882 c22 -29 120 -111 120 -100 0 2 -33 33 -72 68 -49 44 -65
54 -48 32z"/>
<path d="M5141 7805 c-8 -32 3 -119 17 -147 21 -42 26 -72 10 -62 -7 4 -8 3
-4 -4 4 -7 13 -12 21 -12 7 0 17 -9 20 -20 3 -11 10 -20 15 -20 4 0 11 -11 14
-25 4 -14 11 -25 16 -25 6 0 10 -6 10 -14 0 -8 11 -23 25 -34 13 -11 21 -23
17 -27 -4 -4 3 -4 15 -1 18 6 22 4 17 -8 -4 -10 6 -20 30 -31 20 -10 34 -21
31 -25 -2 -4 8 -13 22 -19 l27 -12 -27 27 c-28 28 -38 56 -13 35 11 -9 15 -9
19 1 2 7 8 9 13 5 5 -4 3 -12 -4 -16 -10 -6 -6 -16 15 -39 15 -18 33 -32 40
-32 6 0 16 -8 22 -17 5 -10 12 -15 16 -11 4 3 -1 18 -11 33 -10 16 -20 22 -24
15 -4 -6 -11 0 -18 15 -12 26 -4 33 16 13 9 -9 12 -9 12 -1 0 7 -9 15 -20 18
-11 3 -20 10 -20 15 0 5 8 6 17 3 12 -5 11 -1 -5 15 -23 23 -38 29 -27 12 7
-12 -21 -2 -53 18 -14 9 -21 21 -17 30 4 12 3 13 -10 2 -11 -9 -12 -16 -4 -26
6 -7 8 -18 4 -25 -5 -8 0 -9 16 -5 19 6 21 5 7 -4 -18 -11 -51 -3 -42 11 7 12
-15 51 -26 44 -12 -7 -23 12 -14 26 5 8 10 6 16 -5 12 -22 25 -20 38 7 10 20
10 20 -3 5 -16 -20 -27 -14 -27 14 0 11 5 16 11 13 6 -4 5 2 -3 14 -14 22 -28
28 -28 11 0 -5 6 -10 13 -10 6 0 4 -5 -6 -11 -26 -15 -33 -4 -17 26 10 19 10
27 1 39 -7 8 -19 12 -26 10 -9 -4 -12 0 -9 13 2 10 -5 32 -16 48 -11 17 -33
50 -50 75 -16 25 -30 38 -30 31 0 -23 -18 0 -23 29 -2 14 -5 21 -6 15z m44
-75 c3 -5 1 -10 -4 -10 -6 0 -11 5 -11 10 0 6 2 10 4 10 3 0 8 -4 11 -10z m75
-181 c15 -28 4 -38 -15 -13 -17 22 -19 34 -5 34 5 0 14 -9 20 -21z"/>
<path d="M6410 7760 c0 -5 7 -10 16 -10 8 0 12 5 9 10 -3 6 -10 10 -16 10 -5
0 -9 -4 -9 -10z"/>
<path d="M3790 7740 c0 -5 7 -10 16 -10 8 0 12 5 9 10 -3 6 -10 10 -16 10 -5
0 -9 -4 -9 -10z"/>
<path d="M6450 7739 c0 -5 -4 -7 -10 -4 -5 3 -7 0 -5 -7 3 -7 24 -26 47 -42
23 -17 38 -24 34 -18 -4 7 -2 12 4 12 6 0 8 5 5 11 -4 6 -13 8 -20 5 -7 -2
-21 2 -32 11 -17 14 -17 14 1 8 19 -6 19 -5 1 15 -21 23 -25 24 -25 9z"/>
<path d="M3760 7710 c0 -11 2 -20 4 -20 2 0 6 9 9 20 3 11 1 20 -4 20 -5 0 -9
-9 -9 -20z"/>
<path d="M6490 7641 c0 -10 30 -24 37 -17 3 2 -5 9 -16 16 -12 6 -21 7 -21 1z"/>
<path d="M6716 7522 c-34 -65 -22 -142 22 -142 12 0 14 -2 4 -8 -9 -6 -6 -14
13 -32 14 -13 25 -20 25 -16 0 5 7 3 16 -5 13 -11 15 -9 9 17 -5 29 -5 29 6 4
7 -14 11 -31 10 -37 -1 -7 6 -13 15 -13 10 0 14 5 11 14 -4 10 -1 13 9 9 13
-5 12 -9 -3 -27 -10 -11 -22 -25 -28 -29 -6 -5 -3 -7 7 -3 10 3 20 0 24 -5 3
-6 16 -8 29 -5 20 5 23 1 28 -27 3 -17 0 -36 -6 -42 -7 -7 -8 -6 -4 1 4 7 1
17 -7 23 -11 9 -15 9 -19 -1 -4 -9 -6 -10 -6 -1 -1 7 -11 17 -23 23 -13 7 -4
-7 21 -31 26 -25 46 -38 49 -31 2 8 9 8 25 -2 12 -8 33 -17 47 -21 22 -7 23
-6 11 9 -12 14 -12 16 5 11 15 -5 15 -3 -3 11 -13 9 -23 21 -23 26 0 6 8 4 18
-3 9 -7 6 -1 -7 13 -13 15 -26 26 -30 25 -9 -3 -71 46 -71 56 0 5 8 3 18 -4
15 -13 16 -12 3 4 -8 9 -16 15 -19 13 -5 -6 -44 40 -42 50 1 3 -7 12 -17 20
-10 7 -14 14 -10 14 4 0 3 9 -3 21 -7 11 -14 18 -17 15 -3 -3 0 -13 8 -23 8
-9 9 -14 2 -10 -6 4 -18 21 -27 37 -8 17 -11 28 -7 26 6 -4 -35 92 -45 102 -1
2 -10 -10 -18 -26z m72 -133 c10 -14 10 -18 -1 -22 -10 -4 -14 2 -14 19 0 14
0 24 1 22 1 -2 7 -10 14 -19z m187 -179 c3 -5 1 -10 -4 -10 -6 0 -11 5 -11 10
0 6 2 10 4 10 3 0 8 -4 11 -10z"/>
<path d="M3498 7513 c0 -10 -1 -26 0 -35 1 -12 -3 -15 -15 -11 -10 4 -14 2
-10 -4 4 -6 -4 -22 -18 -37 -13 -15 -26 -42 -28 -61 -2 -19 -7 -38 -10 -42 -4
-3 -7 -17 -7 -30 0 -20 2 -22 14 -11 9 8 11 17 5 24 -5 6 -6 14 -2 18 4 3 8
14 9 24 6 42 12 56 24 60 9 3 11 -1 7 -12 -4 -9 -3 -16 2 -16 5 0 11 14 15 30
3 17 10 30 15 30 14 0 -5 -59 -25 -81 -10 -11 -13 -19 -8 -19 19 0 56 70 52
95 -3 14 -1 25 3 25 5 0 9 5 9 11 0 5 -4 8 -9 4 -5 -3 -13 0 -16 6 -5 7 0 10
11 7 11 -2 20 -12 20 -23 5 -64 4 -62 16 -38 13 27 -3 73 -32 91 -17 10 -20
10 -22 -5z"/>
<path d="M5067 7446 c-4 -10 1 -12 14 -9 23 6 24 9 5 16 -8 3 -17 0 -19 -7z"/>
<path d="M5131 7439 c0 -14 6 -34 14 -45 11 -15 14 -16 15 -3 0 8 -4 19 -9 25
-5 5 -11 18 -14 29 -4 16 -5 15 -6 -6z"/>
<path d="M5170 7450 c0 -5 5 -10 11 -10 5 0 7 5 4 10 -3 6 -8 10 -11 10 -2 0
-4 -4 -4 -10z"/>
<path d="M5009 7380 c-19 -19 -51 -48 -70 -63 l-34 -28 33 22 c19 12 48 22 65
23 23 1 33 7 35 21 4 20 4 20 -12 0 -8 -11 -16 -15 -16 -8 0 18 41 53 62 53
10 0 18 4 18 9 0 21 -48 4 -81 -29z"/>
<path d="M5184 7386 c-6 -16 35 -68 48 -60 4 3 8 0 8 -5 0 -16 -28 -13 -37 3
-8 14 -81 56 -97 56 -18 0 30 -37 81 -62 32 -16 54 -23 60 -17 6 6 9 1 9 -13
-1 -20 4 -23 35 -24 19 -1 47 -9 62 -19 15 -10 30 -15 33 -12 3 3 -7 14 -23
24 -15 10 -57 41 -92 70 -35 29 -69 49 -74 46 -6 -4 -8 0 -4 10 3 10 4 17 1
17 -2 0 -7 -6 -10 -14z"/>
<path d="M5514 7383 c2 -9 8 -19 15 -21 10 -3 10 0 2 17 -14 25 -20 27 -17 4z"/>
<path d="M3375 7319 c-4 -6 -5 -12 -2 -15 2 -3 7 2 10 11 7 17 1 20 -8 4z"/>
<path d="M3335 7270 c3 -5 8 -10 11 -10 2 0 4 5 4 10 0 6 -5 10 -11 10 -5 0
-7 -4 -4 -10z"/>
<path d="M4845 7270 c-3 -5 -2 -10 4 -10 5 0 13 5 16 10 3 6 2 10 -4 10 -5 0
-13 -4 -16 -10z"/>
<path d="M5540 7271 c0 -5 7 -12 16 -15 14 -5 15 -4 4 9 -14 17 -20 19 -20 6z"/>
<path d="M5625 7270 c3 -5 8 -10 11 -10 2 0 4 5 4 10 0 6 -5 10 -11 10 -5 0
-7 -4 -4 -10z"/>
<path d="M5676 7264 c-10 -26 -7 -34 12 -34 12 0 14 2 4 8 -7 5 -10 16 -6 25
3 9 4 17 1 17 -3 0 -8 -7 -11 -16z"/>
<path d="M5298 7243 c7 -3 16 -2 19 1 4 3 -2 6 -13 5 -11 0 -14 -3 -6 -6z"/>
<path d="M5735 7240 c-3 -5 -1 -10 4 -10 6 0 11 5 11 10 0 6 -2 10 -4 10 -3 0
-8 -4 -11 -10z"/>
<path d="M6945 7127 c12 -8 35 -17 52 -20 18 -3 36 -8 42 -12 6 -3 8 0 5 8 -3
8 -20 17 -37 20 -18 3 -43 8 -57 12 -24 7 -24 7 -5 -8z"/>
<path d="M6170 7114 c0 -6 7 -19 15 -30 8 -10 14 -14 14 -9 0 6 -6 19 -14 29
-8 11 -15 15 -15 10z"/>
<path d="M5870 7099 c0 -5 5 -7 10 -4 6 3 10 8 10 11 0 2 -4 4 -10 4 -5 0 -10
-5 -10 -11z"/>
<path d="M5930 7081 c8 -5 32 -13 52 -16 21 -4 40 -11 44 -16 3 -5 10 -9 15
-9 24 0 -6 20 -44 30 -86 23 -83 22 -67 11z"/>
<path d="M6064 7056 c11 -9 24 -16 30 -16 12 0 7 5 -24 19 -24 11 -24 11 -6
-3z"/>
<path d="M5795 7040 c3 -5 24 -14 46 -20 25 -7 37 -15 33 -22 -4 -6 -3 -8 4
-4 6 3 32 -1 57 -10 26 -8 49 -14 51 -11 4 3 -72 37 -96 43 -3 0 -12 3 -20 6
-47 18 -80 26 -75 18z"/>
<path d="M5905 6960 c10 -11 20 -20 23 -20 3 0 -3 9 -13 20 -10 11 -20 20 -23
20 -3 0 3 -9 13 -20z"/>
<path d="M6000 6951 c0 -6 5 -13 10 -16 6 -3 10 1 10 9 0 9 -4 16 -10 16 -5 0
-10 -4 -10 -9z"/>
<path d="M5980 6920 c0 -5 5 -10 11 -10 5 0 7 5 4 10 -3 6 -8 10 -11 10 -2 0
-4 -4 -4 -10z"/>
<path d="M3974 6902 c3 -5 0 -13 -6 -15 -9 -4 -10 -6 -1 -6 17 -1 25 16 12 25
-7 4 -9 3 -5 -4z"/>
<path d="M6031 6844 c0 -11 3 -14 6 -6 3 7 2 16 -1 19 -3 4 -6 -2 -5 -13z"/>
<path d="M6020 6809 c0 -5 5 -7 10 -4 6 3 13 0 16 -9 3 -8 12 -17 20 -20 11
-4 10 0 -3 19 -18 25 -43 33 -43 14z"/>
<path d="M6146 6773 c-4 -9 -2 -21 4 -27 7 -7 10 -2 10 17 0 31 -5 34 -14 10z"/>
<path d="M3888 6571 c-16 -18 -15 -20 3 -18 11 1 19 9 19 19 0 23 -2 22 -22
-1z"/>
<path d="M3890 6341 c0 -5 6 -11 14 -14 9 -4 12 -14 9 -25 -2 -11 0 -23 5 -26
7 -4 10 5 10 22 -1 25 -38 67 -38 43z"/>
<path d="M4256 6303 c-11 -38 -20 -121 -20 -188 0 -77 5 -106 21 -127 6 -7 14
-24 17 -38 4 -14 15 -40 24 -58 15 -29 15 -34 2 -43 -12 -9 -12 -10 4 -5 12 4
24 0 32 -11 12 -16 13 -16 14 -2 0 9 -7 22 -15 29 -9 7 -13 15 -10 18 2 3 -3
11 -13 19 -16 13 -15 14 6 10 12 -3 20 -1 16 4 -3 5 0 9 5 9 6 0 11 -4 11 -9
0 -6 8 -9 18 -9 9 1 27 -2 39 -6 18 -6 22 -4 17 8 -3 8 -9 15 -12 14 -19 -2
-49 3 -61 11 -11 7 -10 15 9 41 12 17 20 33 17 36 -3 3 -13 -8 -23 -25 -10
-17 -26 -31 -36 -31 -10 0 -20 0 -23 0 -3 0 -4 3 -2 8 1 4 10 6 20 5 9 -2 17
2 17 8 0 5 -3 8 -7 6 -15 -9 -53 12 -53 28 0 10 5 14 13 10 6 -4 5 0 -4 7 -9
7 -19 27 -21 43 -3 17 -3 24 -1 18 3 -7 9 -13 15 -13 5 0 8 7 4 15 -3 8 -1 15
4 15 6 0 10 -7 10 -15 0 -8 7 -15 15 -15 20 0 19 15 -4 37 -20 20 -35 94 -33
166 2 49 -3 60 -12 30z m14 -153 c0 -5 -5 -10 -11 -10 -5 0 -7 5 -4 10 3 6 8
10 11 10 2 0 4 -4 4 -10z m60 -220 c0 -5 -4 -10 -10 -10 -5 0 -10 5 -10 10 0
6 5 10 10 10 6 0 10 -4 10 -10z"/>
<path d="M2318 6192 c-54 -146 -76 -229 -81 -312 -3 -41 -2 -66 2 -55 6 15 9
8 13 -29 7 -57 66 -178 115 -235 40 -47 179 -141 243 -164 86 -31 216 -55 334
-62 66 -3 125 -9 132 -13 7 -4 -306 -7 -694 -7 -708 -1 -1142 -10 -1142 -25 0
-5 30 -18 68 -30 132 -42 343 -172 501 -309 42 -36 82 -70 89 -76 23 -19 218
-240 268 -305 28 -36 86 -122 130 -192 43 -71 83 -128 88 -128 4 0 5 8 1 18
-21 54 -46 179 -51 257 -15 233 86 424 304 573 128 87 330 165 482 186 63 9
83 23 44 30 -16 4 -57 13 -91 21 -34 8 -71 15 -82 15 -12 0 -21 5 -21 10 0 12
6 12 49 0 68 -19 41 -2 -31 20 -40 13 -113 40 -162 61 -49 21 -93 36 -99 32
-5 -3 -7 -1 -4 4 8 13 -20 26 -35 16 -7 -3 -8 -1 -4 5 7 12 -30 36 -44 27 -5
-3 -12 0 -16 6 -5 8 -3 9 6 4 9 -6 11 -4 6 4 -5 7 -14 10 -22 7 -8 -3 -13 -2
-11 2 1 4 -41 50 -93 102 -112 112 -152 182 -176 309 -13 71 -14 99 -4 170 6
48 16 101 22 119 5 18 8 35 6 37 -2 3 -20 -39 -40 -93z m544 -777 c29 -14 46
-25 38 -24 -19 0 -119 47 -103 48 6 1 35 -10 65 -24z m88 -35 c8 -5 11 -10 5
-10 -5 0 -17 5 -25 10 -8 5 -10 10 -5 10 6 0 17 -5 25 -10z m-833 -132 c-3 -8
-6 -5 -6 6 -1 11 2 17 5 13 3 -3 4 -12 1 -19z m10 -60 c-3 -7 -5 -2 -5 12 0
14 2 19 5 13 2 -7 2 -19 0 -25z m10 -70 c-3 -7 -5 -2 -5 12 0 14 2 19 5 13 2
-7 2 -19 0 -25z m42 -207 c6 -30 19 -90 30 -135 11 -45 27 -115 37 -156 18
-79 45 -157 88 -253 14 -32 21 -55 17 -53 -14 9 -61 115 -86 191 -47 145 -127
515 -124 575 1 23 11 -21 38 -169z m82 32 c-12 -20 -14 -14 -5 12 4 9 9 14 11
11 3 -2 0 -13 -6 -23z m-31 -128 l-7 -60 -2 56 c0 31 2 59 6 62 10 11 10 7 3
-58z"/>
<path d="M4484 6279 c-3 -6 4 -21 16 -33 20 -18 22 -19 16 -3 -3 10 -6 25 -6
33 0 17 -16 19 -26 3z"/>
<path d="M4530 6250 c0 -5 5 -10 11 -10 5 0 7 5 4 10 -3 6 -8 10 -11 10 -2 0
-4 -4 -4 -10z"/>
<path d="M4540 6215 c7 -9 15 -13 17 -11 7 7 -7 26 -19 26 -6 0 -6 -6 2 -15z"/>
<path d="M3926 6205 c-9 -26 -7 -32 5 -12 6 10 9 21 6 23 -2 3 -7 -2 -11 -11z"/>
<path d="M4513 6189 c-2 -23 3 -25 10 -4 4 8 3 16 -1 19 -4 3 -9 -4 -9 -15z"/>
<path d="M7946 6201 c-4 -5 3 -29 13 -54 11 -25 33 -87 49 -138 54 -169 66
-225 129 -640 5 -32 7 -35 37 -32 17 2 43 4 59 4 15 0 27 4 27 9 0 5 7 7 16 3
13 -5 13 -8 2 -15 -9 -7 -7 -8 7 -2 21 7 60 7 153 0 32 -3 52 -1 52 6 0 7 4 7
13 0 11 -9 387 -23 387 -14 0 2 -16 10 -35 18 -20 8 -33 18 -31 23 3 5 -2 8
-12 7 -9 0 -16 5 -14 12 1 8 -2 11 -7 8 -29 -18 -400 240 -384 268 3 6 3 8 -2
4 -4 -4 -13 -2 -20 5 -7 7 -27 23 -44 36 -17 13 -31 28 -31 33 0 6 8 4 18 -3
15 -13 16 -12 3 3 -7 10 -17 16 -21 13 -4 -2 -18 7 -30 20 -13 14 -20 25 -15
25 4 0 0 9 -10 20 -10 11 -21 17 -25 15 -5 -3 -20 10 -35 27 -14 18 -33 41
-41 51 -8 10 -12 23 -8 29 4 6 3 8 -3 5 -11 -7 -49 42 -45 56 1 5 -2 6 -8 2
-5 -3 -15 6 -21 22 -5 15 -24 40 -40 55 -17 16 -27 33 -24 38 3 6 -1 13 -9 16
-9 3 -13 11 -9 17 3 6 1 7 -5 3 -13 -8 -36 30 -27 44 3 6 4 10 1 10 -3 0 -7
-4 -10 -9z m305 -388 c13 -16 12 -17 -3 -4 -10 7 -18 15 -18 17 0 8 8 3 21
-13z m19 -147 c0 -12 -5 -7 -19 24 -11 24 -11 24 3 6 9 -11 16 -24 16 -30z
m96 -157 c4 -8 1 -8 -14 0 -12 6 -24 16 -28 22 -4 8 -1 8 14 0 12 -6 24 -16
28 -22z m-156 -16 c0 -7 -39 17 -46 28 -3 6 5 3 20 -6 14 -10 26 -19 26 -22z
m240 -83 c13 -8 13 -10 -2 -10 -9 0 -20 5 -23 10 -8 13 5 13 25 0z m217 -66
c-3 -3 -12 -4 -19 -1 -8 3 -5 6 6 6 11 1 17 -2 13 -5z"/>
<path d="M7500 6196 c0 -2 8 -10 18 -17 15 -13 16 -12 3 4 -13 16 -21 21 -21
13z"/>
<path d="M3891 6164 c0 -11 3 -14 6 -6 3 7 2 16 -1 19 -3 4 -6 -2 -5 -13z"/>
<path d="M3922 6150 c0 -14 2 -19 5 -12 2 6 2 18 0 25 -3 6 -5 1 -5 -13z"/>
<path d="M4290 6130 c0 -5 5 -10 11 -10 5 0 7 5 4 10 -3 6 -8 10 -11 10 -2 0
-4 -4 -4 -10z"/>
<path d="M3920 6099 c0 -13 -4 -18 -12 -13 -10 6 -10 4 0 -8 10 -13 10 -17 0
-21 -10 -4 -10 -8 2 -21 14 -14 16 -11 18 34 1 28 0 50 -3 50 -3 0 -5 -9 -5
-21z"/>
<path d="M2250 6103 c0 -5 -13 -29 -28 -54 -16 -24 -36 -57 -46 -72 -10 -16
-20 -26 -23 -23 -3 3 2 12 11 21 9 9 16 21 16 27 0 5 -24 -21 -54 -58 -29 -38
-81 -98 -115 -134 -63 -67 -74 -87 -43 -76 10 4 6 -4 -10 -18 -16 -14 -28 -29
-28 -34 0 -6 -7 -13 -16 -16 -26 -10 -29 -7 -8 9 18 13 18 14 1 15 -17 0 -107
-80 -107 -96 0 -4 -8 -16 -17 -27 -10 -11 -12 -17 -5 -13 6 4 12 2 12 -4 0 -6
-8 -9 -18 -6 -13 4 -23 -1 -32 -19 -7 -14 -17 -25 -22 -25 -5 0 -26 -11 -46
-25 -20 -14 -44 -25 -52 -25 -9 0 -25 -7 -36 -16 -16 -13 -16 -15 -1 -10 9 3
17 2 17 -3 0 -11 -48 -23 -60 -16 -6 4 -10 -1 -10 -10 0 -9 -4 -14 -9 -10 -5
3 -12 1 -16 -5 -4 -6 -10 -8 -15 -5 -4 3 -32 -6 -61 -20 -33 -14 -46 -24 -33
-24 11 -1 28 5 38 12 12 9 36 12 65 10 87 -8 322 105 468 224 23 19 47 32 52
29 5 -4 12 -2 16 4 11 17 23 11 18 -9 -3 -11 -11 -17 -21 -15 -15 4 -144 -80
-209 -135 -13 -11 -23 -17 -23 -15 0 3 -13 -3 -30 -13 -16 -9 -30 -20 -30 -24
0 -4 -15 -10 -32 -14 -18 -4 -36 -9 -40 -10 -5 -1 -14 -3 -21 -4 -7 0 -22 -7
-32 -15 -18 -13 -17 -14 10 -9 17 2 37 7 45 10 8 4 20 5 25 4 17 -5 99 -14
115 -13 8 0 31 5 50 9 27 7 34 14 32 29 -2 11 0 15 5 8 4 -6 17 -16 28 -23 19
-12 19 -12 -4 -7 -16 3 -20 1 -14 -5 15 -15 62 -21 81 -10 14 9 13 10 -10 11
-16 0 -28 4 -28 9 0 15 41 20 61 8 14 -9 22 -9 27 -1 4 6 16 14 28 18 17 5 23
1 31 -26 l11 -33 1 40 c1 44 25 234 41 330 16 89 37 171 75 292 19 59 32 109
30 112 -3 2 -5 0 -5 -6z m-129 -200 c-12 -20 -14 -14 -5 12 4 9 9 14 11 11 3
-2 0 -13 -6 -23z m19 -52 c-22 -45 -36 -55 -24 -18 7 24 37 67 42 62 2 -2 -6
-21 -18 -44z m-39 6 c-10 -9 -11 -8 -5 6 3 10 9 15 12 12 3 -3 0 -11 -7 -18z
m-27 -191 c-6 -15 -54 -51 -54 -41 0 9 43 55 51 55 5 0 6 -6 3 -14z m41 4 c3
-5 1 -10 -4 -10 -6 0 -11 5 -11 10 0 6 2 10 4 10 3 0 8 -4 11 -10z m-235 -20
c0 -5 -4 -10 -10 -10 -5 0 -10 5 -10 10 0 6 5 10 10 10 6 0 10 -4 10 -10z
m237 -50 c-1 -22 -5 -40 -9 -40 -10 0 -10 8 -2 49 9 42 13 39 11 -9z m-76 -67
c-9 -16 -10 -14 -11 12 0 21 3 26 11 18 8 -8 8 -16 0 -30z m39 -13 c-6 -12 -9
-28 -6 -37 4 -9 1 -13 -6 -10 -8 2 -12 18 -11 38 2 67 1 65 19 47 13 -13 14
-20 4 -38z m-60 5 c0 -5 -5 -3 -10 5 -5 8 -10 20 -10 25 0 6 5 3 10 -5 5 -8
10 -19 10 -25z m81 -28 c-10 -9 -11 -8 -5 6 3 10 9 15 12 12 3 -3 0 -11 -7
-18z m-177 -12 c-4 -8 -11 -15 -16 -15 -6 0 -5 6 2 15 7 8 14 15 16 15 2 0 1
-7 -2 -15z m129 -32 c-8 -22 -22 -15 -16 8 5 19 4 20 -16 10 -11 -7 -21 -16
-21 -21 0 -6 -6 -10 -14 -10 -9 0 -12 -8 -8 -26 4 -24 2 -25 -28 -22 -19 2
-35 9 -37 18 -4 13 -3 13 6 0 9 -13 11 -12 12 5 1 17 2 17 6 3 2 -10 9 -18 14
-18 6 0 9 8 8 18 -3 34 1 44 16 38 9 -3 15 0 15 8 0 8 -6 17 -12 19 -8 3 -6 6
5 6 9 1 17 -4 17 -11 0 -8 6 -6 17 4 15 16 17 16 29 0 6 -9 10 -22 7 -29z m47
-2 c-1 -11 -50 -42 -50 -31 0 5 5 10 10 10 6 0 10 6 10 13 0 8 7 14 15 14 8 0
15 -3 15 -6z m-191 -14 c-2 -1 -13 -9 -24 -17 -19 -14 -19 -14 -6 3 7 9 18 17
24 17 6 0 8 -1 6 -3z m112 -26 c-11 -7 -11 -9 0 -13 8 -3 12 -8 9 -11 -3 -3
-12 -2 -20 3 -11 7 -12 11 0 24 7 9 15 14 19 11 3 -3 -1 -10 -8 -14z m-266
-31 c-3 -5 -12 -10 -18 -10 -7 0 -6 4 3 10 19 12 23 12 15 0z"/>
<path d="M4608 6093 c7 -3 16 -2 19 1 4 3 -2 6 -13 5 -11 0 -14 -3 -6 -6z"/>
<path d="M4686 6033 c-6 -15 8 -32 26 -33 8 0 -2 39 -12 45 -4 3 -11 -3 -14
-12z"/>
<path d="M4310 6021 c0 -6 4 -13 10 -16 6 -3 7 1 4 9 -7 18 -14 21 -14 7z"/>
<path d="M4365 5951 c-7 -12 22 -18 53 -13 18 4 20 7 10 13 -18 12 -55 11 -63
0z"/>
<path d="M3861 5914 c0 -11 3 -14 6 -6 3 7 2 16 -1 19 -3 4 -6 -2 -5 -13z"/>
<path d="M3940 5899 c-13 -19 -28 -37 -33 -40 -6 -4 -7 -17 -4 -28 3 -12 2
-35 -3 -51 -6 -21 -5 -30 6 -34 10 -4 13 6 10 47 -3 46 0 55 26 84 17 17 28
37 26 44 -2 7 -14 -2 -28 -22z"/>
<path d="M4247 5911 c-3 -14 0 -21 8 -21 7 0 15 -6 18 -12 2 -7 7 -11 10 -8 3
3 -2 18 -12 34 -17 26 -19 26 -24 7z"/>
<path d="M3870 5855 c-13 -14 -21 -27 -18 -31 3 -3 16 9 28 25 26 37 22 40
-10 6z"/>
<path d="M4360 5860 c6 -11 15 -20 20 -20 6 0 2 9 -7 20 -10 11 -19 20 -21 20
-1 0 2 -9 8 -20z"/>
<path d="M4441 5843 c8 -13 20 -23 28 -23 8 0 12 1 10 3 -2 1 -15 11 -28 22
l-24 20 14 -22z"/>
<path d="M8016 5845 c-3 -8 -1 -15 5 -15 6 0 3 -10 -5 -22 -9 -12 -16 -38 -16
-58 0 -19 -9 -46 -20 -60 -11 -14 -20 -35 -20 -46 0 -12 -10 -29 -22 -38 -16
-11 -17 -14 -5 -10 16 6 16 4 6 -20 -11 -24 -31 -37 -28 -18 3 19 -4 15 -45
-22 -24 -23 -42 -43 -40 -45 2 -2 12 3 22 12 20 19 52 23 52 7 0 -5 -11 -10
-25 -10 -14 0 -25 -4 -25 -10 0 -5 14 -10 31 -10 26 0 30 -2 19 -15 -6 -8 -10
-18 -7 -22 3 -4 -1 -14 -9 -21 -12 -11 -15 -8 -20 18 -7 35 -27 35 -32 1 -3
-16 0 -21 9 -16 8 5 10 4 5 -4 -4 -6 -12 -9 -17 -6 -5 4 -9 2 -9 -3 0 -6 -15
-15 -32 -22 -19 -7 -27 -14 -20 -17 7 -3 19 1 27 7 11 9 15 9 15 1 0 -6 5 -11
11 -11 5 0 7 5 4 10 -3 6 -1 10 4 10 6 0 11 -4 11 -10 0 -5 12 -10 26 -10 14
0 23 4 19 10 -8 12 -3 13 29 0 21 -7 33 -4 66 17 22 15 40 34 40 44 0 9 6 22
13 28 8 6 12 23 9 41 -5 33 11 41 27 13 21 -39 24 3 7 110 -33 213 -44 253
-60 212z m28 -91 c11 -28 6 -39 -9 -20 -8 11 -15 23 -15 28 0 14 18 9 24 -8z
m14 -85 c-2 -6 -8 -10 -13 -10 -5 0 -11 4 -13 10 -2 6 4 11 13 11 9 0 15 -5
13 -11z m10 -84 c1 -16 -3 -25 -12 -25 -21 0 -14 39 9 50 0 0 2 -11 3 -25z
m-93 -5 c3 -5 1 -10 -4 -10 -6 0 -11 5 -11 10 0 6 2 10 4 10 3 0 8 -4 11 -10z
m45 -52 c0 -16 -3 -19 -11 -11 -6 6 -8 16 -5 22 11 17 16 13 16 -11z m-46 -28
c-6 -6 -10 -3 -10 10 0 13 4 16 10 10 7 -7 7 -13 0 -20z m-1 -18 c20 10 21 10
9 -5 -7 -8 -22 -15 -33 -14 -22 1 -21 0 -12 24 7 17 8 17 11 1 3 -15 7 -16 25
-6z m45 -7 c-3 -3 -9 2 -12 12 -6 14 -5 15 5 6 7 -7 10 -15 7 -18z m-95 -40
c-7 -21 24 -19 35 1 7 12 11 13 17 5 5 -9 11 -9 23 0 15 12 16 11 2 -4 -8 -9
-31 -18 -50 -19 -30 -3 -35 0 -38 21 -2 14 0 21 7 17 5 -4 8 -13 4 -21z m-53
-45 c0 -5 -4 -10 -10 -10 -5 0 -10 5 -10 10 0 6 5 10 10 10 6 0 10 -4 10 -10z"/>
<path d="M2201 5825 c0 -11 -4 -31 -8 -44 -4 -17 -3 -22 5 -17 7 4 12 1 12 -8
0 -9 -6 -13 -13 -10 -10 3 -18 -21 -30 -93 -29 -169 -38 -235 -34 -239 2 -3
14 -6 25 -9 11 -2 30 -9 41 -15 17 -9 22 -8 27 4 4 11 14 14 33 11 25 -5 25
-5 4 6 -21 11 -31 29 -17 29 3 0 25 -16 50 -36 28 -23 50 -34 60 -30 13 5 14
9 4 21 -15 18 -9 27 22 30 13 1 26 3 31 4 4 0 7 10 7 21 0 11 5 20 10 20 6 0
10 -6 10 -14 0 -8 4 -17 9 -20 5 -4 7 3 4 14 -3 10 -24 34 -47 52 -24 18 -53
47 -67 64 -13 18 -28 31 -34 31 -5 -1 -9 6 -7 16 2 10 -3 16 -10 15 -8 -2 -12
4 -10 15 2 9 -2 17 -8 17 -6 0 -8 5 -5 10 3 6 1 10 -5 10 -7 0 -10 7 -7 15 4
8 2 17 -2 20 -5 2 -12 21 -15 40 -4 20 -11 33 -16 30 -5 -3 -11 9 -13 27 -2
18 -5 24 -6 13z m29 -129 c0 -3 -4 -8 -10 -11 -5 -3 -10 -1 -10 4 0 6 5 11 10
11 6 0 10 -2 10 -4z m92 -136 c7 0 19 -9 26 -20 7 -12 8 -20 2 -20 -5 0 -10 5
-10 10 0 6 -5 10 -11 10 -5 0 -7 -5 -4 -10 3 -6 0 -17 -8 -25 -13 -13 -17 -13
-27 1 -11 12 -10 13 5 7 15 -5 17 -3 12 11 -4 10 -7 22 -7 28 0 6 -8 5 -17 -3
-17 -13 -17 -13 -3 5 11 15 12 20 3 23 -7 3 -13 10 -13 16 1 7 9 2 19 -10 11
-13 25 -23 33 -23z m-62 0 c0 -5 -5 -10 -11 -10 -5 0 -7 5 -4 10 3 6 8 10 11
10 2 0 4 -4 4 -10z m-9 -53 c-10 -9 -11 -8 -5 6 3 10 9 15 12 12 3 -3 0 -11
-7 -18z m143 -34 c6 -19 4 -22 -10 -16 -13 5 -15 3 -9 -7 5 -9 4 -11 -3 -6 -9
5 -9 13 -2 26 14 27 13 30 -12 31 -22 0 -22 1 -3 8 21 9 27 3 39 -36z m-168
18 c0 -16 -3 -17 -14 -9 -12 10 -7 19 13 28 1 0 1 -9 1 -19z m110 -28 c-3 -4
-6 0 -6 8 0 12 -2 12 -10 -1 -5 -8 -12 -11 -15 -8 -4 4 -1 13 6 21 12 13 15
13 22 0 5 -8 6 -17 3 -20z m-122 -19 c3 -8 3 -20 0 -28 -5 -12 -9 -12 -32 -1
-14 8 -27 22 -28 33 -3 15 2 18 26 14 16 -2 31 -10 34 -18z m131 -4 c3 -5 1
-10 -4 -10 -6 0 -11 5 -11 10 0 6 2 10 4 10 3 0 8 -4 11 -10z"/>
<path d="M2178 5433 c7 -3 16 -2 19 1 4 3 -2 6 -13 5 -11 0 -14 -3 -6 -6z"/>
<path d="M4920 5835 c0 -6 76 -45 87 -45 10 0 -69 49 -79 50 -5 0 -8 -2 -8 -5z"/>
<path d="M3860 5789 c0 -5 5 -7 10 -4 6 3 10 8 10 11 0 2 -4 4 -10 4 -5 0 -10
-5 -10 -11z"/>
<path d="M3850 5761 c0 -6 4 -13 10 -16 6 -3 7 1 4 9 -7 18 -14 21 -14 7z"/>
<path d="M3825 5730 c0 -17 5 -28 10 -26 6 1 8 12 7 22 -6 32 -17 35 -17 4z"/>
<path d="M4641 5756 c10 -9 69 -36 69 -32 0 6 -55 36 -66 36 -4 0 -5 -2 -3 -4z"/>
<path d="M5060 5756 c0 -2 7 -7 16 -10 8 -3 12 -2 9 4 -6 10 -25 14 -25 6z"/>
<path d="M5175 5739 c-4 -6 -5 -12 -2 -15 2 -3 7 2 10 11 7 17 1 20 -8 4z"/>
<path d="M3797 5720 c-3 -11 -2 -22 3 -25 4 -3 10 6 12 20 6 30 -7 34 -15 5z"/>
<path d="M1914 5715 c-16 -12 -17 -14 -3 -15 9 0 19 7 23 15 7 19 5 19 -20 0z"/>
<path d="M5138 5698 c2 -10 -2 -28 -11 -41 -20 -31 -28 -94 -18 -142 l9 -40 2
35 c1 19 4 42 6 50 2 8 10 41 16 72 7 32 18 59 25 60 7 2 2 8 -11 14 -20 9
-23 9 -18 -8z"/>
<path d="M3614 5668 c-7 -10 77 -10 94 0 8 5 -8 9 -38 9 -28 0 -53 -4 -56 -9z"/>
<path d="M3730 5633 c0 -4 5 -15 10 -23 8 -13 10 -13 10 2 0 9 -4 20 -10 23
-5 3 -10 3 -10 -2z"/>
<path d="M5432 5580 c-17 -28 -15 -49 6 -57 9 -4 22 -12 28 -17 6 -6 74 -49
152 -95 77 -46 162 -103 189 -127 26 -23 50 -41 53 -38 2 3 -16 24 -40 46 -25
23 -36 38 -26 34 16 -5 17 -4 6 9 -14 17 -35 21 -25 5 3 -5 1 -10 -4 -10 -6 0
-11 4 -11 9 0 5 -9 12 -20 16 -11 3 -19 12 -17 18 1 7 -6 11 -15 9 -10 -2 -45
15 -79 38 -33 22 -65 40 -70 40 -6 0 -7 5 -4 10 4 6 -7 13 -24 16 -16 4 -39
15 -50 25 -11 11 -24 19 -30 19 -14 0 -21 26 -9 38 6 6 9 15 7 21 -2 6 -10 2
-17 -9z"/>
<path d="M1689 5513 c-13 -16 -12 -17 4 -4 9 7 17 15 17 17 0 8 -8 3 -21 -13z"/>
<path d="M4838 5485 c-6 -13 -18 -26 -27 -28 -14 -4 -14 -5 1 -6 10 0 24 12
33 29 9 17 13 30 10 30 -3 0 -10 -11 -17 -25z"/>
<path d="M8065 5490 c-3 -5 -1 -10 4 -10 6 0 11 5 11 10 0 6 -2 10 -4 10 -3 0
-8 -4 -11 -10z"/>
<path d="M7775 5470 c-7 -12 17 -51 29 -47 5 2 12 9 14 15 2 7 -2 10 -12 6
-14 -6 -21 5 -17 29 1 10 -7 9 -14 -3z"/>
<path d="M7800 5470 c0 -5 7 -10 16 -10 8 0 12 5 9 10 -3 6 -10 10 -16 10 -5
0 -9 -4 -9 -10z"/>
<path d="M5119 5419 c9 -28 17 -46 19 -40 5 14 -17 91 -27 91 -4 0 -1 -23 8
-51z"/>
<path d="M8060 5453 c0 -5 5 -15 11 -23 9 -13 10 -12 5 3 -3 9 -1 17 4 17 9 0
12 -12 9 -37 0 -5 -6 -7 -13 -5 -7 1 -19 -6 -27 -15 -11 -15 -11 -16 1 -5 22
19 35 14 17 -6 -21 -23 -21 -32 -2 -32 8 0 14 3 14 8 -4 23 3 34 17 28 14 -5
16 -1 10 25 -3 17 -6 35 -6 40 0 5 -9 9 -20 9 -11 0 -20 -3 -20 -7z"/>
<path d="M7387 5444 c-3 -4 -41 -19 -84 -35 -43 -15 -73 -28 -67 -28 16 -1
117 34 150 53 16 8 24 15 18 16 -6 0 -14 -3 -17 -6z"/>
<path d="M5681 5431 c-9 -6 -6 -10 10 -14 28 -8 34 -3 16 11 -7 6 -19 7 -26 3z"/>
<path d="M5730 5418 c0 -9 5 -20 10 -23 6 -4 8 -10 5 -15 -3 -4 4 -10 14 -13
12 -3 22 1 25 10 8 20 -3 36 -20 29 -7 -3 -18 3 -23 12 -10 16 -10 16 -11 0z"/>
<path d="M7713 5408 c2 -15 -1 -29 -7 -32 -6 -2 1 -5 16 -5 22 -1 26 3 21 16
-4 10 -2 14 4 10 6 -4 13 0 17 8 7 19 -14 31 -25 14 -8 -12 -11 -12 -20 1 -8
12 -10 9 -6 -12z"/>
<path d="M2367 5414 c-5 -9 17 -35 28 -34 17 1 18 -1 5 -10 -8 -5 -11 -12 -8
-16 11 -10 60 5 53 16 -3 6 2 10 12 10 12 0 19 8 20 20 2 23 -15 27 -23 5 -4
-8 -10 -15 -15 -15 -4 0 -6 6 -3 14 6 16 -26 17 -38 1 -5 -6 -11 -5 -17 4 -5
7 -11 9 -14 5z"/>
<path d="M4880 5410 c0 -5 9 -10 21 -10 11 0 17 5 14 10 -3 6 -13 10 -21 10
-8 0 -14 -4 -14 -10z"/>
<path d="M5178 5391 c-27 -27 -88 -119 -88 -133 0 -4 7 -8 15 -8 8 0 14 3 13
8 -4 12 32 72 43 72 6 0 8 4 4 10 -7 12 24 50 49 59 15 6 16 9 5 13 -8 3 -26
-6 -41 -21z"/>
<path d="M7680 5405 c0 -8 -7 -15 -15 -15 -8 0 -15 -6 -15 -14 0 -8 -6 -17
-12 -19 -7 -3 -3 -6 9 -6 16 -1 21 3 17 14 -4 8 -2 15 4 15 6 0 13 -6 15 -12
3 -7 6 2 6 20 1 17 -1 32 -4 32 -3 0 -5 -7 -5 -15z"/>
<path d="M2531 5403 c-1 -17 16 -25 25 -12 4 7 3 9 -4 5 -5 -3 -13 0 -15 6 -4
9 -6 10 -6 1z"/>
<path d="M2132 5370 c-1 -32 23 -41 46 -18 8 8 15 8 27 -2 11 -9 15 -9 15 -1
0 7 4 10 9 6 5 -3 12 -1 15 4 3 4 19 7 35 5 22 -3 29 0 25 10 -5 13 -51 15
-71 3 -6 -4 -24 -2 -42 3 -28 8 -31 6 -32 -13 0 -21 -1 -21 -8 -2 -5 11 -7 23
-4 28 2 4 0 7 -5 7 -5 0 -9 -13 -10 -30z"/>
<path d="M5860 5392 c0 -5 7 -13 16 -16 10 -4 14 -1 12 6 -5 15 -28 23 -28 10z"/>
<path d="M2565 5359 c-11 -16 -1 -19 13 -3 7 8 8 14 3 14 -5 0 -13 -5 -16 -11z"/>
<path d="M5825 5361 c-18 -4 -25 -9 -18 -14 11 -7 63 7 63 18 0 6 -2 5 -45 -4z"/>
<path d="M7885 5354 l-40 -13 41 1 c26 1 41 6 41 15 0 7 -1 13 -1 12 -1 -1
-19 -7 -41 -15z"/>
<path d="M8005 5361 c3 -5 -5 -12 -17 -14 -15 -3 -9 -5 14 -6 29 -1 36 2 32
14 -4 8 -13 15 -21 15 -8 0 -12 -4 -8 -9z"/>
<path d="M2640 5352 c0 -4 9 -8 20 -9 11 -1 18 2 15 8 -7 11 -35 12 -35 1z"/>
<path d="M7580 5350 c0 -5 4 -10 9 -10 6 0 13 5 16 10 3 6 -1 10 -9 10 -9 0
-16 -4 -16 -10z"/>
<path d="M7800 5350 c0 -5 10 -10 23 -10 18 0 19 2 7 10 -19 13 -30 13 -30 0z"/>
<path d="M5692 5334 c10 -10 20 -15 24 -12 3 4 -5 12 -18 18 -22 12 -22 12 -6
-6z"/>
<path d="M7528 5343 c7 -3 16 -2 19 1 4 3 -2 6 -13 5 -11 0 -14 -3 -6 -6z"/>
<path d="M5889 5313 c-13 -16 -12 -17 4 -4 9 7 17 15 17 17 0 8 -8 3 -21 -13z"/>
<path d="M5730 5310 c0 -5 5 -10 11 -10 5 0 7 5 4 10 -3 6 -8 10 -11 10 -2 0
-4 -4 -4 -10z"/>
<path d="M5831 5315 c-1 -13 19 -35 31 -35 4 0 8 5 8 10 0 6 -6 10 -14 10 -8
0 -17 6 -19 13 -3 6 -6 7 -6 2z"/>
<path d="M6013 5285 c0 -8 4 -15 9 -15 4 0 8 4 8 9 0 6 -4 12 -8 15 -5 3 -9
-1 -9 -9z"/>
<path d="M5667 5270 c-5 -21 0 -25 21 -11 10 6 10 10 -1 20 -12 9 -16 7 -20
-9z"/>
<path d="M5875 5270 c-3 -5 -1 -10 4 -10 6 0 11 5 11 10 0 6 -2 10 -4 10 -3 0
-8 -4 -11 -10z"/>
<path d="M5903 5268 c4 -11 -1 -18 -14 -21 -29 -8 -23 -19 34 -59 28 -21 72
-52 96 -70 70 -53 175 -117 190 -118 7 0 22 -10 32 -22 15 -17 19 -18 19 -5 0
18 25 13 48 -10 12 -12 32 -18 32 -9 0 2 -18 15 -41 30 -34 23 -38 30 -28 42
10 13 10 17 -2 25 -12 8 -12 10 0 18 10 6 22 5 35 -5 11 -8 30 -14 41 -14 12
0 30 -8 41 -18 11 -11 26 -22 34 -25 9 -3 3 -6 -12 -6 -16 -1 -28 4 -28 9 0 6
-4 10 -10 10 -5 0 -7 -6 -4 -14 8 -22 -37 -7 -58 18 -21 25 -23 9 -3 -18 14
-19 120 -42 109 -24 -3 4 -1 8 5 8 5 0 13 -4 16 -10 3 -5 18 -9 33 -9 27 1 27
1 -3 8 -16 3 -30 12 -30 19 0 18 -101 83 -119 76 -10 -4 -16 -1 -16 10 0 20
-31 36 -57 30 -12 -3 -24 0 -28 6 -5 9 -1 10 16 6 23 -7 23 -6 5 8 -13 10 -24
12 -36 6 -11 -6 -21 -5 -28 2 -11 11 -32 3 -32 -13 0 -6 4 -8 9 -5 13 9 42 -4
35 -16 -3 -5 -11 -5 -19 2 -8 7 -14 7 -17 1 -1 -6 -8 -7 -15 -3 -10 6 -9 14 2
35 7 15 10 27 5 27 -11 0 -40 -29 -40 -41 0 -5 -5 -9 -11 -9 -6 0 -9 7 -5 15
6 18 2 19 -22 4 -24 -15 -128 39 -124 64 2 9 -2 17 -8 17 -6 0 -8 -4 -5 -10 3
-5 2 -10 -4 -10 -15 0 -23 18 -11 25 14 8 13 42 -2 51 -7 5 -9 2 -5 -8z m377
-177 c0 -11 -26 -22 -34 -14 -12 12 -5 23 14 23 11 0 20 -4 20 -9z m-114 -30
c-6 -10 32 -43 38 -33 7 12 46 4 46 -9 0 -5 -13 -7 -30 -6 -32 4 -73 34 -64
48 3 5 0 9 -5 9 -6 0 -11 5 -11 11 0 8 5 8 15 -1 8 -7 13 -15 11 -19z"/>
<path d="M5730 5259 c0 -5 5 -7 10 -4 6 3 10 8 10 11 0 2 -4 4 -10 4 -5 0 -10
-5 -10 -11z"/>
<path d="M5985 5250 c3 -5 11 -10 16 -10 6 0 7 5 4 10 -3 6 -11 10 -16 10 -6
0 -7 -4 -4 -10z"/>
<path d="M5765 5231 c-3 -5 -1 -12 5 -16 5 -3 10 -1 10 5 0 6 5 8 10 5 8 -5 7
-11 -1 -21 -9 -11 -7 -14 10 -14 12 0 20 -3 18 -7 -3 -5 9 -7 26 -7 39 2 70
-13 61 -28 -5 -7 -2 -8 6 -3 19 12 -34 55 -68 55 -19 0 -23 3 -13 9 15 10 8
15 -31 25 -15 3 -29 2 -33 -3z"/>
<path d="M5981 5191 c-10 -6 -9 -10 3 -14 8 -3 18 -2 21 3 8 13 -9 20 -24 11z"/>
<path d="M6015 5171 c-10 -9 -4 -19 14 -24 13 -3 21 1 24 13 3 14 -1 18 -15
17 -10 -1 -21 -3 -23 -6z"/>
<path d="M6070 5172 c0 -5 7 -9 15 -9 8 0 12 4 9 9 -3 4 -9 8 -15 8 -5 0 -9
-4 -9 -8z"/>
<path d="M5745 5160 c-3 -5 -1 -10 4 -10 6 0 11 5 11 10 0 6 -2 10 -4 10 -3 0
-8 -4 -11 -10z"/>
<path d="M5847 5139 c7 -7 15 -10 18 -7 3 3 -2 9 -12 12 -14 6 -15 5 -6 -5z"/>
<path d="M5490 5110 c0 -5 5 -10 10 -10 6 0 10 5 10 10 0 6 -4 10 -10 10 -5 0
-10 -4 -10 -10z"/>
<path d="M5550 5095 c-11 -13 -10 -14 4 -9 9 3 16 10 16 15 0 13 -6 11 -20 -6z"/>
<path d="M5568 5003 c7 -3 16 -2 19 1 4 3 -2 6 -13 5 -11 0 -14 -3 -6 -6z"/>
<path d="M5919 4983 c-13 -16 -12 -17 4 -4 9 7 17 15 17 17 0 8 -8 3 -21 -13z"/>
<path d="M5815 4970 c-3 -5 -1 -10 4 -10 6 0 11 5 11 10 0 6 -2 10 -4 10 -3 0
-8 -4 -11 -10z"/>
<path d="M6165 4960 c3 -5 8 -10 11 -10 2 0 4 5 4 10 0 6 -5 10 -11 10 -5 0
-7 -4 -4 -10z"/>
<path d="M6220 4950 c14 -11 30 -20 35 -20 6 0 -1 9 -15 20 -14 11 -29 20 -35
20 -5 0 1 -9 15 -20z"/>
<path d="M5592 4939 c3 -8 20 -18 40 -24 19 -5 44 -17 54 -25 18 -14 18 -14 4
4 -14 18 -13 18 20 11 19 -4 48 -14 64 -22 15 -8 25 -10 22 -5 -12 20 20 18
69 -3 27 -13 48 -25 45 -28 -3 -3 4 -15 15 -27 14 -15 26 -20 45 -15 19 4 22
3 10 -5 -13 -9 -12 -12 5 -23 20 -12 85 -27 85 -20 0 9 -78 71 -127 101 -59
35 -127 54 -161 45 -13 -3 -22 -1 -22 6 0 6 -3 10 -7 9 -5 -1 -24 2 -43 6 -19
3 -49 8 -65 9 -17 2 -37 7 -44 12 -9 5 -12 3 -9 -6z m375 -115 c-3 -3 -12 -4
-19 -1 -8 3 -5 6 6 6 11 1 17 -2 13 -5z m44 -47 c-10 -9 -11 -8 -5 6 3 10 9
15 12 12 3 -3 0 -11 -7 -18z"/>
<path d="M5820 4939 c0 -3 6 -12 14 -18 11 -9 15 -9 19 1 4 10 8 10 16 -2 11
-15 27 -8 17 8 -7 12 -66 22 -66 11z"/>
<path d="M6285 4930 c10 -11 20 -20 23 -20 3 0 -3 9 -13 20 -10 11 -20 20 -23
20 -3 0 3 -9 13 -20z"/>
<path d="M2559 4858 c-7 -13 -37 -49 -67 -81 l-55 -57 64 -63 c68 -66 182
-199 241 -282 141 -197 338 -580 338 -654 0 -36 -26 -106 -39 -106 -6 0 -11
-3 -11 -7 0 -5 0 -12 0 -18 0 -5 17 -10 38 -11 56 -1 137 -24 135 -37 -2 -6 3
-9 11 -6 10 4 12 14 5 45 -5 22 -13 47 -18 57 -5 9 -21 53 -36 97 -36 108 -88
216 -244 509 -127 238 -230 415 -313 539 -27 39 -37 64 -33 77 9 27 -1 25 -16
-2z m11 -37 c0 -5 -7 -11 -14 -14 -10 -4 -13 -1 -9 9 6 15 23 19 23 5z"/>
<path d="M5745 4870 c27 -12 43 -12 25 0 -8 5 -22 9 -30 9 -10 0 -8 -3 5 -9z"/>
<path d="M5820 4866 c0 -11 59 -36 64 -27 3 5 -2 11 -12 14 -9 2 -25 8 -34 12
-10 4 -18 5 -18 1z"/>
<path d="M5824 4795 c-10 -8 -14 -15 -8 -15 5 0 19 7 30 15 10 8 14 15 8 15
-5 0 -19 -7 -30 -15z"/>
<path d="M3712 4775 c0 -16 2 -22 5 -12 2 9 2 23 0 30 -3 6 -5 -1 -5 -18z"/>
<path d="M6180 4779 c0 -5 5 -7 10 -4 6 3 10 8 10 11 0 2 -4 4 -10 4 -5 0 -10
-5 -10 -11z"/>
<path d="M5860 4770 c0 -5 5 -10 10 -10 6 0 10 5 10 10 0 6 -4 10 -10 10 -5 0
-10 -4 -10 -10z"/>
<path d="M5790 4759 c0 -6 9 -13 21 -16 12 -3 18 -11 15 -19 -6 -15 3 -18 28
-8 8 3 12 12 10 19 -3 8 -13 11 -22 7 -15 -5 -15 -4 -2 14 10 13 10 15 0 7 -9
-8 -19 -9 -32 -2 -12 7 -18 6 -18 -2z"/>
<path d="M5886 4755 c-3 -9 2 -13 15 -12 22 2 25 13 5 20 -8 3 -17 0 -20 -8z"/>
<path d="M6180 4741 c0 -17 18 -21 24 -6 3 9 0 15 -9 15 -8 0 -15 -4 -15 -9z"/>
<path d="M6005 4730 c-3 -5 -2 -10 4 -10 5 0 13 5 16 10 3 6 2 10 -4 10 -5 0
-13 -4 -16 -10z"/>
<path d="M5929 4717 c15 -19 41 -23 41 -7 0 6 -4 10 -9 10 -5 0 -18 3 -28 7
-16 6 -16 5 -4 -10z"/>
<path d="M6230 4671 c0 -25 6 -27 13 -6 4 8 2 17 -3 20 -6 4 -10 -3 -10 -14z"/>
<path d="M3591 4434 c0 -11 3 -14 6 -6 3 7 2 16 -1 19 -3 4 -6 -2 -5 -13z"/>
<path d="M3721 4374 c-16 -61 -7 -67 12 -10 9 25 12 48 7 51 -4 2 -13 -16 -19
-41z"/>
<path d="M3581 4384 c0 -11 3 -14 6 -6 3 7 2 16 -1 19 -3 4 -6 -2 -5 -13z"/>
<path d="M3572 4340 c0 -14 2 -19 5 -12 2 6 2 18 0 25 -3 6 -5 1 -5 -13z"/>
<path d="M3731 4300 c-7 -23 -19 -44 -27 -47 -20 -7 -18 -26 6 -53 11 -13 20
-20 20 -15 0 4 7 2 15 -5 8 -7 15 -9 15 -5 0 4 -7 13 -16 19 -9 7 -12 18 -8
29 8 23 24 22 24 -2 0 -11 4 -22 9 -26 10 -5 7 36 -6 90 -4 17 -7 33 -7 37 -2
23 -15 12 -25 -22z"/>
<path d="M3547 4243 c-10 -40 -17 -80 -16 -90 0 -10 9 18 20 61 11 44 18 85
16 90 -2 6 -11 -21 -20 -61z"/>
<path d="M3796 4192 c6 -28 4 -32 -12 -26 -18 5 -18 5 -1 -6 9 -6 17 -22 17
-35 0 -14 4 -25 9 -25 10 0 2 88 -10 110 -5 9 -6 3 -3 -18z"/>
<path d="M3685 4152 c3 -8 8 -26 11 -40 4 -15 10 -31 14 -37 4 -5 20 -50 34
-100 44 -151 49 -165 56 -165 4 0 11 -10 15 -22 7 -22 7 -22 14 4 5 22 9 25
21 17 11 -8 12 -12 3 -16 -7 -2 -13 -14 -13 -25 0 -15 4 -18 23 -12 12 3 27
11 34 16 8 6 12 2 15 -13 2 -12 10 -25 18 -27 13 -5 13 -3 0 13 -13 16 -13 18
0 12 8 -4 22 -10 32 -13 9 -3 19 -15 21 -26 7 -26 30 -19 32 10 2 24 -20 62
-36 62 -6 0 -8 -4 -5 -8 3 -5 -8 -8 -25 -8 -24 0 -29 4 -30 25 -2 33 -2 32 6
56 4 13 0 10 -11 -7 -19 -28 -34 -36 -34 -18 0 5 -10 9 -22 7 -18 -1 -24 4
-26 23 -2 13 -13 30 -23 38 -10 7 -19 20 -19 29 0 14 3 14 20 -2 18 -16 20
-16 20 -2 0 10 -4 17 -10 17 -5 0 -10 7 -10 15 0 8 -4 15 -10 15 -5 0 -7 6 -5
13 3 6 0 19 -5 27 -8 12 -11 13 -19 1 -6 -9 -11 -10 -15 -2 -4 6 -2 11 3 11 6
0 11 7 11 15 0 8 -4 15 -10 15 -5 0 -10 5 -10 11 0 6 8 8 19 4 22 -7 35 17 18
34 -16 16 -27 14 -27 -5 0 -14 -3 -14 -15 -4 -18 15 -20 34 -2 27 6 -2 21 -1
32 4 19 7 19 8 -1 8 -13 1 -24 9 -27 21 -4 15 -12 19 -36 17 -21 -1 -30 -6
-26 -15z m49 -11 c3 -5 0 -11 -7 -14 -8 -3 -14 1 -14 9 0 16 13 19 21 5z"/>
<path d="M3515 4100 c-4 -17 -5 -34 -2 -36 2 -3 7 10 11 27 8 42 0 50 -9 9z"/>
<path d="M3686 4060 c3 -14 10 -29 15 -34 14 -16 10 6 -7 34 l-15 25 7 -25z"/>
<path d="M3806 4059 c-11 -11 -17 -22 -14 -25 4 -3 16 4 27 15 11 11 17 22 13
24 -4 3 -16 -4 -26 -14z"/>
<path d="M6202 4043 c-5 -10 -12 -31 -16 -47 -10 -39 -44 -86 -63 -86 -8 0
-26 9 -40 20 -16 12 -30 17 -37 11 -6 -4 -23 -11 -37 -14 -17 -4 -31 -18 -39
-37 -17 -41 -6 -50 15 -11 8 17 20 31 26 31 8 0 7 -5 -1 -15 -10 -13 -9 -15 8
-15 14 0 20 5 16 14 -5 14 24 31 35 20 3 -4 0 -9 -6 -11 -19 -7 -15 -41 6 -52
10 -6 21 -8 23 -5 3 2 15 6 27 9 16 3 21 -1 21 -18 0 -17 3 -18 13 -9 6 7 13
35 13 63 1 37 7 54 23 68 12 11 19 25 15 34 -3 8 0 25 6 37 6 12 9 24 7 27 -3
2 -10 -4 -15 -14z m-62 -165 c0 -5 -10 -6 -22 -3 -36 11 -41 22 -8 17 16 -2
30 -9 30 -14z"/>
<path d="M3501 4034 c0 -11 3 -14 6 -6 3 7 2 16 -1 19 -3 4 -6 -2 -5 -13z"/>
<path d="M3820 4041 c0 -5 7 -12 16 -15 14 -5 15 -4 4 9 -14 17 -20 19 -20 6z"/>
<path d="M3725 3948 c4 -43 3 -48 -16 -48 -11 0 -18 -4 -14 -10 3 -5 12 -7 20
-3 9 3 15 -1 15 -10 0 -9 -9 -19 -20 -22 -11 -3 -20 -10 -20 -15 0 -4 9 -6 20
-3 15 4 20 0 20 -17 0 -18 -4 -20 -22 -14 -13 4 -28 14 -35 23 -11 14 -11 14
-7 -4 6 -22 40 -42 65 -37 14 2 16 14 12 75 -3 40 -9 86 -14 102 -7 25 -8 22
-4 -17z"/>
<path d="M3825 3960 c3 -5 8 -10 11 -10 2 0 4 5 4 10 0 6 -5 10 -11 10 -5 0
-7 -4 -4 -10z"/>
<path d="M3885 3940 c3 -5 8 -10 11 -10 2 0 4 5 4 10 0 6 -5 10 -11 10 -5 0
-7 -4 -4 -10z"/>
<path d="M3471 3904 c0 -11 3 -14 6 -6 3 7 2 16 -1 19 -3 4 -6 -2 -5 -13z"/>
<path d="M3660 3905 c-8 -9 -8 -15 -2 -15 12 0 26 19 19 26 -2 2 -10 -2 -17
-11z"/>
<path d="M5806 3904 c-5 -14 -4 -15 9 -4 17 14 19 20 6 20 -5 0 -12 -7 -15
-16z"/>
<path d="M3950 3866 c-12 -33 -13 -39 -1 -32 5 3 12 -1 15 -10 4 -10 13 -13
26 -9 14 5 20 2 20 -9 0 -9 5 -16 10 -16 7 0 7 7 0 21 -6 11 -17 18 -23 16 -7
-2 -17 3 -24 12 -20 26 -15 35 10 15 l22 -19 -20 25 c-11 14 -21 27 -22 29 -1
2 -7 -8 -13 -23z"/>
<path d="M5770 3855 c-13 -14 -19 -25 -14 -25 8 1 50 50 41 50 -2 0 -14 -11
-27 -25z"/>
<path d="M5985 3860 c-3 -11 -13 -20 -21 -20 -8 0 -14 -10 -14 -25 0 -35 -21
-75 -39 -75 -14 0 -14 -2 -1 -9 8 -6 18 -7 22 -5 21 13 5 -27 -18 -45 -15 -12
-23 -21 -18 -21 5 0 19 8 32 18 21 16 34 67 36 134 0 22 56 31 57 9 0 -14 1
-14 6 -1 3 8 10 18 16 21 5 4 6 12 3 18 -5 8 -13 8 -28 0 -13 -7 -18 -7 -14
-1 3 6 2 13 -3 16 -5 4 -12 -3 -16 -14z"/>
<path d="M3650 3860 c0 -5 5 -10 11 -10 5 0 7 5 4 10 -3 6 -8 10 -11 10 -2 0
-4 -4 -4 -10z"/>
<path d="M4196 3845 c-3 -9 0 -15 9 -15 16 0 20 16 6 24 -5 3 -11 -1 -15 -9z"/>
<path d="M6060 3834 c0 -3 7 -13 17 -22 15 -15 14 -17 -8 -23 -16 -5 -18 -7
-6 -8 9 -1 17 -5 17 -9 0 -5 7 -9 15 -9 11 0 14 6 9 16 -3 9 -7 21 -7 27 0 11
-37 39 -37 28z"/>
<path d="M4246 3803 c-6 -14 -5 -15 5 -6 7 7 10 15 7 18 -3 3 -9 -2 -12 -12z"/>
<path d="M5760 3805 c0 -8 2 -15 4 -15 2 0 6 7 10 15 3 8 1 15 -4 15 -6 0 -10
-7 -10 -15z"/>
<path d="M4250 3780 c-8 -5 -11 -12 -7 -16 4 -4 13 -2 19 4 15 15 7 24 -12 12z"/>
<path d="M3648 3773 c7 -3 16 -2 19 1 4 3 -2 6 -13 5 -11 0 -14 -3 -6 -6z"/>
<path d="M3685 3770 c4 -6 -6 -10 -22 -11 -27 0 -28 0 -5 -10 13 -5 28 -7 33
-3 13 7 11 34 -2 34 -5 0 -7 -4 -4 -10z"/>
<path d="M3606 3753 c-6 -14 -5 -15 5 -6 7 7 10 15 7 18 -3 3 -9 -2 -12 -12z"/>
<path d="M4057 3739 c3 -11 12 -23 19 -26 8 -3 14 -11 14 -18 0 -13 53 -45 74
-45 6 0 17 -9 24 -20 7 -12 17 -18 21 -15 10 6 3 45 -8 42 -11 -3 -71 25 -71
34 0 5 -12 14 -26 20 -15 5 -24 12 -20 16 7 7 -12 33 -24 33 -5 0 -6 -9 -3
-21z"/>
<path d="M4039 3728 c-1 -2 -3 -12 -4 -23 -1 -15 4 -21 17 -21 18 0 18 1 3 12
-9 7 -14 17 -10 23 3 6 4 11 1 11 -3 0 -7 -1 -7 -2z"/>
<path d="M4150 3696 c0 -2 7 -7 16 -10 8 -3 12 -2 9 4 -6 10 -25 14 -25 6z"/>
<path d="M5851 3666 c-7 -8 -18 -13 -25 -10 -6 2 -25 -9 -41 -26 -16 -16 -24
-30 -17 -30 6 0 13 4 16 9 3 5 19 8 36 7 16 -1 28 0 25 2 -2 3 5 12 15 21 13
10 17 21 12 29 -7 10 -11 10 -21 -2z m-21 -26 c0 -5 -5 -10 -11 -10 -5 0 -7 5
-4 10 3 6 8 10 11 10 2 0 4 -4 4 -10z"/>
<path d="M4220 3646 c0 -2 8 -10 18 -17 15 -13 16 -12 3 4 -13 16 -21 21 -21
13z"/>
<path d="M4453 3643 c-24 -8 -13 -20 20 -20 17 0 26 2 19 5 -6 2 -10 7 -8 11
6 8 -12 10 -31 4z"/>
<path d="M5680 3639 c0 -5 5 -7 10 -4 6 3 10 8 10 11 0 2 -4 4 -10 4 -5 0 -10
-5 -10 -11z"/>
<path d="M4510 3636 c0 -2 7 -7 16 -10 8 -3 12 -2 9 4 -6 10 -25 14 -25 6z"/>
<path d="M4499 3601 c10 -7 10 -10 1 -16 -7 -4 -16 -1 -21 6 -7 11 -9 11 -9 1
0 -19 28 -26 46 -12 12 11 12 15 2 21 -7 5 -17 9 -23 9 -5 0 -4 -4 4 -9z"/>
<path d="M4571 3594 c-1 -11 13 -33 29 -49 17 -16 30 -24 30 -18 0 5 -10 18
-21 29 -12 10 -25 28 -30 39 -8 20 -8 20 -8 -1z"/>
<path d="M4294 3585 c21 -16 32 -13 21 4 -3 6 -14 11 -23 11 -15 -1 -15 -2 2
-15z"/>
<path d="M5458 3575 c-3 -15 1 -30 10 -37 13 -11 14 -11 7 2 -5 8 -8 25 -6 38
3 30 -5 28 -11 -3z"/>
<path d="M5805 3580 c-3 -5 -1 -10 4 -10 6 0 11 5 11 10 0 6 -2 10 -4 10 -3 0
-8 -4 -11 -10z"/>
<path d="M4525 3570 c-3 -5 -1 -10 4 -10 6 0 11 5 11 10 0 6 -2 10 -4 10 -3 0
-8 -4 -11 -10z"/>
<path d="M5425 3570 c-3 -5 -1 -10 4 -10 6 0 11 5 11 10 0 6 -2 10 -4 10 -3 0
-8 -4 -11 -10z"/>
<path d="M4360 3567 c0 -3 27 -19 60 -36 33 -17 60 -28 60 -24 -1 5 -24 19
-52 33 -61 30 -68 33 -68 27z"/>
<path d="M4550 3561 c0 -6 4 -13 10 -16 6 -3 7 1 4 9 -7 18 -14 21 -14 7z"/>
<path d="M4715 3560 c-3 -6 1 -7 9 -4 18 7 21 14 7 14 -6 0 -13 -4 -16 -10z"/>
<path d="M5645 3560 c-3 -6 1 -7 9 -4 18 7 21 14 7 14 -6 0 -13 -4 -16 -10z"/>
<path d="M5525 3501 c-27 -16 -32 -16 -53 -3 -17 11 -28 12 -45 4 l-22 -11 23
0 c12 -1 22 -5 22 -11 0 -13 58 -4 86 15 13 8 24 18 24 20 0 6 0 6 -35 -14z"/>
<path d="M4550 3481 c0 -4 17 -13 38 -20 20 -7 44 -15 52 -18 8 -3 6 1 -5 9
-26 19 -85 39 -85 29z"/>
<path d="M5075 3460 c-3 -5 -1 -10 4 -10 6 0 11 5 11 10 0 6 -2 10 -4 10 -3 0
-8 -4 -11 -10z"/>
<path d="M5298 3463 c7 -3 16 -2 19 1 4 3 -2 6 -13 5 -11 0 -14 -3 -6 -6z"/>
<path d="M4873 3445 c-21 -11 -19 -12 25 -23 87 -21 230 -24 338 -8 95 15 189
46 138 46 -11 0 -34 -6 -50 -14 -30 -15 -157 -31 -229 -29 -109 3 -187 11
-197 21 -8 8 -4 10 15 7 14 -3 28 -1 31 3 7 12 -45 10 -71 -3z"/>
<path d="M5135 3440 c3 -5 11 -10 16 -10 6 0 7 5 4 10 -3 6 -11 10 -16 10 -6
0 -7 -4 -4 -10z"/>
<path d="M4780 3406 c0 -2 9 -6 20 -9 11 -3 18 -1 14 4 -5 9 -34 13 -34 5z"/>
<path d="M4930 3360 c0 -5 5 -10 11 -10 5 0 7 5 4 10 -3 6 -8 10 -11 10 -2 0
-4 -4 -4 -10z"/>
<path d="M5000 3351 c0 -5 9 -7 20 -4 11 3 20 7 20 9 0 2 -9 4 -20 4 -11 0
-20 -4 -20 -9z"/>
<path d="M5055 3350 c-4 -6 3 -10 14 -10 25 0 27 6 6 13 -8 4 -17 2 -20 -3z"/>
<path d="M5110 3336 c0 -6 9 -12 20 -12 11 0 19 5 17 10 -5 14 -37 16 -37 2z"/>
<path d="M3662 3305 c-12 -15 -22 -33 -22 -39 0 -7 -11 -27 -24 -44 -13 -18
-31 -54 -41 -80 -10 -26 -24 -54 -31 -63 -16 -18 -18 -46 -5 -51 5 -1 60 -51
123 -109 289 -270 816 -734 824 -726 2 2 -15 26 -39 53 -23 27 -58 69 -77 94
-19 25 -59 74 -90 110 -30 36 -77 95 -103 130 -26 36 -76 103 -111 150 -81
109 -307 440 -314 460 -3 8 -11 22 -18 30 -7 8 -21 37 -32 64 l-19 48 -21 -27z
m168 -372 c137 -188 274 -347 484 -562 72 -74 113 -120 91 -103 -116 89 -486
502 -610 680 -17 24 -36 52 -44 63 -8 11 -9 19 -3 19 5 0 42 -44 82 -97z"/>
<path d="M5033 3323 c9 -2 23 -2 30 0 6 3 -1 5 -18 5 -16 0 -22 -2 -12 -5z"/>
<path d="M3420 3309 c0 -5 5 -7 10 -4 6 3 10 8 10 11 0 2 -4 4 -10 4 -5 0 -10
-5 -10 -11z"/>
<path d="M3989 3202 c-22 -24 -31 -53 -20 -66 5 -6 9 -13 9 -16 0 -3 4 -23 8
-45 13 -71 54 -150 112 -215 12 -14 25 -33 28 -42 3 -10 9 -18 14 -18 5 0 18
-15 29 -33 11 -18 43 -55 71 -83 28 -27 62 -74 76 -104 56 -117 105 -189 192
-280 29 -30 61 -67 70 -83 15 -25 33 -36 72 -44 59 -11 131 48 154 128 28 92
23 120 -40 229 -18 30 -46 80 -63 110 -18 30 -41 75 -53 99 -22 48 -83 137
-102 149 -6 4 -31 31 -55 60 -51 62 -125 116 -260 189 -122 67 -127 69 -181
76 -35 5 -49 2 -61 -11z"/>
<path d="M6240 3193 c-8 -4 -20 -12 -27 -19 -14 -14 -90 -17 -98 -3 -8 12 -35
-1 -35 -16 0 -14 -50 -35 -83 -35 -11 0 -17 -3 -14 -6 14 -14 -15 -42 -60 -59
-58 -21 -75 -34 -66 -48 3 -5 1 -7 -5 -3 -5 3 -12 3 -14 -2 -1 -4 -18 -18 -35
-31 -18 -12 -36 -33 -39 -47 -3 -13 -10 -24 -14 -24 -5 0 -38 -29 -74 -65 -65
-63 -83 -94 -49 -81 15 6 14 4 -2 -14 -14 -16 -20 -17 -27 -8 -6 10 -8 10 -9
1 -3 -22 -4 -27 -22 -60 -10 -18 -15 -33 -11 -33 4 0 -5 -9 -20 -21 -17 -13
-25 -27 -21 -38 3 -9 -8 -38 -25 -64 -17 -26 -37 -63 -45 -82 -13 -34 -13 -36
12 -61 19 -19 26 -38 28 -68 1 -26 11 -55 26 -76 13 -19 24 -36 25 -38 3 -9
64 13 64 24 0 8 6 14 14 14 8 0 33 17 56 38 24 20 61 53 82 72 96 85 114 107
233 295 21 33 53 84 71 112 19 29 34 57 34 62 0 5 31 49 69 98 96 124 140 217
127 269 -6 24 -17 28 -46 17z"/>
<path d="M4906 2343 c-14 -119 -82 -207 -192 -249 -24 -9 -44 -20 -44 -24 0
-12 -55 -20 -94 -13 -19 3 -33 9 -30 14 3 5 0 9 -6 9 -20 0 -7 -15 107 -122
108 -100 224 -233 272 -311 12 -21 27 -34 33 -31 7 4 8 2 4 -4 -8 -14 44 -113
56 -106 4 3 5 -3 1 -12 -5 -13 -3 -15 7 -9 8 5 11 4 6 -3 -8 -13 14 -63 25
-56 5 3 6 -2 3 -10 -3 -9 -2 -16 3 -16 5 0 9 -8 10 -17 3 -34 36 -158 44 -167
5 -6 10 -4 13 5 61 208 110 317 203 455 78 117 199 251 297 330 102 82 110 99
31 63 -127 -57 -230 -74 -256 -42 -13 15 -12 15 8 5 12 -7 34 -12 50 -11 27 1
27 1 -5 9 -53 13 -45 16 29 12 58 -4 69 -2 69 12 0 9 -6 16 -12 16 -9 0 -8 4
2 11 12 8 8 10 -17 7 -18 -3 -30 -1 -27 4 3 4 -1 8 -9 8 -8 0 -35 16 -61 36
-51 39 -86 99 -106 184 -18 75 -25 79 -39 23 -31 -129 -124 -293 -165 -293
-15 0 -66 62 -90 110 -9 19 -36 81 -58 138 -22 56 -44 102 -48 102 -4 0 -11
-26 -14 -57z m54 -177 c0 -22 -89 -115 -131 -136 -21 -11 -50 -20 -64 -20 -32
0 -114 20 -119 29 -3 4 31 7 75 8 44 1 90 5 102 9 32 9 107 73 119 100 13 27
18 30 18 10z m170 -402 c-3 -340 -8 -445 -20 -479 l-10 -30 5 33 c3 20 1 31
-5 27 -6 -3 -9 5 -8 19 1 15 6 26 10 26 5 0 7 35 5 78 -4 80 -26 156 -78 270
-16 34 -29 66 -29 71 0 5 -16 30 -35 55 -40 53 -48 76 -10 31 37 -44 135 -246
135 -277 0 -15 3 -29 8 -31 4 -3 7 26 7 63 0 38 -3 72 -7 76 -5 4 -8 12 -8 18
0 6 4 5 9 -3 5 -8 8 41 8 120 -1 74 -5 137 -10 140 -5 4 -3 16 4 27 8 12 17
18 22 13 5 -5 8 -116 7 -247z"/>
<path d="M5749 2221 c-13 -11 -21 -22 -18 -25 3 -3 16 5 29 19 28 30 22 33
-11 6z"/>
<path d="M4638 2073 c7 -3 16 -2 19 1 4 3 -2 6 -13 5 -11 0 -14 -3 -6 -6z"/>
<path d="M5583 2073 c15 -2 37 -2 50 0 12 2 0 4 -28 4 -27 0 -38 -2 -22 -4z"/>
</g>
</svg>
