<?xml version="1.0" standalone="no"?>
<!DOCTYPE svg PUBLIC "-//W3C//DTD SVG 20010904//EN"
 "http://www.w3.org/TR/2001/REC-SVG-20010904/DTD/svg10.dtd">
<svg version="1.0" xmlns="http://www.w3.org/2000/svg"
 width="1024.000000pt" height="1024.000000pt" viewBox="0 0 1024.000000 1024.000000"
 preserveAspectRatio="xMidYMid meet">

<g transform="translate(0.000000,1024.000000) scale(0.100000,-0.100000)"
fill="#000000" stroke="none">
<path d="M5126 9170 c2 -52 7 -296 10 -543 6 -398 5 -447 -9 -442 -11 5 -31
-18 -71 -79 -57 -87 -72 -103 -58 -65 11 30 -4 132 -29 204 -42 117 -111 201
-185 225 -37 13 -244 5 -244 -8 0 -4 27 -8 61 -10 33 -1 76 -9 96 -17 43 -18
46 -18 37 -3 -5 7 -3 8 5 4 7 -5 10 -10 7 -13 -3 -3 20 -33 52 -67 31 -34 66
-80 76 -103 10 -24 23 -40 29 -36 6 3 7 1 3 -5 -3 -6 2 -37 13 -68 11 -33 20
-50 22 -39 2 10 5 -23 7 -73 1 -50 6 -101 11 -113 7 -21 12 -16 45 52 35 72
103 159 124 159 17 0 63 -65 98 -138 20 -42 40 -72 47 -69 8 2 13 32 14 87 3
159 78 323 181 393 59 41 107 56 187 57 l70 2 -50 14 c-27 8 -83 16 -122 18
-60 4 -80 10 -117 35 -62 43 -119 113 -165 201 -40 77 -102 269 -120 375 -29
161 -30 165 -25 65z m-159 -1172 c-3 -8 -6 -5 -6 6 -1 11 2 17 5 13 3 -3 4
-12 1 -19z"/>
<path d="M5150 9215 c0 -5 5 -17 10 -25 5 -8 10 -10 10 -5 0 6 -5 17 -10 25
-5 8 -10 11 -10 5z"/>
<path d="M5171 9165 c0 -5 15 -39 34 -75 19 -36 34 -60 34 -55 0 6 -15 39 -34
75 -19 36 -34 61 -34 55z"/>
<path d="M5150 9149 c0 -24 58 -226 86 -302 30 -77 110 -205 157 -249 40 -38
143 -88 180 -88 15 0 27 3 27 6 0 4 -31 39 -69 79 -82 87 -139 158 -196 245
-51 78 -145 241 -145 252 0 4 -9 22 -20 40 -11 18 -20 26 -20 17z"/>
<path d="M5072 9040 c0 -14 2 -19 5 -12 2 6 2 18 0 25 -3 6 -5 1 -5 -13z"/>
<path d="M5258 8985 c11 -22 28 -49 37 -60 9 -11 5 3 -10 30 -34 61 -55 85
-27 30z"/>
<path d="M5061 8994 c0 -11 3 -14 6 -6 3 7 2 16 -1 19 -3 4 -6 -2 -5 -13z"/>
<path d="M5318 8885 c14 -27 101 -145 107 -145 4 0 -100 149 -112 160 -3 3 -1
-4 5 -15z"/>
<path d="M4976 8773 c-6 -14 -5 -15 5 -6 7 7 10 15 7 18 -3 3 -9 -2 -12 -12z"/>
<path d="M4929 8703 c-44 -67 -86 -109 -141 -145 -27 -16 -48 -32 -48 -34 0
-13 81 40 119 78 49 49 121 148 107 148 -3 0 -19 -21 -37 -47z"/>
<path d="M5430 8726 c0 -2 8 -10 18 -17 15 -13 16 -12 3 4 -13 16 -21 21 -21
13z"/>
<path d="M4680 8603 l-55 -58 58 55 c53 50 62 60 54 60 -1 0 -27 -26 -57 -57z"/>
<path d="M5535 8610 c27 -27 51 -50 54 -50 3 0 -17 23 -44 50 -27 28 -51 50
-54 50 -3 0 17 -22 44 -50z"/>
<path d="M5610 8546 c0 -2 8 -10 18 -17 15 -13 16 -12 3 4 -13 16 -21 21 -21
13z"/>
<path d="M5544 8335 c22 -34 32 -47 204 -250 119 -141 481 -519 482 -503 0 4
-35 49 -78 100 -42 51 -104 126 -137 167 -122 151 -405 455 -460 494 l-30 22
19 -30z"/>
<path d="M4425 8321 c-3 -6 -11 -8 -17 -5 -7 4 -8 2 -4 -4 4 -6 -51 -71 -131
-154 -245 -254 -434 -474 -503 -585 -13 -22 -44 -55 -69 -74 -24 -18 -77 -70
-117 -114 -40 -44 -94 -102 -119 -130 -33 -36 -70 -99 -130 -225 -162 -337
-268 -530 -438 -800 -122 -194 -249 -380 -298 -437 l-27 -32 -28 37 -27 37 26
-24 26 -23 158 238 c189 286 303 476 409 682 75 145 79 155 79 218 0 58 -3 68
-25 86 -30 24 -88 21 -165 -11 -47 -19 -48 -20 -18 -20 40 -1 83 -49 83 -92 0
-18 4 -28 10 -24 31 19 -19 -106 -105 -267 -127 -237 -404 -622 -434 -604 -4
3 -19 -7 -32 -22 l-24 -27 30 25 c27 22 27 21 -4 -13 -34 -36 -66 -53 -40 -20
11 13 8 13 -13 -2 -15 -11 -27 -24 -28 -30 0 -5 23 -36 50 -69 28 -32 65 -79
82 -105 18 -25 40 -54 49 -64 17 -18 18 -18 30 5 6 12 58 97 114 188 55 91
164 271 242 400 225 377 418 690 469 759 28 39 43 66 36 69 -7 2 -12 12 -12
22 0 10 -4 22 -10 25 -25 15 -7 22 19 7 16 -9 29 -19 28 -22 0 -3 20 -27 46
-55 118 -126 207 -427 207 -705 0 -62 3 -81 11 -70 7 11 8 4 3 -25 -7 -42 -15
-208 -14 -284 0 -53 -35 -134 -79 -177 -38 -39 -86 -62 -171 -86 l-65 -18 70
4 c121 5 214 65 264 170 76 156 63 710 -22 937 -13 35 -28 73 -32 84 -6 15 -3
14 11 -5 10 -13 33 -67 50 -120 28 -84 34 -95 54 -94 13 1 35 -11 51 -27 l29
-29 6 27 c7 25 8 25 15 7 10 -27 38 -261 48 -399 7 -87 8 -97 10 -45 1 85 -23
351 -44 469 -24 141 -61 249 -96 281 -16 14 -90 57 -164 95 -74 38 -135 73
-135 77 0 5 9 6 21 3 45 -15 179 -21 264 -13 373 37 787 221 1026 458 136 134
188 230 195 360 l4 75 -24 -70 c-14 -38 -22 -74 -19 -79 4 -5 1 -6 -7 -1 -10
6 -12 4 -7 -9 4 -10 3 -15 -3 -11 -6 3 -10 3 -11 -2 0 -4 -2 -17 -3 -29 -3
-27 -45 -86 -56 -79 -5 3 -12 0 -16 -6 -4 -8 -3 -9 4 -5 23 14 12 -7 -25 -48
-169 -190 -522 -386 -851 -471 -163 -43 -504 -53 -568 -17 -15 8 -6 10 41 7
51 -4 54 -3 18 4 -47 8 -64 18 -42 25 8 2 35 11 61 21 26 9 66 15 89 13 l41
-3 77 150 c86 171 142 254 389 583 200 268 246 332 239 339 -3 2 -8 -1 -12 -6z
m-681 -813 c-4 -6 -11 -25 -15 -42 l-7 -31 -1 31 c-1 16 4 35 11 42 15 15 21
15 12 0z m16 -582 c0 -12 -5 -7 -19 24 -11 24 -11 24 3 6 9 -11 16 -24 16 -30z
m57 -753 c-3 -10 -5 -2 -5 17 0 19 2 27 5 18 2 -10 2 -26 0 -35z"/>
<path d="M4548 8218 c-58 -62 -141 -153 -183 -203 -105 -122 -348 -435 -343
-440 9 -10 359 375 469 515 148 188 185 240 172 240 -5 0 -56 -51 -115 -112z"/>
<path d="M5790 8319 c0 -7 24 -44 53 -83 30 -39 105 -141 168 -226 291 -393
313 -426 390 -584 75 -151 76 -152 190 -161 104 -7 129 -12 129 -25 0 -14 -35
-21 -134 -30 l-91 -9 100 4 c94 3 98 3 66 -11 -72 -30 -435 -11 -591 32 -107
30 -150 46 -145 54 3 4 -3 6 -13 4 -22 -6 -158 51 -155 65 2 6 -3 8 -11 5 -18
-7 -98 34 -91 46 3 5 0 8 -7 5 -16 -6 -110 59 -100 70 4 5 2 5 -4 2 -14 -8
-85 40 -81 55 1 7 -4 12 -11 13 -16 0 -82 54 -79 64 1 5 -22 39 -52 76 -77 96
-124 182 -162 292 -41 118 -56 100 -29 -34 49 -244 259 -479 566 -634 259
-130 651 -209 823 -165 35 9 66 14 68 12 3 -2 -55 -34 -129 -71 -73 -37 -147
-75 -164 -86 -57 -35 -135 -218 -154 -361 -5 -40 -14 -176 -20 -302 -6 -126
-13 -233 -16 -238 -4 -5 -8 -24 -10 -41 -2 -18 -7 -54 -10 -82 -9 -72 7 -48
51 80 169 489 254 690 374 890 67 112 175 239 211 248 24 6 26 -5 5 -23 -8 -7
-15 -21 -15 -31 0 -11 -4 -19 -10 -19 -11 0 25 -78 65 -140 53 -84 72 -115
200 -322 73 -120 132 -205 138 -201 6 3 7 1 3 -6 -4 -6 26 -66 70 -139 171
-284 358 -599 382 -646 l15 -29 19 24 c11 13 40 49 66 79 87 101 119 145 115
156 -2 7 -27 31 -56 54 l-52 43 50 -54 50 -54 -63 60 c-57 55 -80 87 -49 69 6
-4 1 5 -12 19 -30 33 -42 36 -15 5 10 -13 -1 -5 -24 17 -43 40 -60 73 -19 39
l22 -19 -19 22 c-10 12 -23 21 -30 20 -6 -1 -10 6 -10 16 1 10 -1 16 -4 13 -7
-7 -42 24 -42 37 0 5 8 3 18 -4 15 -13 16 -12 3 3 -7 10 -17 16 -21 13 -17
-10 -220 305 -224 348 -4 34 -26 68 -38 61 -6 -4 -8 -3 -4 4 8 13 -44 123 -56
116 -4 -3 -5 3 -1 12 5 13 3 15 -7 9 -8 -5 -11 -4 -6 3 4 6 0 28 -9 48 -36 88
-4 176 71 190 29 5 33 9 22 21 -12 15 -68 47 -68 39 0 -3 14 -13 31 -21 49
-26 28 -28 -35 -4 -55 21 -59 22 -86 6 -32 -19 -40 -21 -40 -8 0 5 10 13 22
17 18 5 12 10 -39 29 -33 13 -75 31 -94 40 -34 18 -34 18 -16 -3 14 -15 15
-21 5 -24 -9 -3 -5 -21 16 -69 33 -74 49 -96 44 -59 -2 14 -7 31 -12 38 -6 10
-2 13 15 10 23 -3 24 -8 29 -86 5 -78 10 -90 78 -225 113 -225 345 -606 470
-771 55 -73 94 -145 85 -159 -3 -5 -13 3 -21 18 -8 16 -36 56 -61 89 -176 228
-401 606 -607 1021 -174 351 -171 346 -367 567 -54 62 -61 66 -73 50 -7 -9
-10 -28 -8 -42 5 -20 3 -22 -5 -10 -6 8 -11 25 -11 38 0 13 -15 46 -33 75 -39
60 -246 306 -356 422 -203 215 -306 328 -303 336 1 5 -2 9 -8 9 -5 0 -10 -5
-10 -11z m1250 -1279 c0 -5 -7 -7 -15 -4 -8 4 -15 8 -15 10 0 2 7 4 15 4 8 0
15 -4 15 -10z m-712 -285 c-6 -14 -13 -23 -15 -21 -5 5 15 46 22 46 3 0 -1
-11 -7 -25z m881 -95 c11 -24 11 -24 -3 -6 -9 11 -16 24 -16 30 0 12 5 7 19
-24z m49 -95 c-3 -3 -9 2 -12 12 -6 14 -5 15 5 6 7 -7 10 -15 7 -18z"/>
<path d="M5083 8275 c0 -22 2 -30 4 -17 2 12 2 30 0 40 -3 9 -5 -1 -4 -23z"/>
<path d="M4359 8283 c-13 -16 -12 -17 4 -4 16 13 21 21 13 21 -2 0 -10 -8 -17
-17z"/>
<path d="M5855 8280 c10 -11 20 -20 23 -20 3 0 -3 9 -13 20 -10 11 -20 20 -23
20 -3 0 3 -9 13 -20z"/>
<path d="M4269 8203 l-24 -28 28 24 c25 23 32 31 24 31 -2 0 -14 -12 -28 -27z"/>
<path d="M5011 8174 c0 -11 3 -14 6 -6 3 7 2 16 -1 19 -3 4 -6 -2 -5 -13z"/>
<path d="M5028 8155 c-17 -22 -26 -97 -11 -81 7 6 33 99 30 103 -1 0 -10 -9
-19 -22z"/>
<path d="M6000 8155 c13 -14 26 -25 28 -25 3 0 -5 11 -18 25 -13 14 -26 25
-28 25 -3 0 5 -11 18 -25z"/>
<path d="M4194 8138 l-19 -23 23 19 c21 18 27 26 19 26 -2 0 -12 -10 -23 -22z"/>
<path d="M6040 8127 c0 -2 15 -16 33 -33 l32 -29 -29 33 c-28 30 -36 37 -36
29z"/>
<path d="M4109 8063 c-13 -16 -12 -17 4 -4 9 7 17 15 17 17 0 8 -8 3 -21 -13z"/>
<path d="M6215 7970 c10 -11 20 -20 23 -20 3 0 -3 9 -13 20 -10 11 -20 20 -23
20 -3 0 3 -9 13 -20z"/>
<path d="M5135 7760 c13 -181 48 -271 141 -360 l58 -55 -53 59 c-28 32 -60 75
-71 95 -25 50 -52 147 -47 169 3 12 5 11 6 -6 1 -14 5 -20 12 -16 6 3 24 -6
40 -22 16 -15 29 -22 29 -15 0 7 5 9 11 5 6 -3 4 8 -5 24 -9 17 -20 34 -26 37
-6 3 -18 23 -28 43 -11 20 -31 60 -46 87 l-28 50 7 -95z"/>
<path d="M5181 7614 c0 -11 3 -14 6 -6 3 7 2 16 -1 19 -3 4 -6 -2 -5 -13z"/>
<path d="M6702 7510 c-25 -39 -27 -65 -9 -96 27 -47 140 -176 189 -214 50 -40
146 -95 153 -88 2 2 -16 17 -40 33 -25 17 -45 34 -45 38 0 10 -26 37 -35 37
-3 0 -3 -4 0 -10 10 -16 -8 -11 -34 9 -14 10 -25 28 -26 40 -2 20 -1 20 18 4
20 -18 20 -18 1 15 -10 18 -30 43 -43 55 l-25 22 18 -28 c10 -16 15 -34 13
-42 -3 -7 -2 -17 1 -22 4 -5 -4 4 -17 20 -23 27 -35 77 -19 77 4 0 -4 22 -19
49 -15 27 -31 47 -35 45 -4 -3 -10 12 -13 33 -4 21 -8 43 -9 48 -2 6 -13 -6
-24 -25z"/>
<path d="M3515 7494 c14 -54 14 -77 -2 -103 l-15 -26 21 25 c12 14 24 36 27
49 8 29 -6 73 -25 79 -11 4 -12 -2 -6 -24z"/>
<path d="M3390 7251 c-58 -60 -94 -101 -80 -91 31 23 200 200 189 200 -2 0
-51 -49 -109 -109z"/>
<path d="M3329 7303 c-13 -16 -12 -17 4 -4 9 7 17 15 17 17 0 8 -8 3 -21 -13z"/>
<path d="M6915 7280 c10 -11 20 -20 23 -20 3 0 -3 9 -13 20 -10 11 -20 20 -23
20 -3 0 3 -9 13 -20z"/>
<path d="M4915 7225 c-240 -47 -498 -189 -605 -333 -72 -96 -110 -244 -90
-349 28 -155 143 -335 284 -446 22 -17 3 6 -42 52 -45 46 -81 89 -79 95 2 6 1
23 -4 38 -4 16 -2 33 5 45 7 10 16 31 20 46 4 17 11 25 18 21 8 -5 9 -1 3 12
-19 46 -35 109 -34 133 1 17 4 12 10 -17 20 -104 121 -237 258 -341 114 -86
176 -126 453 -294 541 -328 777 -481 1063 -692 220 -162 268 -190 353 -208
l57 -11 -63 -8 c-84 -9 -214 -53 -245 -82 -41 -38 -61 -133 -76 -372 -10 -153
1 -477 19 -558 21 -93 49 -143 98 -176 46 -30 72 -33 36 -4 -18 15 -17 15 16
11 19 -3 43 -8 53 -12 11 -5 17 -2 17 8 0 8 7 18 16 21 14 5 14 9 1 33 -15 28
-56 192 -78 308 -6 33 -12 159 -14 280 l-3 220 8 -200 c12 -304 44 -459 132
-627 49 -94 169 -215 244 -244 26 -11 77 -33 113 -51 l66 -32 15 21 c8 12 30
67 48 122 59 183 272 593 480 927 131 211 172 282 172 301 0 26 15 22 28 -7
15 -33 17 -27 -23 -75 -19 -23 -72 -101 -117 -173 -243 -392 -456 -807 -512
-996 -19 -66 -20 -77 -3 -64 14 12 118 33 159 33 15 0 28 3 28 8 0 4 19 6 43
5 41 -2 41 -2 9 6 -45 12 -80 47 -88 87 -9 50 27 144 140 369 148 294 316 533
430 616 25 18 46 39 46 47 0 9 -22 41 -49 72 -27 31 -67 91 -87 133 -21 43
-41 77 -44 77 -3 0 -11 -15 -19 -32 -22 -52 -132 -272 -143 -285 -5 -7 -6 -18
-2 -24 4 -7 3 -9 -3 -6 -13 8 -56 -70 -47 -85 5 -7 3 -8 -6 -3 -10 6 -12 4 -7
-8 3 -9 2 -16 -3 -14 -6 1 -28 -31 -50 -71 -22 -40 -35 -70 -30 -67 19 12 10
-13 -29 -80 -40 -69 -59 -93 -48 -62 9 24 0 21 -14 -4 -8 -15 -8 -19 0 -15 18
11 13 -20 -6 -35 -9 -8 -17 -12 -19 -9 -1 3 -6 1 -11 -4 -5 -5 -3 -6 5 -2 6 4
12 3 12 -2 0 -16 -118 -197 -128 -197 -6 0 -14 -4 -19 -9 -5 -5 -2 -6 6 -1 9
5 12 3 9 -6 -3 -8 -10 -14 -16 -14 -5 0 -14 -4 -19 -9 -5 -5 -3 -6 5 -2 6 4
12 5 12 1 0 -11 -65 -105 -73 -105 -4 0 3 15 16 33 28 38 45 67 30 52 -6 -5
-42 -53 -81 -105 -39 -52 -95 -120 -124 -151 -64 -69 -74 -68 -147 21 -89 107
-151 255 -188 451 -26 139 -25 487 1 584 32 118 92 213 148 231 10 3 18 9 18
13 0 11 -23 31 -34 31 -6 0 -4 -5 4 -10 13 -9 13 -10 0 -10 -25 0 -102 39 -96
49 3 5 -1 12 -10 15 -9 4 -13 2 -8 -5 4 -8 0 -7 -15 0 -11 7 -21 16 -21 22 0
5 -12 15 -27 22 -16 6 -34 19 -41 27 -8 9 -11 10 -7 2 6 -11 3 -12 -13 -3 -12
6 -24 17 -28 24 -5 7 0 6 12 -3 17 -14 18 -14 6 2 -8 9 -19 15 -27 12 -7 -3
-25 10 -41 29 -32 39 -108 104 -84 72 8 -11 -10 0 -40 24 -30 23 -55 47 -55
52 0 5 -4 9 -10 10 -23 2 -45 21 -39 32 4 7 4 9 -1 5 -11 -11 -47 11 -39 24 4
6 3 8 -4 4 -6 -3 -19 5 -30 19 -11 13 -22 22 -25 19 -7 -7 -97 56 -97 68 0 4
-3 7 -7 7 -20 -3 -34 2 -28 11 3 5 0 8 -7 5 -7 -2 -44 16 -83 40 -38 24 -185
112 -325 196 -347 208 -424 254 -504 303 -103 64 -226 157 -220 168 3 4 2 8
-3 7 -16 -4 -43 13 -36 24 3 5 2 7 -4 4 -5 -3 -27 13 -49 35 -21 23 -30 36
-19 28 11 -8 3 4 -17 27 -64 72 -89 134 -89 217 0 250 269 436 631 436 214 0
391 -61 571 -197 212 -161 344 -395 393 -698 l13 -80 8 59 c17 131 -10 267
-82 410 -126 251 -336 433 -607 528 -45 15 -73 28 -64 28 50 0 228 -79 329
-145 134 -90 264 -232 344 -377 20 -38 41 -68 45 -68 5 0 13 -19 19 -42 9 -37
10 -30 6 45 -11 187 -122 399 -275 520 -96 77 -284 169 -416 203 -123 33 -355
42 -469 19z m388 -152 c-7 -2 -19 -2 -25 0 -7 3 -2 5 12 5 14 0 19 -2 13 -5z
m1074 -2410 c-3 -10 -5 -4 -5 12 0 17 2 24 5 18 2 -7 2 -21 0 -30z m962 -194
c-16 -34 -32 -59 -35 -57 -4 5 55 118 62 118 2 0 -10 -27 -27 -61z"/>
<path d="M3948 7193 c7 -3 16 -2 19 1 4 3 -2 6 -13 5 -11 0 -14 -3 -6 -6z"/>
<path d="M7015 7180 c10 -11 20 -20 23 -20 3 0 -3 9 -13 20 -10 11 -20 20 -23
20 -3 0 3 -9 13 -20z"/>
<path d="M3653 7183 c9 -2 25 -2 35 0 9 3 1 5 -18 5 -19 0 -27 -2 -17 -5z"/>
<path d="M3888 7183 c7 -3 16 -2 19 1 4 3 -2 6 -13 5 -11 0 -14 -3 -6 -6z"/>
<path d="M3169 7143 c-13 -16 -12 -17 4 -4 9 7 17 15 17 17 0 8 -8 3 -21 -13z"/>
<path d="M3306 7101 c-3 -4 -33 -19 -66 -31 -33 -12 -57 -27 -54 -32 3 -5 9
-6 12 -3 4 4 18 -19 33 -50 l26 -57 17 41 c9 23 16 49 16 59 0 9 9 32 20 50
11 17 16 32 10 32 -5 0 -11 -4 -14 -9z"/>
<path d="M6038 6973 c6 -2 18 -2 25 0 6 3 1 5 -13 5 -14 0 -19 -2 -12 -5z"/>
<path d="M3081 6824 c0 -11 3 -14 6 -6 3 7 2 16 -1 19 -3 4 -6 -2 -5 -13z"/>
<path d="M3045 6739 c-4 -6 -5 -12 -2 -15 2 -3 7 2 10 11 7 17 1 20 -8 4z"/>
<path d="M3020 6689 c-7 -11 -10 -23 -7 -25 2 -2 9 7 15 21 14 30 7 33 -8 4z"/>
<path d="M2955 6569 c-4 -6 -5 -12 -2 -15 2 -3 7 2 10 11 7 17 1 20 -8 4z"/>
<path d="M7286 6528 c31 -55 97 -158 101 -158 3 0 -1 10 -9 23 -8 12 -32 50
-53 85 -21 34 -40 62 -42 62 -2 0 -1 -6 3 -12z"/>
<path d="M2860 6410 c-6 -11 -8 -20 -6 -20 3 0 10 9 16 20 6 11 8 20 6 20 -3
0 -10 -9 -16 -20z"/>
<path d="M7399 6345 c5 -11 17 -29 26 -40 l16 -20 -10 20 c-5 11 -17 29 -26
40 l-16 20 10 -20z"/>
<path d="M2330 6233 c-41 -109 -80 -282 -80 -352 0 -159 72 -301 199 -389 125
-88 307 -152 429 -152 68 0 64 8 -9 15 -60 6 -165 33 -134 34 16 1 14 6 -15
31 -19 16 -39 29 -44 30 -9 0 -66 61 -66 71 0 4 -18 18 -39 32 -21 14 -49 41
-62 59 l-22 33 34 -30 34 -30 -34 37 c-19 20 -38 36 -44 35 -5 -1 -11 5 -12
13 -1 9 -16 36 -34 61 -78 116 -107 251 -91 416 6 59 13 116 16 126 3 9 3 17
0 17 -2 0 -14 -26 -26 -57z"/>
<path d="M7911 6251 c12 -21 32 -52 45 -67 14 -16 6 1 -17 39 -44 72 -64 92
-28 28z"/>
<path d="M7460 6250 c11 -16 26 -33 32 -36 7 -4 -1 9 -16 29 -34 44 -46 50
-16 7z"/>
<path d="M7888 6140 c4 -122 -2 -190 -23 -255 -6 -16 -5 -17 4 -5 9 13 11 13
11 -3 0 -46 -102 -211 -162 -262 -18 -15 -32 -30 -30 -31 1 -2 0 -3 -2 -1 -5
3 -56 -60 -56 -71 0 -5 -7 -15 -15 -22 -11 -9 -15 -9 -15 -1 0 8 -4 8 -14 -1
-8 -7 -12 -16 -10 -19 2 -4 -10 -9 -28 -13 -17 -3 -28 -9 -25 -12 13 -13 -14
-42 -45 -48 -23 -5 -29 -9 -19 -15 8 -5 -10 -11 -50 -15 -35 -4 -80 -11 -99
-16 l-35 -8 32 -1 c50 -2 183 18 238 36 139 44 291 148 362 248 57 82 78 150
77 255 0 86 -15 149 -77 325 l-25 70 6 -135z m19 -122 c-2 -13 -4 -5 -4 17 -1
22 1 32 4 23 2 -10 2 -28 0 -40z m-6 -64 c-5 -16 -10 -21 -10 -12 -1 18 10 51
15 45 2 -1 -1 -16 -5 -33z m-384 -570 c-3 -3 -12 -4 -19 -1 -8 3 -5 6 6 6 11
1 17 -2 13 -5z"/>
<path d="M2294 6228 c-4 -7 -14 -24 -22 -38 -14 -24 -13 -24 3 -5 20 24 37 55
31 55 -3 0 -8 -6 -12 -12z"/>
<path d="M2689 6163 c-13 -16 -12 -17 4 -4 9 7 17 15 17 17 0 8 -8 3 -21 -13z"/>
<path d="M7960 6143 c0 -6 9 -33 20 -59 30 -70 97 -291 115 -382 9 -44 25
-142 35 -218 18 -138 18 -139 20 -64 1 54 4 68 10 50 4 -14 8 -21 9 -16 1 5 7
3 15 -3 10 -9 16 -8 26 4 7 8 23 15 36 15 13 0 24 5 24 11 0 6 -7 9 -15 5 -8
-3 -15 -2 -15 3 0 17 13 19 34 7 76 -49 89 -12 17 49 -26 22 -71 72 -100 110
l-54 70 79 -81 c155 -161 455 -321 564 -302 20 4 17 6 -17 13 -24 4 -53 17
-67 29 -13 11 -32 26 -42 33 -11 7 -1 5 21 -3 22 -9 36 -12 30 -7 -19 18 -155
113 -161 113 -3 0 -16 9 -28 19 -11 11 -55 47 -96 79 -132 106 -344 345 -430
487 -16 28 -30 45 -30 38z m250 -655 c0 -12 -14 -10 -28 4 -19 19 -14 29 8 16
11 -7 20 -16 20 -20z"/>
<path d="M8000 6116 c0 -2 8 -10 18 -17 15 -13 16 -12 3 4 -13 16 -21 21 -21
13z"/>
<path d="M2229 6068 c-24 -46 -135 -185 -197 -248 -35 -36 -70 -77 -78 -92
-15 -28 -7 -37 13 -17 16 16 44 4 37 -15 -3 -9 -18 -14 -35 -14 -37 1 -46 -7
-29 -27 10 -12 10 -19 2 -27 -16 -16 -15 -31 1 -22 6 4 3 -2 -7 -14 -21 -24
-32 -29 -20 -10 5 8 2 9 -10 5 -10 -4 -20 -7 -22 -7 -2 0 -4 -7 -4 -15 0 -8
-6 -12 -15 -9 -9 4 -16 -3 -20 -19 -9 -36 -81 -82 -182 -118 -48 -17 -108 -38
-133 -47 -25 -9 -38 -18 -29 -20 18 -3 197 56 250 83 81 42 184 123 279 221
56 57 99 96 96 87 -15 -49 -25 -117 -30 -198 -5 -84 -4 -86 4 -25 24 168 33
209 80 357 28 87 55 170 60 186 10 33 5 35 -11 5z m-114 -253 c-15 -20 -29
-34 -32 -31 -3 2 7 21 22 41 15 19 30 33 33 31 3 -3 -8 -22 -23 -41z m-50 -65
c-18 -20 -35 -26 -35 -12 0 4 10 12 23 18 32 16 32 16 12 -6z m-85 -120 c-6
-11 -13 -20 -16 -20 -2 0 0 9 6 20 6 11 13 20 16 20 2 0 0 -9 -6 -20z"/>
<path d="M4033 6040 c0 -25 2 -35 4 -22 2 12 2 32 0 45 -2 12 -4 2 -4 -23z"/>
<path d="M8050 6050 c12 -16 24 -30 26 -30 3 0 -4 14 -16 30 -12 17 -24 30
-26 30 -3 0 4 -13 16 -30z"/>
<path d="M2594 6048 l-19 -23 23 19 c21 18 27 26 19 26 -2 0 -12 -10 -23 -22z"/>
<path d="M2149 6013 c-13 -16 -12 -17 4 -4 9 7 17 15 17 17 0 8 -8 3 -21 -13z"/>
<path d="M8140 5936 c0 -2 8 -10 18 -17 15 -13 16 -12 3 4 -13 16 -21 21 -21
13z"/>
<path d="M8220 5845 c13 -14 26 -25 28 -25 3 0 -5 11 -18 25 -13 14 -26 25
-28 25 -3 0 5 -11 18 -25z"/>
<path d="M3955 5744 c-70 -64 -139 -129 -152 -145 -29 -34 -50 -36 -102 -9
-21 10 -96 42 -167 69 -71 28 -137 56 -147 62 -11 6 -21 8 -23 6 -3 -3 37 -36
88 -75 87 -65 170 -145 247 -237 18 -22 30 -32 27 -22 -7 24 1 21 15 -4 8 -15
8 -19 0 -15 -6 4 -11 5 -11 1 0 -8 44 -75 50 -75 3 0 20 23 39 51 19 28 53 66
75 85 57 49 188 124 217 124 38 0 229 -111 737 -427 317 -197 599 -400 686
-493 69 -75 102 -131 139 -235 24 -66 30 -104 37 -224 5 -89 4 -157 -2 -180
-20 -72 -74 -156 -148 -231 -65 -64 -89 -81 -173 -118 -53 -24 -130 -50 -170
-59 -99 -21 -299 -20 -402 1 -183 39 -368 125 -502 234 -62 50 -213 229 -267
316 -108 176 -193 396 -277 716 -37 143 -37 144 -38 85 -2 -128 20 -504 34
-585 26 -154 115 -377 182 -455 l25 -30 -27 45 c-36 61 -81 157 -93 202 -8 31
-7 38 6 43 13 5 14 8 3 14 -18 11 -6 61 14 61 20 0 20 -2 -25 136 -35 109 -71
244 -69 262 0 4 22 -60 50 -143 135 -412 321 -652 640 -828 158 -88 408 -144
593 -133 223 12 401 83 537 213 133 127 186 270 176 468 -14 251 -128 440
-380 629 -207 154 -840 555 -1149 727 -53 29 -95 55 -93 57 15 15 688 -392
1040 -629 233 -156 341 -243 419 -334 93 -110 162 -271 182 -423 4 -33 10 -49
15 -41 5 9 10 5 14 -13 6 -22 32 -46 40 -36 1 2 7 12 13 23 6 11 12 14 12 8 0
-7 4 -13 9 -13 6 0 12 19 14 43 3 23 3 -14 2 -83 -2 -69 -6 -136 -9 -150 -3
-14 2 -5 11 20 24 67 24 301 -1 395 -57 217 -185 391 -406 554 -240 178 -1181
779 -1411 902 -13 6 -45 -17 -144 -107z m-186 -231 c1 -27 5 -72 10 -101 4
-29 5 -50 1 -45 -5 4 -14 50 -22 101 -11 68 -11 92 -3 92 7 0 13 -19 14 -47z
m11 -179 c0 -8 -5 -12 -10 -9 -6 4 -8 11 -5 16 9 14 15 11 15 -7z"/>
<path d="M7851 5852 c-1 -17 -73 -137 -107 -179 -15 -18 -24 -33 -20 -33 9 0
95 119 118 163 10 21 17 44 14 50 -3 8 -5 8 -5 -1z"/>
<path d="M1939 5773 c-13 -16 -12 -17 4 -4 9 7 17 15 17 17 0 8 -8 3 -21 -13z"/>
<path d="M3418 5723 c12 -2 32 -2 45 0 12 2 2 4 -23 4 -25 0 -35 -2 -22 -4z"/>
<path d="M6719 5652 c-63 -42 -153 -106 -198 -142 -46 -36 -90 -69 -97 -75
-10 -7 -21 -6 -35 3 -27 17 -291 108 -349 121 l-45 9 40 -31 c22 -18 114 -105
204 -194 127 -126 167 -160 177 -152 8 6 39 50 70 97 101 153 166 235 268 340
55 56 96 102 90 101 -5 0 -61 -35 -125 -77z m-303 -266 c-3 -11 -6 -45 -6 -75
0 -75 -6 -61 -13 31 -5 66 -3 76 10 71 9 -4 13 -13 9 -27z"/>
<path d="M2085 5679 c-4 -6 -5 -12 -2 -15 2 -3 7 2 10 11 7 17 1 20 -8 4z"/>
<path d="M6605 5650 c-44 -16 -75 -29 -69 -29 12 -1 155 46 162 54 10 10 -13
3 -93 -25z"/>
<path d="M8400 5666 c0 -2 8 -10 18 -17 15 -13 16 -12 3 4 -13 16 -21 21 -21
13z"/>
<path d="M7684 5618 l-19 -23 23 19 c21 18 27 26 19 26 -2 0 -12 -10 -23 -22z"/>
<path d="M8450 5626 c0 -2 8 -10 18 -17 15 -13 16 -12 3 4 -13 16 -21 21 -21
13z"/>
<path d="M6498 5613 c7 -3 16 -2 19 1 4 3 -2 6 -13 5 -11 0 -14 -3 -6 -6z"/>
<path d="M6458 5603 c7 -3 16 -2 19 1 4 3 -2 6 -13 5 -11 0 -14 -3 -6 -6z"/>
<path d="M6408 5593 c7 -3 16 -2 19 1 4 3 -2 6 -13 5 -11 0 -14 -3 -6 -6z"/>
<path d="M2569 5576 c13 -16 51 -41 51 -33 0 2 -15 14 -32 27 -21 15 -28 17
-19 6z"/>
<path d="M6338 5583 c12 -2 30 -2 40 0 9 3 -1 5 -23 4 -22 0 -30 -2 -17 -4z"/>
<path d="M6163 5573 c26 -2 68 -2 95 0 26 2 4 3 -48 3 -52 0 -74 -1 -47 -3z"/>
<path d="M1795 5540 c-3 -5 -1 -10 4 -10 6 0 11 5 11 10 0 6 -2 10 -4 10 -3 0
-8 -4 -11 -10z"/>
<path d="M7564 5534 c-18 -14 -18 -15 4 -4 12 6 22 13 22 15 0 8 -5 6 -26 -11z"/>
<path d="M6258 5533 c7 -3 16 -2 19 1 4 3 -2 6 -13 5 -11 0 -14 -3 -6 -6z"/>
<path d="M2660 5516 c0 -3 9 -10 20 -16 11 -6 20 -8 20 -6 0 3 -9 10 -20 16
-11 6 -20 8 -20 6z"/>
<path d="M2730 5475 c0 -7 61 -37 66 -33 2 3 -12 12 -31 21 -19 9 -35 15 -35
12z"/>
<path d="M2860 5410 c8 -5 20 -10 25 -10 6 0 3 5 -5 10 -8 5 -19 10 -25 10 -5
0 -3 -5 5 -10z"/>
<path d="M2910 5390 c8 -5 20 -10 25 -10 6 0 3 5 -5 10 -8 5 -19 10 -25 10 -5
0 -3 -5 5 -10z"/>
<path d="M7125 5345 c-39 -14 -40 -14 -5 -8 41 7 82 22 60 22 -8 0 -33 -7 -55
-14z"/>
<path d="M1390 5340 c-16 -6 -6 -7 30 -3 30 3 57 7 59 9 8 7 -64 2 -89 -6z"/>
<path d="M3048 5343 c7 -3 16 -2 19 1 4 3 -2 6 -13 5 -11 0 -14 -3 -6 -6z"/>
<path d="M3098 5333 c7 -3 16 -2 19 1 4 3 -2 6 -13 5 -11 0 -14 -3 -6 -6z"/>
<path d="M3148 5323 c7 -3 16 -2 19 1 4 3 -2 6 -13 5 -11 0 -14 -3 -6 -6z"/>
<path d="M7033 5323 c9 -2 23 -2 30 0 6 3 -1 5 -18 5 -16 0 -22 -2 -12 -5z"/>
<path d="M1810 5310 c-450 -15 -546 -19 -563 -26 -11 -4 14 -17 75 -39 116
-40 234 -108 385 -221 194 -145 453 -420 580 -616 24 -38 46 -68 49 -68 3 0 3
3 1 8 -8 13 -44 96 -65 152 -18 46 -102 339 -102 355 0 2 -27 36 -61 75 -54
63 -88 95 -209 194 -49 40 -17 21 55 -32 33 -24 95 -81 138 -126 59 -61 77
-75 73 -56 -14 56 -47 260 -54 330 -8 89 29 80 -302 70z m356 -710 c46 -58 84
-109 84 -115 0 -5 -8 2 -17 15 -26 38 -160 196 -237 280 l-70 75 78 -75 c43
-41 116 -122 162 -180z"/>
<path d="M2130 5295 c0 -21 32 -213 53 -322 11 -56 27 -94 27 -64 0 7 4 10 9
6 5 -3 15 12 22 32 19 59 56 111 130 183 59 58 188 141 215 140 5 -1 -22 -17
-60 -36 -94 -49 -202 -157 -247 -249 -32 -66 -34 -75 -33 -170 1 -114 33 -264
89 -415 19 -51 32 -97 28 -104 -4 -7 -2 -8 5 -1 8 8 6 36 -8 105 -37 178 -24
300 49 455 65 138 193 252 387 342 74 34 298 93 353 93 16 0 32 4 35 9 3 5 16
7 29 4 12 -3 19 -3 16 0 -3 4 -252 8 -552 10 -544 3 -547 3 -547 -18z"/>
<path d="M7938 5315 c-3 -3 -225 -6 -494 -6 l-489 -1 125 -19 c220 -32 349
-77 506 -174 137 -86 244 -231 278 -378 19 -81 20 -200 4 -317 -6 -47 -11 -96
-12 -110 0 -14 -4 -28 -9 -31 -5 -4 -7 -13 -5 -20 2 -7 28 26 57 74 107 177
263 368 437 537 186 180 360 300 532 366 53 21 101 41 107 46 5 4 20 8 35 8
18 0 21 3 11 9 -7 5 -142 9 -300 10 -157 0 -355 4 -438 7 -93 4 -153 3 -153
-2 0 -21 -31 -245 -45 -323 -8 -47 -13 -86 -11 -88 2 -2 39 33 82 78 43 44 88
85 99 90 15 8 14 5 -5 -13 -14 -13 -60 -59 -103 -104 l-77 -80 -44 -155 c-25
-85 -63 -199 -84 -255 -41 -104 -82 -180 -82 -154 0 9 4 20 9 25 11 12 76 214
96 298 18 77 19 196 1 262 -33 126 -130 247 -255 320 -80 47 -90 60 -18 24 68
-35 140 -94 207 -173 67 -79 97 -140 109 -221 7 -48 9 -41 43 140 21 105 40
213 43 240 3 28 8 60 11 73 4 21 2 22 -79 22 -46 0 -86 -2 -89 -5z m-318 -45
c8 -5 11 -10 5 -10 -5 0 -17 5 -25 10 -8 5 -10 10 -5 10 6 0 17 -5 25 -10z"/>
<path d="M6290 5186 c0 -2 8 -10 18 -17 15 -13 16 -12 3 4 -13 16 -21 21 -21
13z"/>
<path d="M2602 4955 c-35 -73 -19 -123 104 -322 207 -336 448 -793 504 -958
28 -83 69 -188 86 -217 3 -4 -20 8 -51 26 -33 21 -95 44 -159 60 -133 33 -143
33 -81 -3 118 -68 356 -309 415 -421 27 -51 29 -52 24 -20 -3 19 -10 51 -16
70 -5 19 -12 90 -15 156 -6 124 10 288 43 433 8 35 13 65 11 67 -4 4 -33 -87
-42 -128 -6 -30 -25 -39 -25 -12 0 9 -22 42 -48 73 -27 31 -63 77 -82 103 -18
26 -38 45 -44 41 -6 -3 -8 -3 -4 2 4 4 0 14 -10 22 -9 8 -11 11 -4 8 11 -6 12
-3 3 13 -6 12 -16 24 -23 28 -7 5 -8 3 -3 -6 5 -9 4 -11 -4 -6 -6 4 -9 11 -6
16 3 5 -4 25 -16 44 -22 38 -37 50 -19 16 6 -11 8 -20 6 -20 -3 0 -13 14 -22
31 -8 17 -11 28 -5 25 21 -13 11 5 -16 31 -16 15 -22 23 -14 18 8 -5 0 16 -17
46 -17 30 -37 53 -43 51 -6 -1 -8 2 -4 7 8 14 -24 73 -35 66 -6 -4 -7 1 -3 11
5 13 3 15 -7 9 -9 -5 -11 -4 -6 3 10 16 -32 94 -46 86 -7 -4 -8 -3 -4 5 9 14
-72 163 -85 156 -5 -4 -6 2 -2 11 4 12 3 15 -5 10 -8 -5 -10 -1 -5 10 5 13 3
15 -7 9 -8 -5 -11 -4 -6 3 3 6 -21 59 -54 119 -62 111 -112 210 -127 251 -8
22 -10 20 -31 -23z m263 -435 c9 -16 13 -30 11 -30 -3 0 -12 14 -21 30 -9 17
-13 30 -11 30 3 0 12 -13 21 -30z m35 -60 c6 -11 8 -20 6 -20 -3 0 -10 9 -16
20 -6 11 -8 20 -6 20 3 0 10 -9 16 -20z m160 -285 c14 -19 14 -19 -2 -6 -10 7
-18 18 -18 24 0 6 1 8 3 6 1 -2 9 -13 17 -24z"/>
<path d="M3692 4860 c-7 -41 -24 -125 -38 -187 -25 -119 -32 -186 -8 -93 24
99 65 321 62 338 -2 9 -9 -17 -16 -58z"/>
<path d="M2565 4880 c-3 -5 -1 -10 4 -10 6 0 11 5 11 10 0 6 -2 10 -4 10 -3 0
-8 -4 -11 -10z"/>
<path d="M2547 4848 c-2 -7 -25 -41 -51 -75 l-46 -61 87 -88 c49 -49 92 -89
98 -89 5 0 10 -7 10 -15 0 -13 65 -110 113 -169 18 -22 5 5 -20 42 -11 15 -17
27 -14 27 10 0 55 -73 50 -82 -8 -12 66 -129 77 -123 5 4 6 -2 2 -11 -5 -13
-3 -15 7 -9 9 5 11 4 6 -3 -9 -15 24 -73 37 -65 6 3 7 1 3 -5 -9 -15 38 -95
49 -85 4 5 5 3 2 -4 -9 -15 2 -45 14 -37 5 3 6 -3 2 -12 -4 -12 -3 -15 6 -10
8 5 11 3 9 -5 -5 -23 33 -110 45 -102 6 4 8 0 4 -10 -6 -17 26 -111 35 -102 3
3 8 -13 12 -35 7 -43 -11 -97 -41 -121 -12 -10 0 -16 69 -30 46 -10 94 -21
108 -25 l25 -6 -22 16 c-13 10 -24 33 -28 58 -13 73 -41 142 -140 340 -136
270 -422 765 -478 825 -19 22 -22 22 -39 6 -24 -21 -23 -12 3 32 12 20 19 38
16 41 -2 3 -7 -1 -10 -8z m124 -355 c13 -16 12 -17 -3 -4 -17 13 -22 21 -14
21 2 0 10 -8 17 -17z m40 -50 c13 -16 12 -17 -3 -4 -17 13 -22 21 -14 21 2 0
10 -8 17 -17z"/>
<path d="M3688 4603 c-1 -32 -2 -72 -3 -90 -1 -18 -5 -99 -9 -180 -4 -81 -16
-220 -27 -307 -10 -88 -16 -162 -14 -165 3 -2 5 -2 5 1 0 2 7 51 15 109 30
215 59 689 42 689 -4 0 -8 -26 -9 -57z"/>
<path d="M3621 4504 c0 -11 3 -14 6 -6 3 7 2 16 -1 19 -3 4 -6 -2 -5 -13z"/>
<path d="M3611 4464 c0 -11 3 -14 6 -6 3 7 2 16 -1 19 -3 4 -6 -2 -5 -13z"/>
<path d="M3601 4424 c0 -11 3 -14 6 -6 3 7 2 16 -1 19 -3 4 -6 -2 -5 -13z"/>
<path d="M3592 4380 c0 -14 2 -19 5 -12 2 6 2 18 0 25 -3 6 -5 1 -5 -13z"/>
<path d="M7246 4340 c-15 -27 -25 -50 -22 -50 6 0 57 92 53 97 -2 2 -16 -19
-31 -47z"/>
<path d="M3581 4334 c0 -11 3 -14 6 -6 3 7 2 16 -1 19 -3 4 -6 -2 -5 -13z"/>
<path d="M3571 4294 c0 -11 3 -14 6 -6 3 7 2 16 -1 19 -3 4 -6 -2 -5 -13z"/>
<path d="M3562 4250 c0 -14 2 -19 5 -12 2 6 2 18 0 25 -3 6 -5 1 -5 -13z"/>
<path d="M3551 4204 c0 -11 3 -14 6 -6 3 7 2 16 -1 19 -3 4 -6 -2 -5 -13z"/>
<path d="M3535 4140 c-4 -17 -5 -34 -2 -36 2 -3 7 10 11 27 8 42 0 50 -9 9z"/>
<path d="M7130 4140 c-6 -11 -8 -20 -6 -20 3 0 10 9 16 20 6 11 8 20 6 20 -3
0 -10 -9 -16 -20z"/>
<path d="M3721 4094 c0 -11 3 -14 6 -6 3 7 2 16 -1 19 -3 4 -6 -2 -5 -13z"/>
<path d="M3521 4074 c0 -11 3 -14 6 -6 3 7 2 16 -1 19 -3 4 -6 -2 -5 -13z"/>
<path d="M7071 4044 c-12 -19 -16 -32 -11 -29 11 7 43 65 36 65 -2 0 -13 -16
-25 -36z"/>
<path d="M5981 4044 c0 -11 3 -14 6 -6 3 7 2 16 -1 19 -3 4 -6 -2 -5 -13z"/>
<path d="M3512 4030 c0 -14 2 -19 5 -12 2 6 2 18 0 25 -3 6 -5 1 -5 -13z"/>
<path d="M3712 4025 c0 -16 2 -22 5 -12 2 9 2 23 0 30 -3 6 -5 -1 -5 -18z"/>
<path d="M5971 3994 c0 -11 3 -14 6 -6 3 7 2 16 -1 19 -3 4 -6 -2 -5 -13z"/>
<path d="M3491 3944 c0 -11 3 -14 6 -6 3 7 2 16 -1 19 -3 4 -6 -2 -5 -13z"/>
<path d="M5961 3944 c0 -11 3 -14 6 -6 3 7 2 16 -1 19 -3 4 -6 -2 -5 -13z"/>
<path d="M3482 3900 c0 -14 2 -19 5 -12 2 6 2 18 0 25 -3 6 -5 1 -5 -13z"/>
<path d="M3605 3869 c-4 -6 -5 -12 -2 -15 2 -3 7 2 10 11 7 17 1 20 -8 4z"/>
<path d="M3471 3854 c0 -11 3 -14 6 -6 3 7 2 16 -1 19 -3 4 -6 -2 -5 -13z"/>
<path d="M4010 3820 c23 -27 47 -53 53 -57 7 -4 -10 19 -37 50 -27 31 -51 57
-53 57 -3 0 14 -22 37 -50z"/>
<path d="M3560 3809 c-31 -42 -20 -45 13 -4 15 19 23 35 18 35 -5 0 -19 -14
-31 -31z"/>
<path d="M3612 3790 c0 -14 2 -19 5 -12 2 6 2 18 0 25 -3 6 -5 1 -5 -13z"/>
<path d="M6175 3759 c-76 -21 -280 -116 -379 -176 -33 -20 -88 -59 -121 -86
-80 -66 -245 -245 -307 -334 -28 -40 -52 -73 -55 -73 -11 0 83 136 139 201 47
54 62 81 35 63 -29 -20 53 51 126 108 42 33 77 62 77 64 0 2 -37 -14 -82 -35
-46 -22 -144 -67 -218 -100 -164 -75 -236 -117 -264 -154 -21 -28 -21 -34 -19
-540 2 -297 -1 -504 -6 -492 -5 11 -16 47 -26 80 -23 82 -119 281 -200 415
-99 165 -175 263 -304 391 -173 172 -319 274 -496 346 -44 18 -73 33 -65 33
35 0 225 -92 302 -145 256 -179 446 -388 612 -676 63 -110 140 -268 155 -319
9 -30 10 -25 5 30 -3 36 -6 223 -5 415 1 193 -3 372 -8 399 -11 60 -25 72
-156 136 -118 58 -209 89 -377 130 -67 17 -134 35 -148 40 -24 10 -24 10 -5
-5 11 -8 35 -20 55 -25 19 -6 42 -15 50 -21 13 -9 12 -10 -3 -5 -27 9 -9 -14
20 -25 13 -5 22 -13 19 -18 -6 -10 28 -44 36 -35 7 6 81 -78 160 -184 72 -95
204 -359 169 -338 -6 4 -11 13 -11 19 0 23 -89 165 -179 283 -163 217 -294
335 -484 434 -124 65 -293 126 -378 136 -51 6 -62 3 -118 -26 -79 -42 -137
-107 -190 -212 -53 -106 -74 -204 -69 -325 2 -50 0 -89 -4 -87 -5 3 -3 -7 4
-22 11 -24 13 -25 17 -8 5 29 23 35 51 17 34 -22 143 -115 153 -130 10 -17 30
-17 21 0 -4 6 2 3 14 -7 26 -23 29 -34 5 -15 -15 11 -15 10 1 -8 10 -13 24
-20 30 -16 6 3 8 3 4 -2 -9 -9 9 -35 24 -35 5 0 6 6 2 13 -4 6 2 3 14 -7 12
-11 20 -22 17 -24 -9 -9 47 -62 58 -55 6 3 7 1 4 -4 -8 -13 18 -37 31 -29 5 3
40 -27 78 -67 l69 -72 -67 65 c-38 35 -68 60 -67 55 1 -15 154 -150 166 -148
6 1 19 -8 29 -20 l19 -22 -22 19 c-13 11 -23 17 -23 13 0 -3 44 -43 97 -89 54
-45 134 -114 178 -153 l80 -70 -120 130 c-158 172 -383 436 -522 612 -66 83
-137 161 -173 189 -33 26 -58 50 -55 53 4 3 9 1 13 -5 10 -15 72 -57 72 -48 0
3 7 0 17 -7 15 -13 15 -12 5 8 -24 44 -11 37 19 -11 48 -76 475 -598 599 -731
98 -106 166 -187 163 -195 -1 -4 9 -18 22 -30 14 -13 25 -20 25 -16 0 11 -151
209 -174 228 -12 10 -17 18 -12 18 5 0 3 7 -4 15 -7 8 -16 13 -20 10 -11 -7
-72 69 -193 238 -15 20 -39 54 -54 74 -16 20 -22 34 -16 29 7 -4 34 -37 60
-74 57 -80 192 -252 198 -252 3 0 -30 46 -73 103 -43 56 -129 175 -191 265
-62 89 -114 162 -117 162 -2 0 23 -41 57 -91 33 -50 59 -93 56 -95 -5 -5 -121
177 -122 191 -1 23 -36 75 -47 69 -7 -4 -8 -3 -4 4 6 9 -54 123 -121 230 -9
15 -18 28 -19 30 0 1 -8 0 -16 -3 -8 -3 -15 -19 -16 -37 -1 -37 -10 -48 -23
-26 -11 19 -42 16 -65 -6 -17 -17 -33 -20 -51 -8 -31 20 84 128 172 161 279
105 773 -208 1078 -681 75 -116 257 -457 287 -537 13 -36 26 -58 28 -50 3 8 8
16 12 19 4 3 17 43 29 90 75 284 172 511 282 660 34 47 117 139 183 205 218
217 420 327 695 379 119 23 372 21 469 -2 71 -17 73 -18 47 -30 -14 -7 -69
-12 -125 -12 l-100 0 -39 -77 c-21 -43 -68 -126 -103 -184 -36 -58 -65 -112
-65 -120 0 -8 -33 -64 -73 -124 -84 -127 -79 -120 -85 -114 -2 3 24 44 59 93
61 85 109 162 89 141 -5 -5 -36 -48 -68 -95 -32 -47 -94 -132 -138 -190 -110
-144 -105 -138 -85 -122 10 8 43 50 74 93 32 44 59 77 62 75 5 -6 -15 -35
-135 -195 -51 -68 -93 -128 -93 -134 0 -5 17 12 37 39 41 54 91 114 263 314
64 75 130 156 147 180 36 52 92 164 118 234 11 27 21 44 23 38 4 -12 -54 -162
-69 -176 -15 -16 -10 -30 5 -17 11 9 15 9 19 -1 2 -7 8 -1 12 14 4 16 11 25
16 22 11 -7 105 81 144 136 17 23 37 50 46 59 42 44 116 109 137 120 26 14 28
27 5 34 -235 74 -435 160 -578 247 -36 22 -69 40 -73 39 -4 0 -38 -9 -77 -20z
m-2188 -285 c-3 -3 -12 -4 -19 -1 -8 3 -5 6 6 6 11 1 17 -2 13 -5z m1788 -132
c-6 -5 -40 -32 -76 -60 -144 -112 -337 -347 -418 -509 -12 -24 -24 -43 -26
-43 -10 0 45 98 115 205 79 119 209 261 328 356 40 33 76 59 80 59 3 0 2 -4
-3 -8z m905 -42 c-8 -5 -26 -9 -40 -9 -23 1 -23 2 5 9 43 11 52 11 35 0z
m-1653 -447 c-3 -10 -5 -4 -5 12 0 17 2 24 5 18 2 -7 2 -21 0 -30z m27 -183
l5 -35 -14 35 c-7 19 -13 64 -13 100 l1 65 8 -65 c4 -36 10 -81 13 -100z m-14
-72 c0 -9 4 -18 9 -20 5 -1 11 -39 15 -83 l6 -80 -19 85 c-10 47 -22 99 -26
115 -5 23 -4 26 4 15 6 -8 11 -22 11 -32z"/>
<path d="M3555 3733 c-14 -21 -25 -41 -25 -45 0 -5 -9 -17 -20 -28 l-21 -21 3
36 c1 19 7 35 13 35 12 1 50 50 37 50 -4 0 -14 -6 -20 -12 -10 -10 -14 -10
-21 0 -10 16 -44 -162 -39 -203 4 -29 4 -29 12 10 5 22 12 42 16 45 4 3 22 31
39 63 18 33 39 70 48 83 8 13 13 24 10 24 -4 0 -18 -17 -32 -37z"/>
<path d="M3591 3717 c-8 -26 -17 -44 -22 -41 -5 3 -6 -2 -3 -10 3 -9 -20 -64
-55 -127 -34 -62 -61 -117 -61 -123 0 -6 6 -1 13 11 6 12 33 60 60 105 49 85
92 197 85 219 -2 7 -10 -8 -17 -34z"/>
<path d="M5940 3735 c-14 -8 -20 -14 -15 -14 6 0 21 6 35 14 14 8 21 14 15 14
-5 0 -21 -6 -35 -14z"/>
<path d="M3010 3610 c-8 -5 -10 -10 -5 -10 6 0 17 5 25 10 8 5 11 10 5 10 -5
0 -17 -5 -25 -10z"/>
<path d="M7265 3580 c-16 -4 -73 -18 -125 -30 -113 -26 -165 -52 -242 -117
-66 -55 -406 -407 -488 -503 -54 -63 -87 -101 -355 -405 -136 -155 -295 -307
-295 -284 0 11 -2 11 -9 -1 -6 -8 -8 -17 -5 -21 2 -4 -3 -10 -12 -13 -9 -4
-14 -9 -11 -12 8 -8 87 59 562 475 60 53 139 121 175 151 36 30 67 57 70 60
25 27 115 93 157 114 53 26 80 57 67 78 -4 7 -3 8 4 4 7 -4 12 -3 12 3 0 18
91 144 159 220 92 104 233 218 316 257 71 34 75 39 20 24z"/>
<path d="M3442 3380 c0 -14 2 -19 5 -12 2 6 2 18 0 25 -3 6 -5 1 -5 -13z"/>
<path d="M4609 3273 c24 -29 46 -53 48 -53 7 0 -54 75 -74 91 -10 8 2 -10 26
-38z"/>
<path d="M5979 2706 c-46 -41 -124 -118 -172 -170 -102 -111 -287 -336 -287
-350 0 -9 68 52 171 154 121 117 396 440 376 440 -2 0 -42 -33 -88 -74z"/>
<path d="M4190 2735 c0 -11 67 -96 211 -266 100 -118 266 -286 274 -277 3 3
-14 33 -37 69 -61 90 -448 500 -448 474z"/>
<path d="M6040 2600 c-17 -22 -29 -40 -27 -40 3 0 20 18 37 40 17 22 29 40 27
40 -3 0 -20 -18 -37 -40z"/>
<path d="M5989 2533 c-13 -16 -12 -17 4 -4 9 7 17 15 17 17 0 8 -8 3 -21 -13z"/>
<path d="M5889 2408 c-45 -57 -89 -111 -97 -120 -8 -10 -12 -18 -9 -18 3 0 41
44 84 97 43 54 86 108 96 120 10 13 16 23 13 23 -3 0 -42 -46 -87 -102z"/>
<path d="M5964 2458 c-11 -13 -26 -32 -34 -43 -14 -19 -14 -19 3 -6 18 14 62
71 54 71 -2 0 -12 -10 -23 -22z"/>
<path d="M5250 2298 c-16 -65 -81 -195 -111 -224 -15 -14 -35 -24 -45 -22 -28
5 -84 92 -119 186 -17 48 -36 87 -40 87 -4 0 -14 -22 -22 -50 -8 -27 -17 -57
-20 -65 -4 -8 -7 -23 -8 -32 -1 -10 -8 -24 -14 -32 -7 -8 -10 -20 -6 -26 7
-11 -29 -49 -49 -51 -6 -1 -15 -2 -21 -4 -5 -1 -17 -3 -25 -4 -9 -2 -5 -6 10
-11 25 -8 25 -8 -5 -10 -26 -2 -24 -3 15 -11 36 -7 52 -5 87 12 24 11 53 34
65 51 19 28 20 35 10 75 -18 65 -16 81 7 52 10 -13 28 -43 40 -66 33 -67 79
-113 110 -113 29 0 52 25 97 104 13 23 24 34 24 26 -1 -28 -37 -95 -74 -134
l-36 -40 -1 -350 c0 -193 -4 -369 -8 -391 l-7 -40 -8 34 c-5 18 -9 92 -11 165
-2 143 -10 173 -79 317 -40 85 -117 193 -148 210 -20 11 -20 11 3 23 21 10 27
8 50 -18 28 -31 55 -28 46 5 -3 11 -1 19 4 19 12 0 11 -32 -1 -65 -9 -24 -6
-30 21 -56 18 -16 34 -27 38 -24 3 4 -2 11 -12 17 -15 8 -18 20 -16 56 1 26
-1 55 -5 65 -9 19 -41 23 -51 7 -11 -17 -25 -1 -25 28 0 15 4 22 8 17 4 -6 14
-10 22 -10 8 1 20 -3 26 -7 7 -5 13 -1 17 11 4 16 -1 21 -27 24 -28 4 -29 5
-8 12 12 4 22 14 22 21 0 8 -1 14 -3 14 -8 0 -97 -90 -97 -98 0 -15 -182 17
-248 43 -34 14 -65 25 -68 25 -3 0 11 -15 33 -33 21 -18 63 -56 93 -84 30 -28
57 -50 61 -47 4 2 13 -4 20 -14 13 -15 12 -16 -3 -3 -10 7 -18 10 -18 7 0 -14
63 -85 73 -83 5 1 12 -4 15 -12 3 -8 0 -11 -7 -7 -17 11 -13 0 6 -15 15 -12
16 -12 8 1 -5 9 0 8 13 -4 26 -23 30 -45 5 -25 -16 13 -17 12 -4 -3 7 -10 17
-16 21 -13 4 3 20 -14 36 -38 39 -60 164 -308 164 -326 0 -14 -1 -14 -10 -1
-15 23 -12 12 19 -80 17 -49 31 -79 35 -70 3 8 17 49 32 90 44 123 140 317
210 422 66 100 270 322 305 333 10 4 19 10 19 15 0 5 -32 -5 -71 -21 -40 -17
-103 -37 -140 -45 -61 -13 -73 -12 -105 1 -37 15 -103 65 -86 65 5 0 12 -3 16
-7 18 -18 127 -31 187 -23 67 10 89 20 43 20 -33 0 -108 32 -119 51 -6 8 -4
10 6 3 8 -4 -9 15 -38 44 -34 34 -58 70 -72 107 -12 31 -21 60 -21 65 0 5 -4
11 -10 15 -5 3 -14 -14 -20 -37z m-370 -237 c0 -5 -13 -14 -30 -20 -38 -13
-40 1 -2 16 15 6 28 11 30 12 1 1 2 -3 2 -8z m-72 -257 c-4 -3 -12 5 -18 18
-12 22 -12 22 6 6 10 -10 15 -20 12 -24z m269 -416 c-3 -7 -5 -2 -5 12 0 14 2
19 5 13 2 -7 2 -19 0 -25z"/>
<path d="M4839 2143 c-27 -29 -28 -32 -7 -17 22 16 54 54 45 54 -2 0 -19 -16
-38 -37z"/>
<path d="M4835 2110 c-3 -5 -2 -10 4 -10 5 0 13 5 16 10 3 6 2 10 -4 10 -5 0
-13 -4 -16 -10z"/>
<path d="M5006 2055 c4 -16 8 -32 10 -34 2 -2 -2 -13 -8 -25 -10 -19 -10 -20
5 -7 18 15 19 14 32 -43 7 -35 10 -32 19 17 6 30 4 37 -9 37 -8 0 -15 4 -15
10 0 5 -9 24 -20 42 l-21 33 7 -30z"/>
<path d="M4568 2063 c23 -2 61 -2 85 0 23 2 4 4 -43 4 -47 0 -66 -2 -42 -4z"/>
<path d="M5548 2063 c18 -2 45 -2 60 0 15 2 0 4 -33 4 -33 0 -45 -2 -27 -4z"/>
<path d="M5076 2015 c4 -8 8 -15 10 -15 2 0 4 7 4 15 0 8 -4 15 -10 15 -5 0
-7 -7 -4 -15z"/>
<path d="M5083 1875 c0 -22 2 -30 4 -17 2 12 2 30 0 40 -3 9 -5 -1 -4 -23z"/>
<path d="M5052 1875 c0 -16 2 -22 5 -12 2 9 2 23 0 30 -3 6 -5 -1 -5 -18z"/>
<path d="M5000 1800 c0 -5 5 -10 11 -10 5 0 7 5 4 10 -3 6 -8 10 -11 10 -2 0
-4 -4 -4 -10z"/>
<path d="M4950 1560 c11 -22 23 -40 25 -40 3 0 -4 18 -15 40 -11 22 -23 40
-25 40 -3 0 4 -18 15 -40z"/>
<path d="M5011 1445 c0 -5 6 -21 14 -35 8 -14 14 -20 14 -15 0 6 -6 21 -14 35
-8 14 -14 21 -14 15z"/>
</g>
</svg>
